<svg xmlns="http://www.w3.org/2000/svg" viewBox="0 0 245.75 210.87"><defs><style>.cls-1{fill:#040404;}.cls-2{fill:#0c0c0c;}.cls-3{fill:#131313;}.cls-4{fill:#141414;}.cls-5{fill:#111;}.cls-6{fill:#171717;}.cls-7{fill:#161616;}.cls-8{fill:#090909;}</style></defs><g id="Camada_2" data-name="Camada 2"><g id="Camada_3" data-name="Camada 3"><path class="cls-1" d="M138.32,58.82c10.81,6.39,20.58,14.25,30.75,21.56,2.43,1.75,2,5.41,2.58,8.24q8.9,40.82,17.72,81.63c.33,1.52,1.58,2.75-1.26,3.64-11.83,3.68-23.06,9.49-36.14,8-8.33-1-15.69-4.7-23.59-6.79-4.9-1.29-5-3.45-3.76-7.58,3.61-12.12,6.82-24.37,10.27-36.55.23-.82.62-1.51.12-2.28-.84-1.28-1.7-.21-2.56,0-9.62,2.51-19.28,4.93-28.86,7.6a6.29,6.29,0,0,1-5.59-.85c-11.17-7.35-22.35-14.67-33.82-22.19,2-2.18,4.66-2.55,6.94-3.48q38.21-15.52,76.34-30.95c2.21-.89,3.78-1.41,1.42-4.26-4-4.83-7.44-10.12-11.11-15.22A4.51,4.51,0,0,0,138.32,58.82ZM133,123.27c-7.39-7.86-14.3-15.18-21.16-22.55a2.49,2.49,0,0,0-3.1-.71c-8,3.24-16,6.28-23.86,9.82-4.7,2.12-4.92,7.69-.78,10.41,4.56,3,9.26,5.84,13.67,9.06a7.89,7.89,0,0,0,7.35,1.36c9-2.45,17.94-4.75,27.9-7.38Zm-9.06-24c3.17,3.78,6.28,3.52,9.79,0Z"/><path class="cls-2" d="M168.32,198.68c-1.28,2.38,3.17,5.69-.81,7.37-5,2.12-9.21,7.38-16,3.32s-7-3.57-6.21-12.07c.95-10.39.95-10.39,11.21-10.39h2c9,0,9,0,8.75,9l.1-.17c-2.16,0-4.41.37-6.44-.15-4.84-1.25-8.69-1.87-6.6,5.33.35,1.2-1.58,2.17-.64,3.73H160c-1.77-5.87-1.77-5.88,4.41-5.86,1.32,0,2.64.05,4,.08Z"/><path class="cls-3" d="M15.25,61.82c7.46,0,11.6,6.74,8.86,14.18-.91,2.46-3.93,5.17-2.77,7.07,1.35,2.2,4.84,3.17,7.5,4.47,1.58.78,3.45,2.63,4.75-.62.55-1.39,1.71-.27,2.52,0,1.37.51.87,1.4.37,2.35C35.28,91.6,34.19,94,33,96.33c-.43.82-1,1.94-2.24,1-.67-.5-2.23-.71-1.3-2.09,1.51-2.23-.27-2.71-1.67-3.4q-9.27-4.64-18.58-9.21c-2-1-4-3.36-6.28-.13-.5.72-1.5.09-2.23-.35-.94-.56-.74-1.2-.32-2C3,75.23,4.85,69.86,8.28,65.38,10,63.16,12.23,61.38,15.25,61.82Zm.44,4.61c-3.41-.27-8,4.41-8.49,8.56-.16,1.28,6.73,6.34,8.85,5.8,3.92-1,4.56-5,5.13-8.13C21.85,68.94,19.07,67.06,15.69,66.43Z"/><path class="cls-4" d="M53.32,36.42C53.32,30,59.23,24,65.7,23.87s13.57,7.61,13.37,14.75c-.17,6.26-6.43,12.3-12.68,12.24C59.82,50.82,53.32,43.58,53.32,36.42ZM74.79,39c.08-5.23-4.66-10.93-9.24-11.12a7.89,7.89,0,0,0-8.24,7.54c0,.15,0,.31,0,.46.07,5.23,5.42,11,10.17,10.94C71.32,46.82,74.73,43.16,74.79,39Z"/><path class="cls-5" d="M182.15,25.22c-.08,7.85-6,14.23-13.09,14-6.88-.2-12.45-5.73-12.42-12.33,0-7.33,6.1-14,12.69-14.08C176.32,12.82,182.22,18.46,182.15,25.22Zm-21,2.24c0,4.86,3.41,8.5,7.78,8.38s9.27-5.92,9.27-11.26a7.8,7.8,0,0,0-7.84-7.76h0c-5.19-.13-9.2,4.52-9.17,10.64Z"/><path class="cls-3" d="M104.79,19.11c0-9.15,7.55-15.1,15.15-12.27,3.79,1.42,7.09,6.47,7.14,10.45,0,2-1.26,1.5-2.29,1.62-4.26.48-8.54.91-12.8,1.41-2.59.3-3.32,1.4-2,3.94,2,3.83,5.16,4.93,9.05,4.32a14.59,14.59,0,0,0,5-2c1.42-.86,2.11-.35,2.79.76.81,1.31-.37,1.8-1.13,2.25-4.54,2.63-9.17,4.57-14.42,1.76C106.2,28.64,105.44,23.76,104.79,19.11Zm17.53-3.58c-.57-3.27-2.11-5.43-5.7-5.62-3-.17-5.56.68-6.89,3.62-1,2.15-1.11,3.69,2.25,3.46A45.72,45.72,0,0,0,122.32,15.53Z"/><path class="cls-4" d="M204.21,61.44c0-5.35,4.55-11.15,10.44-13.22,4.75-1.66,9.88.13,13,4.55a10.75,10.75,0,0,1-2.78,14.87c-1.82,1.31-2.32-.11-3-1-2.68-3.16-5.4-6.3-7.83-9.65-1.94-2.67-3.23-1.9-4.63.33-2.54,4-1,8.72,4.06,12.23,1.18.83,3.89.84,2.65,3.2-1.38,2.6-3.23.36-4.57-.35C206.87,70,204.24,65.82,204.21,61.44Zm14.69-10.2c-1.11.34-2.8.36-3.49,1.19-1,1.26.6,2.36,1.31,3.34a47.81,47.81,0,0,0,3.91,4.49c.92,1,1.44,3.36,3.17,2.21a5,5,0,0,0,2.26-5.18,7.6,7.6,0,0,0-7.16-6Z"/><path class="cls-6" d="M235.25,87.13a35.13,35.13,0,0,1,0,3.84A6.69,6.69,0,0,1,224,95a14,14,0,0,1-3.65-14.13c.45-1.38,2-1.87,2.53-1.51,1.41,1,2.86,2.64,1.45,4.46-1.94,2.53-1,4.72.32,6.87.9,1.44,2.29,2.53,4.19,2a3.42,3.42,0,0,0,2.51-3.82c-.08-2.32-.17-4.64-.33-7-.26-3.72,1-6.45,4.75-7.71,3.54-1.19,5.62,1,7.62,3.3,3.24,3.67,2.4,8,1.8,12.24a1.76,1.76,0,0,1-2.69,1.14c-1.13-1-2.48-2.55-1.14-4.26,1.79-2.29,1-4.4-.19-6.45-.86-1.44-2.07-2.77-4-2.18s-2.27,2.23-2.21,4C234.93,83.33,235.07,84.66,235.25,87.13Z"/><path class="cls-7" d="M46.89,71.37c-1-1.09-3.42-1.58-1.72-3.39,2-2.15,0-2.83-1-3.78-2.65-2.5-5.42-4.88-8.16-7.28-1-.91-2-2.51-3.59-.74-1.22,1.35-2.08.25-2.86-.51-1-.94-.34-1.8.41-2.53C31.15,52,32.54,49.81,33.51,50c2.71.47,2.56-1.14,2.71-2.66a6.08,6.08,0,0,1,2.22-3.76c.74-.7,1.3-2.3,2.74-1.14A7,7,0,0,1,43.42,45c.51,1.35-.88,2.24-1.81,2.53-5.16,1.57-3.24,4.65-1.3,7.08,2.16,2.7,5,4.79,7.48,7.28,1.34,1.37,2.35,1,3.22-.27s1.77-1.17,2.87-.29c1.4,1.12.56,1.89-.28,2.8-1.67,1.84-3.25,3.76-4.9,5.61A20.73,20.73,0,0,1,46.89,71.37Z"/><path class="cls-3" d="M183.75,42.26c3.15,2.77,3.68-.24,4.81-1.75,1.87-2.52,3.67-5.09,5.54-7.61,1-1.42,2.77-2.65.23-4.37-1.17-.8-.06-1.68.45-2.49a1.29,1.29,0,0,1,2.36,0c1.09,1.71,5.34,1.1,3.53,5-.52,1.14,1.12.72,1.7.62,2.36-.44,4.16.66,5.88,2,.68.53,2,1.06,1.19,2.19s-1.09,2.61-2.56,2.83a2.35,2.35,0,0,1-2.35-1.5c-1.92-4.41-5-2.91-7.17-.87-2.62,2.45-4.48,5.7-6.68,8.59-1,1.29-.31,2.11.76,2.82,1.4.93,1.49,1.82.32,3.15s-2,.52-2.88-.15c-2-1.45-4-2.87-6-4.33-.76-.56-1.89-1.1-1-2.3A12,12,0,0,1,183.75,42.26Z"/><path class="cls-7" d="M83.87,6.38c1.59,1,1.44,2.32,1.83,3.38.81,2.15,1.43,4.22,4.47,2.32,1-.65,2.65-.8,3.12,1.15s-1.21,1.83-2.11,2c-2.89.6-3,2-2,4.43a58,58,0,0,1,2.92,8.4c1,3.94,2.65,6.59,7.23,4.28.91-.45,1.51-.44,2.1.34.89,1.19-.22,1.72-.86,2.3-3.92,3.53-9.13,2.34-11.13-2.66-1.53-3.83-2.68-7.81-4.14-11.67-.5-1.32-.59-3.71-3.21-2.12-1.22.74-1.73-.19-2.22-1.12-.72-1.36.41-2,1.2-2.15,2.79-.6,1.73-2.52,1.11-3.7C80.87,9,81.8,7.57,83.87,6.38Z"/><path class="cls-7" d="M146,32.91c-5.46.06-7.7-2.35-7.1-7.71.4-3.62,1.12-7.22,1.37-10.84.12-1.72,1.75-4.61-2.28-4.54-1.22,0-.8-1.16-.71-1.91s.15-1.65,1.45-1.25c3,.93,2.68-1.25,2.88-3,.22-2,1.09-4,3.27-3.61,2.62.48,1,2.61.68,4-.52,2.46,0,3.88,2.83,3.87,1.15,0,3-.61,2.64,1.76-.23,1.75-1.52,1.5-2.65,1.29-3.56-.67-4.12,1.31-4.19,4.24a73.2,73.2,0,0,1-1,7.9c-.39,3.56-1.21,7.42,4.63,6.83,1.33-.13,1.75,1,1.44,2C148.72,33.75,147,32.52,146,32.91Z"/><path class="cls-2" d="M171.66,187.29c-.31-1.48,0-2.15,1.21-2.56,6.5-2.2,13-4.53,19.45-6.72,1.21-.4,3-.74,2.86,1.33-.13,1.67,2.16,3.85-.82,5.07-6.5,2.65-12.84,5.81-19.53,7.8C170.06,193.64,173.92,188,171.66,187.29Z"/><path class="cls-8" d="M139.7,192.82c-6.47-2.6-12.9-5.32-19.44-7.75-2.86-1.07-3.1-2.41-2.3-5.22,1-3.56,2.72-1.72,4.39-1.17,4.34,1.42,8.69,2.82,13,4.3C142.38,185.37,142.37,185.4,139.7,192.82Z"/><path class="cls-5" d="M167.24,195.87c3.66,0,7.32-.07,11-.15a6.2,6.2,0,0,0,2.86-.38c1.91-1.12,3.17-4.62,5-4,2.44.83,4.24,3.56,6.73,5.86-1.63,1.41-3.1,2.3-4.07,3.57-2,2.68-3.84,2.63-5.69,0s-4.73-1.82-7.29-1.93-5-.09-7.48-.13l.08.15a4.45,4.45,0,0,0-1-3.13Zm22.22.44c-1.07-.72-2.24-2-3.56-2.2-1-.12-2.45,1.31-2.55,2.61a3,3,0,0,0,2.7,3c1.33.1,2-1.39,3.41-3.41Z"/><path class="cls-7" d="M142.22,75c-3.74,2.72-6.31,2.4-8.55-1.37-2.14-3.61-4.79-6.92-6.92-10.71A99.78,99.78,0,0,1,142.22,75Z"/><path class="cls-1" d="M137.77,59.37c-.1-.4-.37-1.09-.28-1.14.57-.32.77.1.85.6A4.9,4.9,0,0,1,137.77,59.37Z"/></g></g></svg>