<?xml version="1.0" encoding="utf-8"?>
<!-- Generator: Adobe Illustrator 25.2.1, SVG Export Plug-In . SVG Version: 6.00 Build 0)  -->
<svg version="1.1" id="Camada_1" xmlns="http://www.w3.org/2000/svg" xmlns:xlink="http://www.w3.org/1999/xlink" x="0px" y="0px"
	 viewBox="0 0 461 282" style="enable-background:new 0 0 461 282;" xml:space="preserve">
<style type="text/css">
	.st0{fill:#361B14;}
	.st1{fill:#351912;}
	.st2{fill:#894828;}
	.st3{fill:#3E3D3C;}
	.st4{fill:#F9F9F9;}
	.st5{fill:#B27744;}
	.st6{fill:#B07847;}
	.st7{fill:#BB5F5E;}
	.st8{fill:#A29F98;}
	.st9{fill:#E9E9E9;}
	.st10{fill:#343332;}
	.st11{fill:#AA815D;}
	.st12{fill:#232222;}
	.st13{fill:#623936;}
	.st14{fill:#191918;}
	.st15{fill:#A6A29A;}
	.st16{fill:#010101;}
	.st17{fill:#FFFFFF;}
	.st18{fill:#632623;}
	.st19{fill:#C25C5A;}
	.st20{fill:#8D431F;}
	.st21{fill:#B7773F;}
	.st22{fill:#262625;}
	.st23{fill:#191918;stroke:#1D1D1B;}
	.st24{fill:#C6C6C6;}
	.st25{fill:#A6A29A;stroke:#1D1D1B;}
</style>
<g id="imagem">
	<path class="st0" d="M264.4,156.5c-0.3,2,0.8,3.4,2.2,4.7c14.2,12.6,21.5,29,24.5,47.2c1.6,9.3,3.1,19.1-0.7,28.5
		c-1.8,4.6-3.7,5.8-8.3,4.2c-7.8-2.6-14.2-7.5-21-11.8c-10-6.4-20.5-10.8-32.5-11c-11.5-0.2-21,5.7-30.6,10.9
		c-7,3.8-13.2,9.3-20.9,11.9c-4.3,1.5-8.3-0.4-9.3-4.7c-1.6-6.9-1.9-14.1-1-21.1c1.1-10.1,3.7-19.9,7.7-29.2
		c4.9-11.1,12.4-20.8,21.9-28.3c2.5-2,2.6-4.5,4.2-6.5l0.1,10.2c1.2,3.5,1.2,7.3,2.6,10.9c0.9,2.2,1.3,1,2,0.1
		c0.1,0.9,0.2,1.8,0.4,2.7l-0.9,3.3c-0.3,1.8-0.4,3.6-0.4,5.4c0.8,6.5-1.9,11.6-5.7,16.6c-6.5,8.4-7.3,18.2-6,29.2
		c2.5-3.2,6.5-3,8-6.5c3,0.2,5.4-0.6,6.8-3.5l1.9,0.2c3.6-1.5,8.8-1,9.1-6.8c1.6,0.8,2.9,2.3,4.9,1.8l4,0.4c2.9,1.8,6.1,0.3,9.1,0.9
		l4.7,0.9l2.1,0.3c2.1,1.5,4.2,2.8,7,2.4l9.8,5.5c1.4-8.5,2.8-16.6-0.5-24.3c-2.4-5.4-2.9-10.9-3.5-16.6l0.2-6l1.2-2.5
		c2.8,0.7,3.1-1.8,3.3-3.2c0.4-2.7,0.5-5.5,0.4-8.2C261.5,161.7,261.5,158.6,264.4,156.5L264.4,156.5z"/>
	<path class="st1" d="M184.7,146.9c0,4.2,0,8.1-3.4,11.4c-3.2,3-6.3,4-10.6,2.3c-7.1-2.8-11.9-8-15.8-14.3
		c-4.6-7.3-7.9-15.1-8.2-23.9c-0.2-5.6,0.7-10.9,6.3-13.8s10.7,0.3,14.5,3.7C177.9,121.4,184,133,184.7,146.9z"/>
	<path class="st1" d="M265.4,126.7c3.3,0.6,5.2,3.6,8.2,5c2.7,1.3,3.7,0.5,4.8-1.7c3.8-7.6,8.1-14.8,15.6-19.4
		c3.7-2.3,7.7-4.4,12.2-2s6.2,6.7,6.1,11.4c-0.6,16.8-7.4,30.6-21.8,39.8c-5.7,3.6-12.4,2.1-15-4.8c-0.8-2-1.9-3.3-4.1-3.7
		c-0.1-0.8,0.4-1.6,1.1-1.9c1.4,0.9,2.7,1.9,4.1,0c0.3-0.6,0.5-1.3,0.8-1.9l0.4-1.1l0.7-0.8l3.2-4.1c0.8-0.5,1-1.6,0.5-2.4
		c-0.1-0.2-0.3-0.3-0.5-0.5c-0.8-1.2-1.6-2.2-3.2-2.1c-0.9-2.4-3.4-1.9-5.1-2.7c-3.3-0.7-5.2-3.7-7.8-5.4
		C265.4,127.8,265.4,127.3,265.4,126.7z"/>
	<path class="st1" d="M234.5,128.7c2.1-0.2,1.9-1.3,1.7-3c-1.7-14.7,2.2-27.7,12.4-38.6c2.9-3.1,7.2-4.8,11.2-3.1
		c4.3,1.9,6.5,6.1,7.7,10.9c2.6,11-0.1,21.3-3.9,31.5l-1.1,1l-2.7,0.1c-1.2,0-2.4-0.3-3.2,0.9l-5.1,3l-0.9,0.9l-0.1,0.1l-0.8,0.7
		l-2.1,0.1c-0.8-2.7-3-1.5-4.7-1.5l-3.3-0.5c-0.7-0.6-1.6-0.9-2.5-0.6l-0.2,0.1l-0.2-0.2L234.5,128.7z"/>
	<path class="st0" d="M234.5,128.7l2,1.9l-4.2,0.1c-3.2-1.2-7.5,1.8-9.7-2.8c-3.1-6.5-8.2-8.6-15-7.3l-6,2l-7-1
		c-1.4-0.4-2.9,0-3.9,1c-2.3,1.4-0.1,4.3-1.9,5.9c0-3.5-1.4-7.1,3.2-9.4c0.9-0.4,0.1-5.1-0.5-7.7c-1.8-7.9-1.3-15.4,2.5-22.6
		c2.3-4.6,7.8-6.5,12.4-4.2c0.4,0.2,0.8,0.4,1.1,0.7c9.7,6.4,12.9,16.4,14.8,27c0.5,1.9,0.9,3.8,1.2,5.7
		C224.2,128.2,224.3,128.2,234.5,128.7z"/>
	<path d="M135.6,70.5c2.3,2.2,4.8,4.1,6.8,6.5c2.4,3,4.5,3.4,7.2-1c0.6,7.3-5.5,7.7-8.5,11c2-3.9-0.4-5.8-2.6-8
		c-4.7-4.8-9.2-9.8-13.8-14.7c-1.6-1.7-3-3.6-6-1.5c3.5-6.6,7.7-12.1,14.9-13.6c3.4-0.5,6.8,1.2,8.4,4.3c2.4,4.1,2,7.7-0.6,11.1
		C139.9,66.6,137.8,68.3,135.6,70.5z M124.9,58.3c2.6,2.8,5.3,5.5,7.8,8.4c0.4,0.5,0.7,1.5,1.2,1.1c2.5-1.9,5.8-3.4,6.2-6.9
		c0.5-2.8-1-5.7-3.7-6.7C131.4,52.2,128,54.8,124.9,58.3L124.9,58.3z"/>
	<path d="M310.3,60.2c0,5.9,0,5.9-5.6,4.6c-2.6-0.6-5.2-1.5-7.9-1.9c-0.8-0.1-1.7-1.5-2.4-0.3c-0.5,0.9,0,1.8,0.8,2.6
		c1.3,1.5,2.9,2.7,4.7,3.3c1.3,0.4,2.8,0.2,2.3,2.2c-0.4,1.5-1.5,2-3,2c-5,0-10.2-7.7-8.1-12.3c1.6-3.5,2.5-7.3,6.9-8.7
		C304.7,49.7,310.3,53.4,310.3,60.2z M295.3,57.4c4,1.9,8,2.4,12.2,3.3C303.5,54.3,301.8,53.8,295.3,57.4L295.3,57.4z"/>
	<path d="M216.7,42.5c3,3.7,6.5,2.8,10,1.7c0.8-0.3,1.3-1.6,2.3-0.3s0,2-0.8,2.8c-3.2,3.2-7.7,3.1-11,1.8c-3.6-1.4-5.9-5-5.7-8.9
		c0.4-8.3,8.2-14,14.8-10.7c2.3,1,3.8,3.1,4.1,5.6c0.2,2.6-2.5,2.6-4.1,3.5C223.2,39.5,220,40.9,216.7,42.5z M226,34.1
		c-5.6-3.3-9.6-2.4-11.1,2c-0.3,0.7-0.4,1.5-0.1,2.3c0.6,1,1.7,0.6,2.6,0.1L226,34.1z"/>
	<path d="M191.6,47.4c0,5.4-6,11.5-11.1,11.4c-4.8-0.1-10-5.4-9.8-10.1c0.1-5.6,5.8-11.7,10.8-11.8c5.6,0,10.1,4.6,10.1,10.2
		C191.6,47.2,191.6,47.3,191.6,47.4z M181.2,41c-3.6-0.1-7.3,3.1-7.4,6.4c-0.1,3.1,4.6,8,7.8,7.4s6.5-1.6,7-5.6
		C189,45.7,184.5,41,181.2,41z"/>
	<path d="M262.8,33c6.6,0,10.6,3.8,10.5,10c0,5.3-6.1,11-11.6,10.9s-9.4-4.1-9.3-9.6C252.5,37.7,256.9,33,262.8,33z M261.8,37
		c-4.2,0-6.5,2.3-6.4,6.2c0.1,3.5,3.7,6.8,7.5,6.8s6.5-2.5,6.5-6.2C269.3,39,266.9,36.9,261.8,37L261.8,37z"/>
	<path d="M311.8,73c-1.3,3.7-1.8,6,1,7.9c1.2,0.8,2.2,1.3,3.5,0.4c1.6-1.1,0.6-2.2,0-3.3c-1.3-2.5-2.6-4.8-0.8-8
		c1.5-2.6,3.2-3.4,5.8-3.1c2.4,0.2,4.3,2,4.8,4.3c0.8,2.3-0.4,4.8-2.7,5.6c-0.2,0.1-0.3,0.1-0.5,0.1c-1-0.9,0.2-1.4,0.3-2.1
		c0.1-2-1.3-2.9-2.7-3.8c-0.4-0.3-1.7-0.3-1.8,0c-0.8,1.3-0.7,2.9,0.2,4.1c1.7,2.9,2.1,5.5-0.8,8.3c-1.9,1.8-3.8,3.1-6.1,2.1
		c-2.8-1.1-4.9-3.5-5.6-6.5C306.2,76.8,308.2,74.8,311.8,73z"/>
	<path d="M205.4,30.5c0.7,1.5-0.6,2.3-1.1,3.4c-0.8,1.7-4-0.1-3.5,2.5c0.8,3.7,2,7.3,3.1,11c0.1,0.2,0.5,0.4,0.7,0.4
		c1,0.2,3-2.8,2.9,0.7c0,2.7-2.7,2.9-4.7,3.4c-2.2,0.5-2-1.1-2.3-2.6c-0.5-2.7-1.1-5.3-1.9-7.9c-0.9-2.8,0.5-8.4-6.1-3.9
		c0.3-1.4,0.2-2,0.5-2.2c3.7-3,3.6-6.5,1.8-10.6c-0.7-1.6,0.5-3.3,2.2-5c0.8,1.9,1.4,3.9,1.8,5.9C199.3,31.1,200.1,31.6,205.4,30.5z
		"/>
	<path d="M244.5,15.8c0,3.5,0.4,5.7-0.1,7.6c-0.8,3.2-2.3,6.2,3.2,5.6c0.9-0.1,2.1,1,1.8,1.9c-0.4,1.1-1,2.9-2.9,2.3
		c-4.1-1.3-3.8,1.4-4,4c-0.1,2.2,0.7,4.6-0.6,6.8c-0.8,1.3,0,1.8,1.2,1.8c1.4,0,2.9-0.1,2.4,2s-2.2,2.1-3.9,2
		c-1.3-0.1-3,0.6-3.1-1.9c-0.1-4.1,1.4-8,1.2-12.1c-0.1-2,0.1-2.8-2.1-3.3c-2.8-0.7-1.2-3.5-0.4-3.5c5.6-0.2,2.8-5,4.1-7.5
		C242.1,20.1,242.1,18.3,244.5,15.8z"/>
	<path class="st2" d="M272.4,149.4c-0.7,0.3-1.2,1.1-1.1,1.9c-2.3,1.7-4,4.3-7,5.2l0,0c2.2-5.2-1.6-8.8-3.6-12.7
		c-1.9-3.7-1.8-8,1.5-9.3c1.2,4.4,4.7,7.7,9.1,8.8C270.6,145.6,273.1,147.2,272.4,149.4z"/>
	<path d="M151,55.5c2.8-5.5,4.7-6.3,7.3-2.8c0.7-2,1-4,2.6-5.4c0.7-0.6,1.3-1.9,2.4-1.1c0.7,0.7,0.8,1.8,0.1,2.5
		c0,0-0.1,0.1-0.1,0.1c-5.2,4.4-1.9,8.4,0.6,12.3c0.7,1.1,1.5,3.8,3.8,1.3c0.7-0.8,1.1,0,1.5,0.4c0.6,0.4,0.7,1.2,0.3,1.7
		c-0.1,0.1-0.2,0.3-0.4,0.4c-2.4,1.9-4.9,3.7-7.5,5.3c-1.1,0.6-1.7-0.1-1.2-1.7c1-3.1-2.4-11.7-5-13.3C153.9,54.2,152.5,57,151,55.5
		z"/>
	<path d="M294.2,44.4c-2.1,1.7-2.3,4.2-5.5,2.8c-1.9-0.8-5.3,0-6.1,2.5s-4.8,5.1-0.7,8.1c0.1,0.1,0.2,0.2,0.3,0.4
		c0.6,1.5-0.5,2.1-1.5,2.5c-1.5,0.7-8.1-2.1-8-3.5s0.6-3.7,1.9-3.2c5.3,2,4.3-3.1,5.6-5c1-1.5,4.8-4.4-0.1-6.5
		c-0.7-0.3,0.4-1.9,0.9-2.8c1-1.5,1.9,0.4,2.9,0.2C285,45.6,289.8,43.2,294.2,44.4z"/>
	<path class="st3" d="M188.8,128.5c1.9-1.6-0.4-4.5,1.9-5.9c-2.1,6.2,3.2,9.1,5.8,13.2c0.2,2.9,1.8,4.9,3.9,6.7
		c2.8,6.3,1.5,12.7,0.2,19.1l-0.1-10.2c-0.2-6.9-5-11.5-8.4-16.8C190.9,132.6,188.7,131.2,188.8,128.5z"/>
	<path class="st0" d="M262.4,127.6l1.1-1l1.9,0.2v1.6C264.3,128.5,263.2,128.7,262.4,127.6z"/>
	<path class="st4" d="M232.3,130.7l4.2-0.1l0.2,0.2l0.2-0.1c0.7,0.9,1.6,0.8,2.5,0.6l3.3,0.5l1.9,1.7c0.1,1.1-0.3,2.6,0.3,3.3
		c3.9,4.2,4,8.7,1.5,13.6c-1.1,0.8-1.9,1.9-2.3,3.2c-0.5-0.2-0.9,0-1.1,0.5l1.2,0.2c0.1,0.2,0.3,0.3,0.4,0.4
		c0.2,3.1,0.8,5.7,4.9,5.7c1.3,0,4.8,0.8,2.6,3.2s-0.8,2.6,0.7,3.5c3.4,2.1,6.2,4.5,4.9,9.1l-1.2,2.5l-2,0.7
		c0.5-1.9-0.2-4.1-1.8-4.4c-1.4-0.3-2.9,1.4-3.5,3.2c-2.1,5-6.5,4.7-10.8,4.8c-1.3-4.2,3.8-6.4,3.2-10.4c2.2-5.4-0.8-8.1-5.3-10.1
		c0.2-2.7,4.7,0.8,4.2-3c-0.3-1.9-0.6-4.3-2.4-4.5c-3.2-0.3-6.7-1.1-9.9,0.5c-0.9,0.5-1.9,1.1-1.4,2.2s1.6,0.7,2.6,0.5
		c4.6-0.8,5.4-0.4,6.2,3.5c-4.1-2.4-7.8-1.8-11,1.7c-1.7,1-3.5,1.8-4,4c-1.7,1.3,0.2,2.6,0.1,3.9c-0.3,3.5,4.2,7.6-1.1,10.6l-5-2.6
		c-0.6-1.7-1.6-3.2-2.9-4.4c-2.2-3.2-2.4-3.2-6,0.4c-0.1-0.9-0.2-1.8-0.4-2.7c0.1-5.2,3.9-7.5,7.9-8.9c6.5-2.2,10.9-6.4,12.5-13.3
		c0.3-1.2,1.3-2.8,2.1-2.4c3.1,1.4,2.7-1.3,3.1-2.6C232.5,140.6,234.6,135.8,232.3,130.7z"/>
	<path class="st5" d="M232.3,130.7c2.3,5.1,0.2,9.8-1.3,14.6c-0.4,1.3,0,4-3.1,2.6c-0.8-0.3-1.8,1.3-2.1,2.4
		c-1.6,6.9-6,11-12.5,13.3c-3.9,1.4-7.7,3.8-7.9,8.9c-0.7,0.8-1.1,2.1-2-0.1c-1.5-3.5-1.4-7.3-2.6-10.9c1.3-6.4,2.6-12.8-0.2-19.1
		c0.8-0.3,1.7-0.3,2.2-0.8c3.1-3.3,5.5-7.6,11.1-6.8c0.7,0.1,1-0.9,1.5-1.7c2.7-4.4,1-7.9-5.7-11.5c-0.8,0.1-1.6-0.3-2-1
		c6.8-1.3,12,0.8,15,7.3C224.7,132.5,229.1,129.5,232.3,130.7z M221.2,146.5l-0.5-1.1c-0.2-0.9-1-1-1.8-1.1c-1-3.5-3.8-2.4-5.6-1.4
		c-2.4,1.3-4.7,3-5.5,6c-0.1,0.3,0.4,0.8,0.8,1.2c3.4,3.5,9.6,3.2,13.4-0.6L221.2,146.5z"/>
	<path class="st6" d="M246.4,150.3c2.5-4.8,2.4-9.3-1.5-13.6c-0.6-0.6-0.2-2.2-0.3-3.3l2.8-0.2l2.1-0.1l0.8-0.7l0.1-0.1l0.9-0.9
		l5.1-3c1.1-0.2,2.3,0.2,3.2-0.9l2.7-0.1c0.8,1.1,1.9,0.9,3,0.8c2.7,1.7,4.5,4.7,7.8,5.4c-2.4,3.5,0.9,6.2,2.6,6.9
		c2.3,1,2-2.4,2.6-4.2c1.6-0.1,2.4,1,3.2,2.1v2.8l-3.2,4.1l-0.7,0.8l-0.4,1.1c-1,0.3-0.8,1.1-0.8,1.9c-1.4,1.8-2.8,0.9-4.1,0
		c0.7-2.2-1.8-3.8-1.1-6v0.1c0.1-0.1,0.4-0.1,0.4-0.2c0-0.2,0-0.5,0-0.7c-0.4-1.7-1-3.4-1.7-5c-1.7-3-3.8-5.2-7.7-3
		c-3.3,1.3-3.4,5.6-1.5,9.3c2,3.8,5.8,7.5,3.6,12.7c-2.9,2.1-2.8,5.2-2.9,8.2c0.1,2.8,0,5.5-0.4,8.2c-0.3,1.4-0.5,3.9-3.3,3.2
		c1.4-4.6-1.5-7-4.9-9.1c-1.4-0.9-2.7-1.2-0.7-3.5s-1.3-3.2-2.6-3.2c-4.1-0.1-4.7-2.6-4.9-5.7l4.8,2.7c1,1.1,2.3,1.8,3.8,2
		c2.8,0.4,7.7-2.8,6.8-4.6c-1.5-2.8-2.6-6.2-6.7-6.3C250.6,147.2,248.8,150.1,246.4,150.3z"/>
	<path class="st4" d="M256.3,184.6c0.6,5.6,1.1,11.2,3.5,16.6c3.4,7.7,1.9,15.8,0.5,24.3l-9.9-5.5c-1.2-3.9-3.6-4.7-7-2.4l-2.1-0.3
		c-0.1-1.3,0.2-2.6,1-3.7c4.8-7.8,4.6-16.8,6.1-25.3c0.3-3.2,3.8-4.1,4.9-6.8C256.5,180.6,254.8,184,256.3,184.6z"/>
	<path class="st4" d="M209.4,220l-1.9-0.2c-0.4-0.5-0.8-1-1.3-1.4c-1.6-1.4-2.5-4.5-5.3-3c-2.5,1.3-1,4-1,6.1c0,0.6,0.5,1.2,0.8,1.8
		c-1.4,3.4-5.4,3.3-8,6.5c-1.3-11-0.5-20.8,6-29.2c3.8-5,6.5-10.1,5.7-16.6c-0.1-1.8,0.1-3.6,0.3-5.4c3.6,4.5,1.2,9.9,1.9,14.8
		C208,202.1,208,211.1,209.4,220z"/>
	<path class="st7" d="M227.5,215.4l-4-0.4c-0.6-2.2-3.7-2.4-4.1-4.8l-0.9-0.9l0.1,0.1v-13.1l0.2-5.8l1-0.9c4.1,1.7,7.2,3.6,5.2,9.2
		c-1,2.9-0.2,6.5-0.2,10.3c3.9-3.4,1.8-7.7,3.5-11c1.1-2.3,0.4-6.7,2.8-6.7c3.7,0,1.8,4.5,3,6.8c0.1,0.1,0.2,0.3,0.3,0.4l0.1,9.2
		c0.4,2-1.5,3-1.9,4.6C232.1,215,228.2,212.7,227.5,215.4z"/>
	<path class="st8" d="M209.4,220c-1.4-8.8-1.4-17.9-2.7-26.7c-0.8-4.9,1.7-10.3-1.9-14.8l0.9-3.3c3.5-3.7,3.7-3.7,6-0.4
		c-5.2,2.2-2.8,6-2.1,9.5c0,1.6,0.3,3.3,1,4.8c1.5,3.8,3,7.7,2.9,11.9c-0.2,4.6,1.7,9.1,5.1,12.1C218.2,219,213.1,218.5,209.4,220z"
		/>
	<path class="st8" d="M248.5,188.2c-1.6,8.6-1.3,17.6-6.1,25.3c-0.8,1.1-1.1,2.4-1,3.7l-4.7-0.9c1.2-2.5,2.9-4.9,3.6-7.5
		c1-3.4,2.8-7,0.2-10.6c0-3.5,1.8-6.4,3.5-9.2C245.8,189.9,247,188.2,248.5,188.2z"/>
	<path class="st3" d="M244.1,189c-1.8,2.8-3.5,5.7-3.5,9.2c-0.7,0.5-1.2,1.3-1.1,2.2c-1.5-0.2-3.2-0.7-2.9,1.8c0.3,2-0.5,4-2,5.2
		l-0.1-9.2c0-0.4,0.1-0.7,0.1-1.1c1.2,0.1,1.6-0.5,2.1-1.5c1.6-3.2,2.6-6.7,5.9-8.8c-1.6-1.3-3.7-1.8-5.7-1.4l-1.2-1.1
		c0.4-1.6,2.2-0.5,2.9-1.5c4.3-0.1,8.7,0.1,10.8-4.8l5.3,1.2l2-0.7l-0.2,6c-1.5-0.6,0.2-4-2.9-3.2
		C248.3,181.5,246.7,185.9,244.1,189z"/>
	<path class="st9" d="M218.6,213.1c-3.5-3.1-5.3-7.6-5.1-12.2c0.1-4.2-1.4-8.1-2.9-11.9c-0.7-1.5-1-3.1-1-4.8c1.7-0.2,3,7.1,5.1,0.3
		c1.1-0.2,2.4-1,3.1,0.7l1,5l-0.2,5.8c-1.3,0.9-3.6-3.9-3.4-0.1c0.2,4.4-0.7,9.6,3.4,13.2l-0.1-0.1l0.9,0.9c0.4,2.4,3.5,2.6,4.1,4.8
		C221.5,215.4,220.1,214,218.6,213.1z"/>
	<path class="st10" d="M239.4,200.4c-0.1-0.9,0.3-1.7,1.1-2.2c2.6,3.6,0.8,7.2-0.2,10.6c-0.8,2.6-2.4,5-3.6,7.5
		c-3-0.6-6.2,0.8-9.1-0.9c0.6-2.7,4.5-0.3,5-3.3c2.6,0.7,3.2-1.5,3.8-3C237.6,206.3,238.4,203.3,239.4,200.4z"/>
	<path class="st8" d="M200.7,223.2c-0.3-0.6-0.8-1.2-0.8-1.8c0-2.1-1.5-4.8,1-6.1c2.8-1.5,3.7,1.6,5.3,3c0.5,0.4,0.9,0.9,1.3,1.4
		C206.1,222.6,203.6,223.4,200.7,223.2z"/>
	<path class="st11" d="M243.5,217.5c3.4-2.2,5.7-1.5,7,2.4C247.7,220.3,245.6,219.1,243.5,217.5z"/>
	<path class="st2" d="M278.4,136.5c-0.5,1.7-0.2,5.1-2.6,4.2c-1.6-0.7-5-3.4-2.6-6.9C275,134.5,277.4,134.1,278.4,136.5z"/>
	<path class="st0" d="M281.6,141.4v-2.8c0.8,0.5,1,1.6,0.5,2.4C281.9,141.1,281.8,141.3,281.6,141.4z"/>
	<path class="st0" d="M276.6,149.4c0-0.8-0.2-1.6,0.8-1.9C277.1,148.1,276.8,148.8,276.6,149.4z"/>
	<path class="st0" d="M277.7,146.4l0.7-0.8L277.7,146.4z"/>
	<path class="st0" d="M247.5,133.3l-2.8,0.2l-1.9-1.7C244.5,131.8,246.6,130.6,247.5,133.3z"/>
	<path class="st0" d="M259.7,127.6c-0.8,1.1-2.1,0.7-3.2,0.9C257.3,127.3,258.5,127.6,259.7,127.6z"/>
	<path class="st0" d="M239.5,131.3c-0.9,0.2-1.8,0.3-2.5-0.6C237.8,130.4,238.8,130.7,239.5,131.3z"/>
	<path class="st0" d="M251.4,131.6l-0.9,0.9L251.4,131.6z"/>
	<path class="st0" d="M250.3,132.5l-0.8,0.7L250.3,132.5z"/>
	<path class="st6" d="M207.6,120.6c0.4,0.7,1.2,1.1,2,1c0,1.4-2.7,0.2-2,2.2c-1.5,2-3.8,3.6-2.9,6.6c-2.5,2.1-3.8,6-8.1,5.3
		c-2.6-4.1-7.9-7-5.8-13.2c1-1,2.5-1.4,3.9-1c-2,3.3-0.9,6.9,1.9,7.8c3.2,1,4.2-2.6,4.8-5.4c0.1-0.5,0.2-1,0.3-1.4L207.6,120.6z"/>
	<path class="st2" d="M201.6,122.7c-0.1,0.5-0.2,1-0.3,1.4c-0.6,2.8-1.7,6.4-4.8,5.4c-2.8-0.9-3.9-4.6-1.9-7.8L201.6,122.7z"/>
	<path class="st4" d="M262.2,134.6c3.8-2.2,6,0,7.7,3c0.7,1.6,1.3,3.3,1.7,5c-0.1,0.3-0.2,0.6-0.3,0.9v-0.1
		C266.9,142.3,263.5,138.9,262.2,134.6z"/>
	<path class="st2" d="M196.5,135.8c4.3,0.7,5.6-3.2,8.1-5.3c5.9-2,6.2-2.7,2.9-6.6c-0.7-2,2-0.9,2-2.2c6.7,3.6,8.4,7.1,5.7,11.5
		c-0.4,0.7-0.8,1.8-1.5,1.7c-5.6-0.8-8,3.6-11.1,6.8c-0.5,0.5-1.5,0.5-2.2,0.8C198.4,140.7,196.7,138.6,196.5,135.8z"/>
	<path class="st12" d="M236.3,162.4c4.4,2,7.5,4.7,5.3,10.1h-2c-0.3-0.4-0.5-0.8-0.8-1.2c-0.9-1-1.6-2.2-3.2-1.7
		c-0.7,0.2-0.9,0.9-0.6,1.6c0.5,1.3,1.3,2.3,2.8,2.2c0.5,0,1,0,1.5,0c-1.3,3.8-4.7,5.2-7.8,7h-1.8c-2.1-2.6-5.1-4.6-6.1-8.1l-3-4.8
		c0.5-2.1,2.3-3,4-4l2.4,0.1c0.8,3.8,3.7,1.6,5.5,1.7c3.7,0.2,1.3-1.5,0.5-2.6l2.6-0.2l0.4,0.1L236.3,162.4z"/>
	<path d="M249.5,157.4l-4.8-2.7c-0.2-0.1-0.3-0.2-0.4-0.4l0.2-0.4l-0.2-0.3c0.3-1.3,1.1-2.5,2.3-3.2c2.4-0.3,4.1-3.1,6.9-1.8
		c0.1,0.6,0.3,1.2,0.6,1.8c2.8,4.6,2.7,4.8-2.7,6.2C250.6,156.8,250,157.1,249.5,157.4z"/>
	<path class="st11" d="M236.3,162.4l-0.4,0.1l-0.4-0.1c0-0.2,0-0.5,0.1-0.7c-0.9-3.9-1.6-4.4-6.2-3.5c-1,0.2-2.1,0.6-2.6-0.5
		s0.6-1.8,1.4-2.2c3.2-1.6,6.7-0.8,9.9-0.5c1.7,0.2,2.1,2.6,2.4,4.5C241,163.2,236.5,159.7,236.3,162.4z"/>
	<path class="st10" d="M214.7,184.7c-2.1,6.8-3.4-0.5-5.1-0.3c-0.7-3.5-3.1-7.3,2.1-9.5c1.3,1.2,2.4,2.7,2.9,4.4L214.7,184.7z"/>
	<path class="st8" d="M223.6,172.2c1,3.5,4,5.4,6.1,8.1c-1.5,3.3-4.7,1.7-7.1,2.3l-2.9-0.7c5.3-3,0.8-7.1,1.1-10.6L223.6,172.2z"/>
	<path class="st8" d="M231.5,180.3c3.1-1.8,6.5-3.2,7.8-7c0.2-0.2,0.3-0.5,0.3-0.8h2c0.7,4-4.4,6.2-3.2,10.4c-0.7,1-2.5-0.1-2.9,1.5
		l-2-0.1C233.5,182.6,230.9,182.3,231.5,180.3z"/>
	<path class="st3" d="M219.6,181.9l2.9,0.7l0.1,1.5l-2.2,1.2h-2.7c-0.7-1.7-2-0.9-3.1-0.7c0-1.8-0.1-3.6-0.1-5.4L219.6,181.9z"/>
	<path class="st3" d="M235.5,161.7c-0.1,0.2-0.1,0.5-0.1,0.7l-2.6,0.2c-2-0.6-4.2-0.3-5.9,0.9l-2.4-0.1
		C227.8,160,231.4,159.3,235.5,161.7z"/>
	<path class="st8" d="M254.5,179.2l-5.3-1.2c0.5-1.8,2-3.5,3.5-3.2C254.3,175.2,255,177.3,254.5,179.2z"/>
	<path class="st3" d="M223.6,172.2l-2.9-1c0.1-1.3-1.8-2.5-0.1-3.9L223.6,172.2z"/>
	<path class="st6" d="M244.2,153.6l0.2,0.3l-0.2,0.4l-1.2-0.2C243.3,153.5,243.7,153.3,244.2,153.6z"/>
	<path class="st10" d="M222,149.4c-3.8,3.8-10,4.1-13.4,0.6c-0.3-0.3-0.8-0.9-0.8-1.2c0.8-2.9,3.1-4.7,5.5-6c1.8-1,4.5-2.1,5.6,1.4
		c-2.9,0.6-5.6,1.6-6.4,4.9C215.5,152,218.8,149.7,222,149.4z"/>
	<path class="st12" d="M222,149.4c-3.2,0.4-6.5,2.7-9.6-0.2c0.9-3.3,3.5-4.3,6.4-4.9c0.8,0,1.5,0.1,1.8,1.1l0.5,1.1L222,149.4z"/>
	<path class="st10" d="M221.2,146.4l-0.5-1.1L221.2,146.4z"/>
	<path class="st3" d="M249.5,157.4c0.6-0.3,1.2-0.6,1.8-0.8c5.4-1.4,5.5-1.6,2.7-6.2c-0.3-0.6-0.5-1.2-0.6-1.8
		c4.1,0,5.2,3.5,6.7,6.3c0.9,1.7-4,5-6.8,4.6C251.8,159.2,250.5,158.5,249.5,157.4z"/>
	<path class="st2" d="M271.3,143.5c0.1-0.3,0.2-0.6,0.3-0.9c0,0.2,0,0.5,0,0.7C271.7,143.4,271.4,143.4,271.3,143.5z"/>
	<path class="st9" d="M244.1,189c2.6-3.2,4.2-7.5,9.4-7.6c-1.1,2.7-4.6,3.6-4.9,6.8C247,188.2,245.8,189.9,244.1,189z"/>
	<path class="st13" d="M220.5,185.3l2.2-1.2c1.5,0.3,2.7,1.3,3.3,2.7c0.5,0.9,1.7,1.7,2.3,0.6c1.2-2.3,3.9-1.5,5.3-3.1l2,0.1
		l1.2,1.1c-1.8,3.7-1.2,7.9-2.3,11.8c0,0.4-0.1,0.7-0.1,1.1c-0.1-0.1-0.2-0.2-0.3-0.4c-1.2-2.3,0.7-6.8-3-6.8
		c-2.4,0-1.7,4.4-2.8,6.7c-1.6,3.3,0.5,7.6-3.5,11c0-3.8-0.8-7.4,0.2-10.3c2-5.6-1.1-7.5-5.2-9.2C219.5,188,219.7,186.6,220.5,185.3
		z"/>
	<path class="st3" d="M218.6,209.3c-4.2-3.6-3.3-8.8-3.4-13.2c-0.1-3.8,2.2,1.1,3.4,0.1V209.3z"/>
	<path class="st9" d="M239.4,200.4c-1,2.9-1.8,5.9-3.1,8.7c-0.7,1.5-1.2,3.7-3.8,3c0.5-1.6,2.3-2.6,1.9-4.6c1.5-1.3,2.3-3.3,2-5.2
		C236.3,199.6,238,200.2,239.4,200.4z"/>
	<path class="st12" d="M220.5,185.3c-0.7,1.2-1,2.7-0.8,4.1l-1,0.9c-0.3-1.7-0.6-3.3-1-5L220.5,185.3z"/>
	<path class="st3" d="M219.4,210.1l-0.9-0.9L219.4,210.1z"/>
	<path class="st9" d="M234.5,197.2c1-3.9,0.5-8,2.3-11.8c2-0.4,4.1,0.1,5.7,1.4c-3.3,2.1-4.3,5.7-5.9,8.8
		C236.1,196.8,235.7,197.3,234.5,197.2z"/>
	<path class="st4" d="M207.6,123.8c3.3,4,2.9,4.7-2.9,6.6C203.8,127.4,206.1,125.8,207.6,123.8z"/>
	<path class="st10" d="M233.5,184.3c-1.4,1.6-4.1,0.8-5.3,3.1c-0.6,1.1-1.8,0.3-2.3-0.6c-0.6-1.4-1.8-2.4-3.3-2.7c0-0.5,0-1-0.1-1.5
		c2.4-0.6,5.6,1,7.1-2.3h1.8C230.9,182.3,233.5,182.6,233.5,184.3z"/>
	<path class="st9" d="M227,163.6c1.7-1.2,3.9-1.5,5.9-0.9c0.8,1.1,3.2,2.8-0.5,2.6C230.7,165.1,227.7,167.3,227,163.6z"/>
	<path d="M239.6,172.5c0,0.3-0.1,0.6-0.3,0.8c-0.5,0-1,0-1.5,0c-1.6,0.1-2.3-0.8-2.8-2.2c-0.3-0.7-0.1-1.3,0.6-1.6
		c1.6-0.5,2.3,0.7,3.2,1.7C239,171.6,239.3,172,239.6,172.5z"/>
</g>
<g id="traço_pata">
	<path class="st1" d="M311.8,116.3c-0.6-1.6-1.3-3.2-2.2-4.8c-0.8-1.5-2-2.7-3.5-3.5c-3.3-1.7-7.2-0.5-9.3,0.5
		c-4.1,2-7.7,4.9-10.6,8.5c-2.8,3.6-5.4,7.4-7.7,11.4c-0.3,0.5-0.5,1-0.8,1.6c-0.1,0.1-0.1,0.2-0.2,0.4c-0.2,0.4-0.4,0.9-0.7,1.3
		c-0.4,0.6-1.1,1-1.8,1h-0.1c-0.6-0.1-1.2-0.3-1.7-0.8l-6-4.4v0c-0.2-0.2-0.5-0.4-0.9-0.4l0,0c-1.3,0-2.6-0.4-3.7-1.2l-0.4-0.3v-0.3
		c0.1-0.7,0.4-1.4,0.8-2l0.1-0.1c2.2-3.9,3.6-8.2,4.1-12.6c0.5-4.4,0.6-8.9,0.3-13.4c-0.3-2.9-1.2-5.6-2.6-8.2
		c-1.4-2.6-3.7-4.5-6.5-5.3c-3-0.6-6.1,0-8.6,1.8c-2.5,1.8-4.7,4.1-6.3,6.8c-3.2,4.8-5.7,10.1-7.3,15.7c-1.2,6.7-1.2,13.5,0.1,20.2
		l0.1,0.7l-0.7-0.1c-3.9-0.6-7.9-0.7-11.8-0.2h-0.5l-0.1-0.5c-0.1-0.2-0.2-0.5-0.4-0.7c-0.2-0.3-0.4-0.6-0.5-0.9
		c-0.1-0.1-0.1-0.3-0.1-0.5l0,0l-0.2-7.5c0-1.5-0.1-3.1-0.2-4.6c-0.4-3.2-1-6.3-2-9.4c-0.2-0.7-0.4-1.4-0.6-2.1
		c-1.2-3.5-2.7-6.9-4.6-10.1c-1.9-3.3-4.8-6-8.2-7.6c-3.5-1.6-7.5-1.3-10.7,0.7c-2.5,1.8-4.3,5-5.3,9.5c-1.4,6.5-1.1,13.3,1,19.6
		l0.2,0.4c0.4,0.9,0.5,1.8,0.4,2.8c-0.2,0.6-0.6,1.2-1.2,1.4c-0.3,0.2-0.6,0.4-0.9,0.7l0,0c-1.4,1.2-2.2,2.9-2.2,4.7
		c0,2,0.5,3.9,1.4,5.7c1.8,3.5,4.2,6.8,7,9.6l0,0c1.8,2.6,4.1,6.1,4,10c-0.1,1-0.2,2-0.5,3c-0.2,0.9-0.6,1.8-1.1,2.6
		c-0.7,0.9-1.5,1.7-2.5,2.3l-0.2,0.1c-4.3,3.2-8.2,7-11.6,11.1l0,0c-10.5,13.1-16.8,29-18.2,45.7c-0.2,5.1-0.1,10.2,0.4,15.3
		c0.1,2.5,0.6,4.9,1.6,7.2c0.9,2.2,2.9,3.9,5.3,4.4c2.1,0.3,4.5-0.4,7.2-2.1c8.6-5.6,18.3-11.5,24.7-15.1l0.2,0.4l-0.2-0.4l1.4-0.7
		c2.6-1.4,5.3-2.6,8.1-3.6c12.8-4.1,22.9-1.5,31.2,1.5c7.5,2.8,14.3,7.1,20.8,11.3c2.2,1.4,4.4,2.8,6.5,4.1l5.9,2.9
		c1.7,0.9,3.5,1.6,5.4,1.8c1.5,0.1,3.7-0.3,4.6-2l0,0c2.1-2.7,2.3-6.2,2.4-9.8v-0.5c0.5-13.3-1.5-26.5-6-39l0,0
		c-4.1-11-10.9-20.9-19.6-28.9l0,0c-0.5-0.6-0.8-0.9-0.9-1.1c-0.1-0.1-0.2-0.2-0.3-0.3l-0.2-0.1c-0.7-0.6-1-1.5-0.9-2.3
		c0.2-1.2,1.5-1.8,2.5-2.2l0.2-0.1c1.5-0.7,2.8-1.7,3.7-3l0.2-0.2c0.3-0.5,0.7-0.9,1.1-1.2c0.7-0.5,1.5-0.4,2.2,0.1l0,0l0,0l0.1,0.1
		l0,0c0.6,0.7,1.2,1.5,1.7,2.2c0.3,0.5,0.5,1.1,0.7,1.6c0.9,3.2,3.7,5.5,7.1,5.7c2.9,0.3,5.8-0.4,8.3-2c2.5-1.6,4.7-3.5,6.7-5.7
		c2.8-3.1,5.4-6.5,7.7-10l-0.2-0.1c2.4-4,4.2-8.3,5.4-12.8C312.3,125.4,312.5,120.8,311.8,116.3L311.8,116.3z"/>
	<path class="st1" d="M168.7,159.2c2.5,1.3,5.4,1.7,8.1,0.9c3-1,5.5-3.8,6.6-7.4s0.6-7.5,0.1-10.5c-1.1-6.6-3.4-13-6.7-18.8l0,0
		c-2-4.4-5.5-7.7-8.3-10.1c-2.1-1.9-4.4-3.5-7-4.7c-4.9-2.5-10.9-0.6-13.5,4.3c-0.4,0.8-0.7,1.7-0.9,2.6c-1,3.3-0.6,7-0.1,10.5
		c1.7,10.8,6.8,20.6,14.7,28.1C163.8,156.1,166.2,157.8,168.7,159.2z"/>
	<path d="M312.7,115.9c-0.6-1.7-1.3-3.3-2.2-4.9c-0.9-1.6-2.3-3-3.9-3.9c-3.7-1.9-7.9-0.5-10.1,0.4c-4.3,2-8,5-10.9,8.7
		c-2.9,3.6-5.5,7.5-7.8,11.5l0,0l0,0l0,0c-0.3,0.5-0.6,1.1-0.8,1.6c0,0.1-0.1,0.3-0.2,0.4c-0.1,0.4-0.3,0.7-0.5,1
		c-0.2,0.3-0.6,0.5-1,0.6c-0.4-0.1-0.8-0.3-1.1-0.6l-5.7-4.2c0-0.1-0.1-0.1-0.1-0.2c-0.4-0.4-0.9-0.6-1.4-0.7l0,0
		c-1.1,0.1-2.3-0.3-3.2-1c0.1-0.4,0.3-0.9,0.6-1.2v-0.1c2.3-4,3.8-8.4,4.3-13c0.5-4.5,0.6-9.1,0.3-13.6l0,0c-0.4-3-1.3-5.9-2.7-8.5
		c-1.5-2.8-4.1-4.9-7.2-5.8c-3.3-0.7-6.7,0-9.4,2c-2.6,1.9-4.8,4.3-6.5,7.1c-3.3,4.9-5.8,10.4-7.4,16.1l0,0
		c-1.2,6.6-1.2,13.3,0,19.9c-3.6-0.5-7.3-0.5-11-0.2c-0.1-0.2-0.3-0.5-0.4-0.7c-0.2-0.2-0.3-0.4-0.4-0.7v-0.2c0-0.2,0-0.4-0.1-0.5
		l-0.2-6.9c0-1.5-0.1-3.1-0.2-4.7c-0.4-3.2-1.1-6.4-2.1-9.5l-0.5-1.7l0,0c-1.2-3.7-2.9-7.3-4.8-10.8c-2-3.5-5.1-6.3-8.7-8
		c-3.8-1.7-8.2-1.4-11.7,0.8c-2.7,1.9-4.6,5.3-5.7,10.1c-1.4,6.7-1.1,13.6,1,20.1l0.2,0.5c0.3,0.7,0.4,1.4,0.3,2.2
		c-0.1,0.4-0.3,0.5-0.8,0.8c-0.2,0.1-0.4,0.3-0.7,0.4l0,0c-1.8,1.3-3,3.4-3,5.7c0,2.2,0.5,4.3,1.5,6.2c1.9,3.7,4.3,7,7.2,9.9
		c2.1,3.1,3.8,6,3.7,9.1c-0.1,1-0.2,1.9-0.5,2.8c-0.2,0.8-0.5,1.6-1,2.3c-0.6,0.8-1.4,1.5-2.3,2.1l-0.2,0.1
		c-4.4,3.3-8.3,7.1-11.8,11.3l0.4,0.3l-0.4-0.3c-10.6,13.3-17,29.4-18.3,46.3h0.5h-0.5c-0.2,5.1-0.1,10.3,0.4,15.4
		c0.1,2.6,0.7,5.2,1.7,7.6c1.1,2.5,3.3,4.4,6,4.9c0.4,0.1,0.8,0.1,1.2,0.1c2.4-0.1,4.7-0.9,6.7-2.4c8.5-5.6,18.2-11.5,24.7-15l0,0
		l1.4-0.7c2.6-1.4,5.2-2.6,8-3.5c12.5-4,22-1.6,30.5,1.5c7.4,2.7,14.1,7,20.6,11.2c2.3,1.4,4.4,2.8,6.5,4.1l0.2-0.4l-0.2,0.5l6,2.9
		c1.8,1,3.7,1.6,5.7,1.9c0.2,0,0.4,0,0.6,0c1.9,0.1,3.7-0.8,4.8-2.3l0,0c2.4-3,2.6-6.8,2.7-10.5v-0.5c0.5-13.8-1.7-27.5-6.4-40.4
		h-0.1c-4.2-10.8-10.9-20.5-19.5-28.3l0,0l-0.8-1c-0.1-0.1-0.2-0.3-0.4-0.4l-0.1-0.1c-0.4-0.4-0.7-0.9-0.6-1.5
		c0.1-0.7,1-1.1,1.9-1.5l0.2-0.1c1.6-0.7,3.1-1.9,4.1-3.3l0.2-0.2c0.2-0.4,0.5-0.7,0.8-0.9c0.3-0.2,0.6-0.2,0.9,0
		c0.6,0.7,1.1,1.4,1.6,2.1c0.2,0.4,0.4,0.9,0.5,1.4c0.1,0.4,0.2,0.8,0.4,1.2c1.5,2.9,4.3,4.8,7.5,5.2c0.5,0.1,1,0.1,1.4,0.1
		c2.6-0.1,5.2-0.8,7.5-2.2c2.6-1.6,4.9-3.6,6.9-5.9c2.9-3.2,5.6-6.7,7.9-10.3l-0.2-0.1c2.4-4,4.2-8.4,5.4-12.9
		C313.4,125.4,313.6,120.6,312.7,115.9L312.7,115.9z M311.1,129.8c-1.2,4.5-3,8.8-5.4,12.8l0.2,0.1c-2.3,3.5-4.9,6.9-7.7,10
		c-1.9,2.2-4.2,4.2-6.7,5.7c-2.5,1.6-5.4,2.3-8.3,2c-3.3-0.2-6.2-2.5-7.1-5.7c-0.1-0.6-0.4-1.1-0.7-1.6c-0.5-0.8-1-1.5-1.7-2.2l0,0
		l-0.1-0.1l0,0l0,0c-0.6-0.5-1.5-0.5-2.2-0.1c-0.4,0.3-0.8,0.7-1.1,1.2l-0.2,0.2c-1,1.3-2.3,2.3-3.7,3l-0.2,0.1
		c-1,0.5-2.2,1-2.5,2.2c-0.1,0.9,0.2,1.8,0.9,2.3l0.2,0.1c0.1,0.1,0.2,0.2,0.3,0.3c0.1,0.2,0.4,0.5,0.9,1.1l0,0
		c8.7,7.9,15.5,17.8,19.6,28.9l0,0c4.5,12.5,6.5,25.7,6,39v0.5c-0.1,3.6-0.3,7.1-2.4,9.8l0,0c-1,1.7-3.1,2.1-4.6,2
		c-1.9-0.3-3.7-0.9-5.4-1.8l-5.9-2.9c-2.1-1.3-4.2-2.6-6.5-4.1c-6.5-4.2-13.3-8.5-20.8-11.3c-8.2-3-18.4-5.6-31.2-1.5
		c-2.8,1-5.5,2.2-8.1,3.6l-1.4,0.7l0.2,0.4l-0.2-0.4c-6.5,3.5-16.2,9.5-24.7,15.1c-2.7,1.8-5,2.5-7.2,2.1c-2.4-0.5-4.3-2.2-5.3-4.4
		c-1-2.3-1.5-4.7-1.6-7.2c-0.4-5.1-0.6-10.2-0.4-15.3c1.4-16.7,7.7-32.6,18.2-45.6l0,0c3.4-4.2,7.3-7.9,11.6-11.2l0.2-0.1
		c1-0.6,1.8-1.4,2.5-2.3c0.5-0.8,0.9-1.7,1.1-2.6c0.3-1,0.5-2,0.5-3c0.2-3.8-2.2-7.4-4-10l0,0c-2.8-2.8-5.2-6.1-7-9.6
		c-0.9-1.7-1.4-3.7-1.4-5.7c0-1.8,0.9-3.5,2.2-4.7l0,0c0.3-0.3,0.6-0.5,0.9-0.7c0.6-0.3,1-0.8,1.2-1.4c0.2-0.9,0-1.9-0.4-2.8
		l-0.2-0.4c-2.1-6.3-2.4-13.1-1-19.6c1-4.5,2.7-7.7,5.3-9.5c3.2-2,7.2-2.3,10.7-0.7c3.5,1.6,6.3,4.3,8.2,7.6
		c1.9,3.2,3.4,6.6,4.6,10.1c0.2,0.7,0.4,1.4,0.6,2.1c1,3.1,1.6,6.2,2,9.4c0.1,1.5,0.2,3.1,0.2,4.6l0.2,7.5l0,0c0,0.2,0,0.3,0.1,0.5
		c0.1,0.3,0.3,0.7,0.5,0.9c0.2,0.2,0.3,0.4,0.4,0.7l0.1,0.5h0.5c3.9-0.4,7.9-0.4,11.8,0.2l0.7,0.1l-0.1-0.7
		c-1.2-6.7-1.3-13.5-0.1-20.2c1.6-5.6,4-10.9,7.3-15.7c1.6-2.7,3.8-5,6.3-6.8c2.5-1.8,5.6-2.5,8.6-1.8c2.8,0.8,5.1,2.8,6.5,5.3
		c1.4,2.5,2.2,5.3,2.6,8.2c0.3,4.5,0.2,8.9-0.3,13.4c-0.5,4.4-1.9,8.7-4.1,12.6l-0.1,0.1c-0.4,0.6-0.7,1.3-0.8,2v0.3l0.4,0.3
		c1,0.8,2.4,1.3,3.7,1.2l0,0c0.3,0,0.6,0.2,0.9,0.4v0l6,4.4c0.5,0.4,1,0.7,1.7,0.8h0.1c0.7,0,1.4-0.4,1.8-1c0.3-0.4,0.5-0.8,0.7-1.3
		c0-0.1,0.1-0.3,0.2-0.4c0.2-0.5,0.5-1.1,0.8-1.6c2.3-4,4.8-7.8,7.7-11.4c2.8-3.6,6.5-6.5,10.6-8.5c2-0.9,6-2.2,9.3-0.5
		c1.5,0.8,2.7,2,3.5,3.5c0.9,1.5,1.6,3.1,2.2,4.8l0,0C312.5,120.8,312.3,125.4,311.1,129.8z"/>
	<path d="M168.3,160.1c1.8,0.9,3.8,1.4,5.9,1.4c1,0,2-0.1,3-0.5c3.3-1.1,6.1-4.2,7.2-8.1c0.9-3.6,0.9-7.4,0.1-11
		c-1.2-6.7-3.4-13.1-6.7-19l0,0c-2.1-4.6-5.7-8-8.7-10.5c-2.1-2-4.6-3.6-7.2-4.9c-5.4-2.7-12-0.6-14.8,4.8c-0.4,0.9-0.8,1.8-1,2.7
		c-1,3.5-0.6,7.3-0.1,10.9l0.5-0.1l-0.5,0.1c1.7,11,7,21.1,15,28.7l0.3-0.4l-0.3,0.4C163.2,156.9,165.7,158.6,168.3,160.1z
		 M147,126.1c-0.5-3.5-0.8-7.2,0.1-10.5c1.1-5.4,6.3-8.9,11.8-7.9c0.9,0.2,1.8,0.5,2.6,0.9c2.6,1.2,4.9,2.8,7,4.7
		c2.8,2.4,6.3,5.7,8.3,10.1l0,0c3.3,5.8,5.6,12.2,6.7,18.8c0.5,3,1,6.8-0.1,10.5s-3.5,6.5-6.6,7.4c-2.7,0.7-5.6,0.4-8.1-0.9
		c-2.5-1.4-4.9-3-7-5C153.8,146.7,148.6,136.8,147,126.1L147,126.1z"/>
</g>
<g id="traço_dog">
	<path class="st14" d="M249.5,177.7c-0.3,0.5-0.6,1-1,1.4c-1.2,1.5-3,2.5-5,2.8h-0.4c-0.2,0-0.3,0-0.5,0c-0.3,0.8-0.8,1.5-1.5,2
		c-0.7,0.3-1.4,0.5-2.2,0.6c-0.5,0.1-1,0.2-1.5,0.2c-0.2,0-0.5,0-0.7-0.1c-0.7-0.1-1.3-0.5-1.7-1.2c-1.6,0.2-3.1-0.4-4.1-1.7
		l-0.2-0.3c-0.2-0.3-0.4-0.6-0.7-0.7s-0.8,0.2-1.1,0.5s-0.3,0.3-0.4,0.5c-0.3,0.3-0.5,0.7-0.9,0.9c-1,0.6-2.2,0.8-3.4,0.4
		c-0.4-0.1-0.8-0.2-1.2-0.3c-0.5-0.1-1-0.3-1.4-0.4l0.4,0.4c0,0,0.1,0.1,0.1,0.2c0.6-0.1,1.2,0,1.7,0.3c0.5,0.2,1,0.6,1.3,1
		c0.3,0.4,0.6,0.8,0.9,1.2c0.2,0.4,0.5,0.7,0.8,1c0.1,0.1,0.2,0.1,0.3,0.1c0.1-0.1,0.2-0.2,0.3-0.3l0.2-0.6c0.1-0.3,0.2-0.5,0.4-0.7
		c0.7-0.9,1.7-1.5,2.8-1.5c1.1,0,2.2,0.3,3,1c0.4,0.3,0.8,0.7,1.1,1.2c0.3,0.5,0.5,1,0.4,1.6c-0.1,0.5-0.3,1-0.6,1.4
		c-0.2,0.4-0.3,0.8-0.3,1.3c0,0.3,0,0.7,0.1,1l0.2-0.3c0.1-0.2,0.3-0.4,0.4-0.7c0.2-0.5,0.4-0.9,0.6-1.4l1.1-2.9
		c0.1-0.3,0.3-0.5,0.6-0.7c0.3-0.2,0.6-0.2,0.9-0.2c0.6,0,1.1,0.2,1.6,0.5c0.5,0.2,1,0.6,1.3,1.1c0.3,0.5,0.3,1.2,0,1.8
		c-0.3,0.4-0.7,0.9-1.1,1.2c-0.4,0.3-0.7,0.7-1,1.1c-0.6,0.8-1.1,1.7-1.6,2.6c-0.5,0.8-0.4,1.8-0.8,3c-0.5,1.1-1.3,1.9-2.3,2.4
		c0,1.1,0,2.2,0.1,3.4l0.1,2.5v0.7c0.1-0.2,0.2-0.5,0.3-0.7c0.3-0.9,0.7-1.8,1-2.7c1.2-3.7,2.9-7.2,4.9-10.5
		c2.6-4.1,5.9-7.7,9.6-10.7c0.4-0.3,0.8-0.5,1.2-0.8s0.5-0.3,0.8-0.5c-0.2-0.2-0.4-0.4-0.5-0.7c0-0.1-0.1-0.1-0.1-0.2V178h-0.1h-0.2
		H251c-0.3,0-0.5-0.1-0.7-0.2l-0.3-0.1C249.9,177.7,249.7,177.7,249.5,177.7z"/>
	<path class="st15" d="M250.6,177c0.1,0.1,0.3,0.1,0.4,0.1h0.2h0.2c0.3-0.1,0.7,0,0.9,0.3c0.1,0.1,0.2,0.3,0.2,0.5c0,0,0,0.1,0,0.1
		c0.1,0.2,0.2,0.3,0.4,0.5l0.2-0.2c0.8-0.8,1-2,0.6-3c-0.5-0.6-1.2-1-2-1c-0.4,0-0.7,0.1-0.8,0.3l0,0c-0.4,0.8-0.8,1.6-1.2,2.3
		l0.3,0.1L250.6,177z"/>
	<path class="st15" d="M241.3,170.1c-0.1,0.2-0.2,0.4-0.3,0.5c-1.5,2.3-3.2,4.3-5.3,6c-1,0.9-2.1,1.7-3.3,2.4
		c-0.6,0.4-1.2,0.7-1.9,0.8c0.5,0.2,0.8,0.6,1.1,1l0.2,0.3c0.8,1.1,2.2,1.5,3.5,1.2l0.5-0.1l0.1,0.5c0.2,0.5,0.6,0.8,1.1,0.9
		c0.6,0.1,1.2,0,1.8-0.1c0.7-0.1,1.3-0.3,1.9-0.5c0.5-0.3,0.8-0.8,1-1.3c-0.9-0.2-1.8-0.5-2.6-0.9c-0.5-0.2-1-0.5-1.3-1
		c-0.7-1.2,0.3-2.5,0.8-3.2C240,174.7,240.9,172.5,241.3,170.1z"/>
	<path class="st15" d="M245.3,200.5c0.3-1.5,0.8-3.3,1.4-5.3c0.9-3.2,2.1-7.9,2.1-9.3c-2.7,2.7-5,5.8-6.9,9.2
		c-1.2,2.4-2.3,4.9-3.2,7.4c-0.7,2-1.5,4-2.4,6l-0.5-0.2l0.4,0.3l-0.6,0.9c-0.4,0.6-0.8,1.2-1.2,1.8L234,211l0.4,0.3
		c-0.8,1-3.9,4-7.7,4.1H226c-2.5,0.1-5-0.5-7.1-1.9c-2.6-1.9-4.4-4.6-5.2-7.7c-0.3-1.4-0.5-2.7-0.5-4.1c0-1.6-0.2-3.2-0.7-4.7l0,0
		c-0.6-2.3-1.4-4.6-2.4-6.8c-0.5-1.2-1-2.4-1.5-3.6c0,0-0.9-2.5-0.3-3.3l0,0c-0.3-0.4-0.5-0.7-0.8-1.1s-0.7-0.9-1.1-1.4
		c-0.5,2.1-0.5,4.2-0.2,6.3l1.7,18.8c0.2,2.6,0.5,5.1,1,7.7c0.4,1.8,0.9,3.6,1.6,5.3c0.1,0,0.3,0,0.4-0.1l0,0c1-0.4,1.9-0.7,2.9-1
		l0.2,0.5l-0.1-0.5c8.5-2.4,17.5-2.8,26.1-1c-0.1,0-0.1-0.1-0.2-0.1c-0.8-0.9,0-2.2,0.3-2.6C243.1,210.1,244.3,205,245.3,200.5z"/>
	<path class="st15" d="M218.5,181h-0.3c0.2,0.2,0.5,0.3,0.8,0.4c0.4,0,0.8,0,1.2,0c1.1,0,2.2,0.1,3.2,0.5c0.4,0.1,0.7,0.2,1.1,0.3
		c0.8,0.3,1.8,0.2,2.5-0.3c0.3-0.2,0.5-0.5,0.7-0.7c0.1-0.2,0.3-0.4,0.5-0.6c0.3-0.3,0.6-0.5,0.9-0.6c-0.4-0.1-0.7-0.2-1-0.3
		c-0.6-0.4-1.2-0.9-1.6-1.4l-1.3-1.5c-0.8-1-1.7-2.1-2.5-3.1c-0.5-0.7-1.1-1.4-1.6-2c0.1,0.9,0.4,1.8,0.8,2.5c0.5,0.9,0.8,1.8,1,2.8
		c0,1-0.4,2-1.1,2.7C221.1,180.5,219.8,181,218.5,181z"/>
	<path class="st16" d="M238.5,170.8c-0.6-0.7-1.3-1.3-2.2-1.7c-0.4-0.2-0.8-0.2-1.2-0.3h-0.3c-0.7,0-0.9,0.1-0.9,0.2
		c-0.3,0.4-0.3,1-0.1,1.4c0.3,0.6,0.9,1.1,1.6,1.2c0.7,0.2,1.5,0.3,2.3,0.3c0.7,0,1.1,0,1.2-0.3S238.8,171.2,238.5,170.8z"/>
	<path class="st17" d="M234.4,197.2c0.7-0.4,1.2-0.9,1.5-1.6c0.4-0.8,0.3-2,1-3c0.5-0.9,1.1-1.8,1.7-2.7c0.3-0.4,0.7-0.8,1.1-1.2
		c0.4-0.3,0.7-0.6,1-1c0.3-0.3,0.3-0.8,0.1-1.2c-0.2-0.4-0.6-0.7-1-0.9c-0.4-0.2-0.9-0.4-1.4-0.5c-0.5,0-0.9,0.3-1,0.7
		c-0.3,0.4-0.4,1-0.6,1.4s-0.5,0.9-0.7,1.4l-0.7,1.4l-0.4,0.7c-0.1,0.1-0.1,0.2-0.2,0.3c0,0,0,0.1-0.1,0.1c0.1,0.5,0.3,1,0.4,1.5
		l0,0v0.1L235,193c-0.1,0.1-0.3,0.2-0.5,0.1c-0.1,0-0.2,0-0.3-0.1c-0.1,0-0.2-0.1-0.3-0.2c0.5,1.3,0.7,2.6,0.6,4L234.4,197.2z"/>
	<path class="st18" d="M234.8,187.1c0-0.9-0.5-1.7-1.2-2.1c-0.7-0.5-1.6-0.8-2.5-0.8c-0.9,0.1-1.7,0.5-2.2,1.2
		c-0.1,0.2-0.2,0.4-0.3,0.6l-0.3,0.7c-0.2,0.3-0.4,0.6-0.8,0.7c-0.4,0.1-0.8,0-1.1-0.2c-0.4-0.3-0.8-0.7-1.1-1.2
		c-0.3-0.4-0.6-0.7-0.9-1.1c-0.5-0.5-1-0.8-1.7-0.9c0.5,0.9,0.8,1.9,0.9,2.8c0.2,1.2,0.1,2.4-0.2,3.5l0.1,0c0.3-0.2,0.6-0.4,1-0.6
		l0,0l0.5-0.2l0.2,0.5c0.4,1.5,0.6,3.1,0.3,4.7c-0.2,1.5-0.5,3-0.6,4.5c-0.2,1.5-0.3,3-0.2,4.5c0,1.2,0.1,2.3,0.2,3.4v-0.2l0.2-1.3
		c0.1-0.8,0.2-1.7,0.4-2.5c0.3-1.7,0.6-3.4,1-5.1c0.8-3.4,1.8-6.6,3-9.9l0,0l0.1-0.4l0.2,0.4c0.6,1.4,2,2.1,3,3.3
		c0.1,0,0.2,0.1,0.3,0.1l0.5,0.3l0.5,0.3h0.1c-0.3-0.8-0.5-1.7-0.5-2.5c0-0.5,0.1-1.1,0.4-1.5C234.5,187.9,234.7,187.5,234.8,187.1z
		"/>
	<path class="st17" d="M216.5,184.6c-0.1-0.3-0.3-0.6-0.6-0.7c-0.2,0-0.5,0-0.7,0.1c-0.9,1.3-1.1,2.9-0.5,4.4c0.2,0.5,0.5,1,0.8,1.5
		c0.3,0.5,0.6,1,0.8,1.5c0.2,0.5,0.3,1,0.4,1.6c0,0.3,0.1,0.7,0.2,1l0,0l0.8,0.8l0.3,0.3c0.2-1.1,0.3-2.1,0.5-3.2
		c-1-0.7-1.6-1.7-1.8-2.9c-0.2-1.1-0.2-2.1-0.1-3.2C216.7,185.5,216.7,185.1,216.5,184.6z"/>
	<path class="st19" d="M218.4,207.7c0,0.5,0.2,1,0.3,1.4c1.2,1.7,2.9,2.9,4.8,3.4c2.3,0.6,4.7,0.2,6.6-1.1c1.9-1.3,3-3.3,4-5.7v-0.4
		v-1.2l-0.1-2.5c0-1.4-0.1-2.8-0.1-4.3l0,0c0-0.2,0-0.4,0-0.7c0.2-1.6-0.2-3.2-0.9-4.6c-0.8-1.2-2.3-2-3-3.4
		c-1.1,3.1-2.1,6.3-2.8,9.5c-0.4,1.7-0.7,3.3-1,5c-0.1,0.8-0.3,1.7-0.4,2.5l-0.2,1.3l-0.1,0.6v0.3v0.2v0.1c0,0,0,0-0.1,0h-0.1l0,0
		c-0.1,0-0.1,0-0.1,0v-0.1v-0.1c-0.3-1.4-0.5-2.8-0.6-4.2c-0.1-1.5-0.1-3.1,0-4.6c0.1-1.5,0.4-3,0.5-4.5c0.1-1.3,0-2.5-0.3-3.7
		l-0.4,0.2c-0.2,0.1-0.4,0.2-0.6,0.3c-0.3,0.1-0.6,0.1-0.9,0l-0.5-0.2l0.2-0.5c0.4-1.2,0.6-2.5,0.4-3.8c-0.1-1-0.5-2-1-2.8
		c-0.7,1.8-1.3,3.6-1.8,5.5c-0.5,2.2-0.9,4.3-1.2,6.5c-0.3,2.2-0.5,4.4-0.6,6.6c0,1.1-0.1,2.2,0,3.3
		C218.3,206.7,218.3,207.2,218.4,207.7z"/>
	<path class="st17" d="M215.6,145.8c0,0,0.1,0,0.2,0c0.1,0,0.1-0.1,0.2-0.1l0.9-0.7c-0.1-0.2-0.2-0.4-0.2-0.6c0-0.1,0-0.1,0-0.2
		l-0.1-0.1c-0.2-0.2-0.5-0.3-0.7-0.3h-0.1c-0.2,0-0.4,0.1-0.5,0.3c-0.1,0.1-0.2,0.2-0.2,0.3l-0.1,0.2l-0.1,0.1
		c0,0.3,0.1,0.5,0.3,0.7C215.3,145.6,215.4,145.8,215.6,145.8z"/>
	<path class="st1" d="M203.2,130.5l0.3-0.2c0-0.1-0.1-0.1-0.2-0.2C203.3,130.3,203.2,130.4,203.2,130.5z"/>
	<path class="st15" d="M201.7,214.1l-1-1.1c-0.5,3.7-0.6,7.4-0.3,11.1c0.3-0.2,0.7-0.4,1-0.5c0.6-0.3,1.2-0.6,1.8-0.9s1-0.5,1.4-0.8
		c1.4-0.7,2.8-1.3,4-1.8C206.1,219.2,203.9,216.6,201.7,214.1z"/>
	<path class="st20" d="M194.6,126.5c0.3,1,1,1.8,1.9,2.2c0.7,0.2,1.4,0.1,1.9-0.3c0.6-0.4,1.1-0.9,1.5-1.5c1.1-1.5,1.7-3.3,1.8-5.1
		c-0.8,0.2-1.6,0.1-2.4-0.1c-0.6-0.2-1.2-0.4-1.7-0.7c-0.4-0.2-0.9-0.4-1.3-0.6h-0.1c-0.3,0.5-0.6,1-1.1,1.4c-0.6,0.5-1.1,1.2-1.3,2
		C193.9,124.9,194.1,125.8,194.6,126.5z"/>
	<path class="st20" d="M271.8,133.7c0.2,0.2,0.4,0.3,0.6,0.5c1.2,0.8,2,2.1,2.2,3.5c0.1,0.6,0.4,1.2,0.7,1.8
		c0.2,0.3,0.4,0.5,0.5,0.5l0,0c0.1,0,0.3-0.1,0.4-0.2c1.4-1.1,2.1-2.8,1.9-4.6l0,0c-0.9-0.5-1.8-0.9-2.8-1.2l-0.8-0.3
		c-1.4-0.4-2.7-0.9-3.9-1.6l0.3,0.2C270.9,132.4,270.8,132.8,271.8,133.7z"/>
	<path class="st17" d="M205.6,128.9c0.2,0,0.5-0.1,0.7-0.1c0.3,0,0.7-0.1,1-0.2c1.2-0.4,2-1.5,2-2.8v-0.3c0-1.1-0.1-1.4-2.2-2.5
		c-1.3,1.4-2.2,3.1-2.9,4.9l-0.3,0.8c-0.2,0.5-0.4,1-0.6,1.5c0.2-0.1,0.4-0.3,0.6-0.4C204.4,129.3,205,129,205.6,128.9z"/>
	<path class="st20" d="M203.2,139.3c0.2-0.3,0.3-0.7,0.4-1l0.2-0.5c0.2-0.6,0.6-1.1,1.2-1.5c0.6-0.5,1.5-0.5,2.1,0
		c0.2,0.2,0.4,0.4,0.5,0.7c0,0.1,0.1,0.2,0.2,0.2c0.1,0.2,0.3,0.2,0.3,0.2c0.1,0,0.1-0.1,0.1-0.2c0.1-0.4,0-0.7-0.1-1.1
		c-0.2-0.5-0.2-1.1,0-1.7c0.3-0.7,1.1-1.2,1.9-1.2c0.5,0,1,0.1,1.5,0.2l0.3,0.1c0.5,0.1,1,0.1,1.4,0c0.7-0.3,1-1.2,1.2-1.9
		c0.5-1.7,0.7-3.4,0.5-5.1c-0.2-1.7-1.1-3.2-2.4-4.2c-1.3-0.9-3.1-1-4.5-0.2l-0.1,0.1c2.1,1.2,2.3,1.8,2.4,3.2v0.3
		c0,1.7-1.1,3.3-2.7,3.8c-0.4,0.1-0.8,0.2-1.2,0.2c-0.2,0-0.5,0-0.7,0.1c-0.4,0.1-0.8,0.4-1.2,0.7c-0.4,0.3-0.8,0.6-1.3,0.6
		c-0.1,0-0.1,0-0.2,0l-0.2-0.1c-0.5,1.1-1.2,2.2-2,3.2c-0.5,0.6-1.1,1-1.8,1.2c-0.2,0-0.3,0-0.5,0c-0.7-0.1-1.4-0.3-2-0.6
		c-0.4-0.2-0.8-0.6-1-1c-0.2-0.4-0.6-0.8-1.1-0.9l0.3,0.5l2.3,3.8c0.6,1,1.2,1.9,1.9,2.8l0.6,0.9l0.2-0.5
		C201.1,140.9,202.5,140.4,203.2,139.3z"/>
	<path class="st21" d="M207,165.3L207,165.3c2-1,3.8-2.3,5.2-4c0.2-0.2,0.5-0.3,0.8-0.2c0.3,0.1,0.5,0.3,0.5,0.6
		c0.1,0.8,0.4,1.2,0.8,1.3s1.1-0.1,2-1c3-3.2,6-6.5,8.9-9.9c0.3-0.4,0.3-0.5,0.3-0.5c-0.1-0.1-0.1-0.1-0.2-0.2l-0.3-0.2
		c-1-1-0.4-2.6-0.2-3.2c0.2-0.5,0.5-1,0.8-1.4c0.5-0.5,1.2-0.7,1.9-0.4c0.3,0.1,0.5,0.3,0.7,0.5c0.1,0.1,0.2,0.2,0.3,0.3
		c0.2,0.1,0.5,0.1,0.7,0c0.4-0.2,0.8-0.5,0.9-1c0.2-0.7,0.2-1.4,0-2.1c0-0.2-0.1-0.5-0.1-0.7c-0.2-1.2,0.2-2.4,1.1-3.2
		c0.3-0.2,0.7-0.4,1.1-0.5l0.5-0.2c0.3-0.1,0.7-0.4,0.7-0.7c0-0.3-0.1-0.5-0.3-0.7c-1.2-2.2-2-4.7-2.1-7.2H227
		c-1,0.1-2.1-0.1-3.1-0.5c-0.9-0.5-1.6-1.2-2.1-2.1c-0.4-0.6-0.7-1.2-1-1.8c-0.3-0.6-0.6-1.2-1-1.7c-1.2-1.7-2.6-3.2-4.2-4.4
		c-1.6-1.2-3.6-1.8-5.6-1.6c-1.4,0.3-2.8,0.8-4.1,1.6l-0.9,0.5c-0.7,0.4-1.5,0.7-2.3,0.9c0.1,2.1-0.6,4.2-1.9,5.9
		c-0.5,0.8-1.1,1.4-1.8,1.9c-0.6,0.3-1.2,0.5-1.8,0.5c-0.3,0-0.7,0-1-0.2c-1.1-0.6-2-1.5-2.5-2.7c-0.6-1-0.9-2-0.9-3.2
		c0.2-1,0.7-2,1.5-2.7c0.3-0.3,0.5-0.6,0.7-0.9c-1.6,0-3.1,0.4-4.4,1.3c-0.5,0.3-0.6,0.6-0.6,0.8c-0.1,1.1,0,2.2,0.1,3.3
		c0.1,1.1,0.4,2.1,1,3.1c0.4,0.6,0.9,1.2,1.5,1.8c0.4,0.4,0.8,0.8,1.1,1.3v-0.1c1.8,0.3,2.3,0.9,2.7,1.6c0.1,0.3,0.3,0.5,0.6,0.6
		c0.6,0.3,1.2,0.5,1.9,0.5c0.5-0.2,1-0.5,1.3-0.9c1.2-1.6,2.2-3.4,2.8-5.3l0.3-0.8c0.8-2.3,2.2-4.4,4.1-6.1l0.3,0.4l-0.3-0.4
		c1.7-1.1,4-1,5.6,0.2c1.6,1.2,2.6,2.9,2.8,4.9c0.2,1.9,0.1,3.7-0.5,5.5c-0.2,1.1-0.8,2-1.7,2.6c-0.7,0.2-1.4,0.3-2,0.1l-0.4-0.1
		c-0.4-0.1-0.8-0.2-1.2-0.2c-0.4,0-0.8,0.2-1,0.5c-0.1,0.4,0,0.7,0.1,1.1c0.2,0.5,0.2,1.1,0,1.6c-0.1,0.4-0.5,0.7-0.8,0.8
		c-0.5,0.1-1.1-0.2-1.3-0.6c-0.1-0.1-0.1-0.2-0.2-0.3c-0.1-0.2-0.2-0.3-0.3-0.4c-0.3-0.2-0.7-0.2-1,0c-0.4,0.3-0.6,0.7-0.8,1.1
		c-0.1,0.2-0.1,0.3-0.2,0.5c-0.1,0.4-0.3,0.7-0.5,1.1c-0.8,1.2-2,1.9-3.4,1.8c-0.2,0-0.5,0-0.7-0.1c0.5,0.8,1.1,1.6,1.6,2.5
		c0.7,1.1,1.1,2.2,1.3,3.5c0.1,0.8,0,1.6-0.4,2.3c-0.1,0.2-0.2,0.4-0.3,0.5c-0.1,0.2-0.2,0.4-0.3,0.6c-0.2,0.5-0.2,1.1-0.2,1.7v7.4
		l0,0v0.3l0,0c0,0.5-0.1,1-0.1,1.7c-0.2,1.9-0.5,4.4,0.2,6.2c0.3,0.7,0.6,1.4,1,2c0.3,0.5,0.6,1,0.8,1.6c0.1,0.2,0.2,0.5,0.3,0.7
		C204.6,169.7,206.2,165.7,207,165.3z M207.4,145.8c0.4-0.6,0.9-1.1,1.5-1.5l1.9-1.7c0.5-0.5,1.1-0.9,1.7-1.3c1-0.5,2.1-0.8,3.3-0.8
		c1.4,0.1,2.8,0.6,3.9,1.6c0.3,0.3,0.6,0.7,0.9,1.1l0.6,0.7c0.2,0.3,0.4,0.5,0.6,0.8c0.1,0.3,0.2,0.7,0.2,1c0,0.2,0.1,0.4,0.1,0.6
		c0.1,0.2,0.2,0.4,0.3,0.6c0.2,0.4,0.4,0.8,0.4,1.2c0.1,1.1-0.6,2.1-1.9,2.9c-0.8,0.5-1.7,0.8-2.7,1c-0.6,0.1-1.2,0.2-1.8,0.2
		c-2.3-0.1-4.5-0.6-6.7-1.5c-1.2-0.5-2.5-1.1-2.8-2.5C206.7,147.3,206.9,146.4,207.4,145.8L207.4,145.8z"/>
	<path class="st16" d="M227.2,167.5c-0.2-0.1-0.3-0.1-0.5-0.1c-0.2,0-0.4,0.1-0.6,0.1c-0.6,0.3-1.1,0.6-1.6,1
		c-0.3,0.2-0.4,0.5-0.5,0.8c0,0.3,0.1,0.7,0.3,0.9c0.4,0.4,0.8,0.6,1.3,0.8c0.7,0.3,1.4,0.3,2-0.1c0.4-0.4,0.6-1,0.5-1.6
		C228.2,168.5,227.8,167.9,227.2,167.5z"/>
	<path class="st1" d="M210.1,149.6c2.6,1,5.3,1.8,7.9,1.3c0.8-0.2,1.6-0.5,2.3-0.9c0.7-0.4,1.5-1.1,1.4-1.9
		c-0.1-0.3-0.2-0.6-0.3-0.8c-0.1-0.3-0.3-0.5-0.4-0.8c-0.1-0.3-0.1-0.5-0.2-0.8c0-0.2-0.1-0.5-0.2-0.7c-0.1-0.2-0.3-0.4-0.4-0.6
		l-0.6-0.7c-0.3-0.4-0.5-0.7-0.8-1c-0.9-0.8-2-1.3-3.2-1.3h-0.1c-0.9,0-1.9,0.3-2.7,0.8c-0.5,0.3-1.1,0.7-1.5,1.1l-1.9,1.7
		c-0.5,0.4-0.9,0.8-1.3,1.3c-0.3,0.4-0.4,1-0.3,1.5C208.1,148.7,209.1,149.2,210.1,149.6z M210.6,145.1c0.6-0.3,1.3-0.3,1.9,0
		c0.3-0.3,0.6-0.7,1-0.9l0.1-0.1l0.4-0.2v0.1l0.1-0.1c0.1-0.2,0.2-0.3,0.3-0.5c0.3-0.3,0.7-0.6,1.1-0.6c0.5,0,1.1,0.1,1.5,0.5
		c0.3,0.2,0.5,0.5,0.5,0.8c0,0.1,0,0.2,0,0.3c0,0,0,0.1,0,0.1c0.5,0,1.6,0.2,2,0.7c0.2,0.4,0.4,0.8,0.5,1.2c0.2,0.5,0.2,1.1,0.1,1.6
		c-0.2,0.4-0.6,0.8-1.1,1c-1.6,0.8-3.3,1.3-5.1,1.3h-0.4c-1.4,0-2.8-0.7-3.5-2c-0.3-0.5-0.4-1-0.5-1.6
		C209.8,146.1,210.1,145.5,210.6,145.1z"/>
	<path class="st16" d="M213.7,147.9c0.1,0.2,0.1,0.4,0.1,0.7c0,0.1,0,0.3,0.1,0.4c0,0.2,0.2,0.4,0.3,0.4c1.6,0,3.2-0.4,4.6-1.2
		c0.3-0.1,0.5-0.3,0.6-0.5c0.1-0.3,0-0.6-0.1-0.9c-0.1-0.3-0.2-0.6-0.4-0.9c-0.3-0.1-0.7-0.2-1-0.3l-1.3,1c-0.2,0.1-0.4,0.2-0.6,0.3
		h-0.2c-0.2,0-0.4,0-0.5-0.1c-0.3-0.1-0.5-0.3-0.7-0.5c-0.3-0.3-0.4-0.6-0.5-1c-0.5,0.4-1,1-1,1.3c0.1,0.2,0.2,0.4,0.3,0.6
		C213.4,147.3,213.5,147.6,213.7,147.9z"/>
	<path class="st17" d="M212.9,149.3L212.9,149.3c0-0.2-0.1-0.4-0.1-0.6c0-0.2,0-0.3-0.1-0.5c-0.1-0.2-0.2-0.4-0.3-0.5
		c-0.2-0.3-0.3-0.6-0.4-0.9c-0.1-0.3,0-0.5,0.1-0.8l0,0c-0.3-0.1-0.6-0.1-0.8,0c-0.2,0.2-0.4,0.5-0.4,0.8c0,0.4,0.1,0.8,0.3,1.1
		C211.5,148.6,212.1,149.1,212.9,149.3z"/>
	<path class="st17" d="M250.8,151.7c0.2-0.4,0.6-0.7,1-0.9c0.1-0.1,0.1-0.3,0-0.4c-0.3-0.4-0.7-0.6-1.2-0.6c-0.1,0-0.2,0.1-0.3,0.2
		l-0.1,0.1c-0.2,0.1-0.3,0.3-0.3,0.5c0,0.2,0.1,0.5,0.3,0.7C250.4,151.5,250.6,151.6,250.8,151.7z"/>
	<path class="st17" d="M255.2,151.1c0,0.6-0.1,1.1-0.2,1.7c-0.3,1-0.8,2-1.4,2.9l-0.2,0.2h-0.2c0.4,0.1,0.7,0.1,1.1,0
		c0.9-0.4,1.6-0.9,2.2-1.6c0.1-0.1,0.4-0.4,0.4-0.6c0-0.2-0.1-0.3-0.2-0.4c-0.2-0.2-0.3-0.5-0.5-0.9c-0.3-0.5-0.6-1-1-1.5
		C255.2,151,255.2,151,255.2,151.1z"/>
	<path class="st16" d="M254.2,151.1c0-0.2,0-0.5-0.1-0.7c-0.1-0.2-0.4-0.4-0.6-0.4c-0.2,0-0.5,0-0.7,0l0,0c0.3,0.5,0.2,1.2-0.2,1.6
		l-0.1,0.1h-0.2c-0.3,0.1-0.5,0.4-0.6,0.7v0.7l-0.7-0.3c-0.5-0.2-1-0.5-1.5-0.9c-0.2-0.2-0.3-0.4-0.4-0.7l-0.3,0.1
		c-0.2,0.4-0.2,0.9-0.2,1.4c0.1,0.5,0.4,1,0.9,1.3c0.2,0.2,0.4,0.4,0.6,0.6l0.3,0.3l2.4-0.1c0.5-0.7,0.9-1.6,1.2-2.4
		C254.1,152,254.2,151.6,254.2,151.1z"/>
	<path class="st20" d="M270.4,143.2c-0.3,0-0.5,0-0.8-0.1c-1.1-0.3-2-0.9-2.8-1.8c-0.3-0.3-0.5-0.6-0.8-0.9
		c-0.4-0.5-0.8-0.9-1.2-1.3c-0.3-0.3-0.7-0.6-1-0.8s-0.7-0.6-1.1-0.9c-0.8-0.7-1.3-1.6-1.5-2.6c0-0.7,0.3-1.3,0.8-1.8
		c0.1-0.1,0.1-0.1,0.2-0.2l-2.4,0.5c-0.1,0-0.1,0-0.2,0c0,0,0,0.1,0,0.2c-0.5,3.4-0.3,6.9,0.4,10.3v-0.1c0.3-0.8,1-1.4,1.9-1.6
		l0.4-0.1l0.2,0.3c0.4,0.9,0.6,1.9,0.5,2.8c-0.3,1.2,0.2,2.5,1.2,3.3l0.4,0.4c1,0.9,1.6,2.2,1.7,3.6l0.2-0.1c0.2,0,0.4-0.1,0.5-0.3
		l0.4,0.3l-0.4-0.3l3.1-3.3c0.5-0.6,1.2-1.1,1.9-1.3c0.3-1.6,0.4-3.3,0.1-5C271.6,143.1,271,143.2,270.4,143.2z"/>
	<path class="st22" d="M255.7,149.2c-0.8-0.6-1.7-0.9-2.7-0.9h-0.7c-0.4,0-0.8,0-1.2,0.1H251c-0.3,0-0.5,0-0.8,0.1
		c-0.2,0.1-0.5,0.3-0.7,0.4l-0.2,0.1c-0.9,0.6-1.8,1.3-2.6,2c-0.4,0.3-0.7,0.7-0.8,1.2c0,0.5,0.3,1,0.6,1.3c0.6,0.8,1.3,1.6,2,2.2
		c1.4,1.1,3,1.8,4.7,2.1c0.8,0.2,1.6,0.3,2.3,0.1c0.7-0.2,1.4-0.6,1.9-1.1c0.9-0.7,1.8-1.5,2.6-2.3c-0.9-0.6-1.7-1.5-2.2-2.5
		l-0.3-0.5C257.1,150.7,256.5,149.9,255.7,149.2z M257.5,152.6c0.6,0.6,0.6,1.6,0,2.1c-0.1,0.1-0.2,0.1-0.3,0.2
		c-0.7,0.8-1.6,1.4-2.6,1.8c-0.3,0.1-0.6,0.1-0.9,0.1c-1,0-2-0.4-2.7-1h-0.6l0,0c-0.4,0-0.6-0.3-0.9-0.6c-0.2-0.2-0.3-0.3-0.5-0.5
		c-0.6-0.5-1.1-1.1-1.3-1.9c-0.1-0.7,0-1.4,0.2-2c0.1-0.3,0.3-0.4,0.7-0.6v-0.1c0.1-0.1,0.3-0.2,0.4-0.2c0.1-0.3,0.3-0.6,0.6-0.8
		l0.1-0.1c0.2-0.2,0.5-0.4,0.8-0.4c0.3-0.1,0.7,0,1,0.1c0.7,0,1.5,0,2.2,0.1c0.2,0,0.3,0.1,0.5,0.2c1.2-0.3,2.2,1.4,2.9,2.6
		C257.2,152.2,257.4,152.5,257.5,152.6z"/>
	<path class="st17" d="M257.1,173.3c-0.1-1.2-0.5-2.4-1.3-3.3c-0.7-0.7-1.5-1.3-2.4-1.7c-1-0.5-1.9-1.1-2.7-1.9
		c-0.8-0.7-1-1.9-0.4-2.8c0.3-0.3,0.7-0.6,1.1-0.7c0.2-0.1,0.5-0.2,0.7-0.4c0.2-0.2,0.2-0.4,0.2-0.6c0-0.4-0.2-0.8-0.5-1
		c-0.7-0.4-1.5-0.6-2.3-0.5H249c-0.8,0.1-1.7,0-2.5-0.3c-0.5-0.2-0.9-0.6-0.8-1.2c0-0.4-0.1-0.7-0.3-1l0,0c-1-1.5-2.2-2.9-3.6-4
		l-0.2-0.2v-0.3c0.3-1.6,1.1-3.1,2.3-4.2c0.3-0.4,0.7-0.7,1.1-1c0.7-0.7,1.4-1.4,2-2.2c0.9-1.1,1.3-2.5,1-3.8
		c-0.3-0.9-0.9-1.7-1.5-2.4c-0.3-0.3-0.6-0.7-0.8-1c-1.4-1.9-1.9-4.3-1.6-6.6c-0.2,0-0.4-0.1-0.6-0.1l0,0c-0.5-0.1-0.9-0.3-1.3-0.6
		c-0.3-0.3-0.7-0.5-1.2-0.6c-1-0.2-2-0.2-2.9-0.2h-6c0.1,2.3,0.8,4.6,1.9,6.7c0.3,0.4,0.4,0.9,0.4,1.3c-0.1,0.7-0.7,1.3-1.4,1.5
		c-0.2,0.1-0.4,0.1-0.5,0.2c-0.3,0.1-0.6,0.2-0.8,0.3c-0.7,0.5-0.8,1.7-0.7,2.3c0,0.2,0,0.5,0.1,0.7c0.2,0.8,0.1,1.7-0.1,2.6
		c-0.2,0.7-0.8,1.3-1.5,1.6c-0.5,0.2-1.1,0.2-1.6-0.2c-0.2-0.1-0.3-0.3-0.5-0.4c-0.1-0.1-0.2-0.2-0.4-0.3c-0.3-0.1-0.6,0-0.8,0.2
		c-0.3,0.3-0.5,0.7-0.6,1.1c-0.4,1-0.5,1.7-0.1,2l0.2,0.1c0.2,0.1,0.4,0.4,0.6,0.6c0.2,0.6,0,1.2-0.5,1.6c-2.9,3.3-5.9,6.7-9,9.9
		c-0.4,0.4-1.7,1.8-3,1.3c-0.7-0.3-1.1-0.9-1.3-1.6c-1.5,1.6-3.2,3-5.2,3.9c-0.5,0.5-2.5,5.3-2.9,8.2h-0.1c0.3,1.7,0.4,3.4,0.2,5.1
		c-0.2,1.4-0.4,2.9-0.8,4.2l0,0c-0.3,1.3-0.4,2.7-0.3,4c0.1,1.6,0,3.2-0.4,4.7c-0.5,1.4-1.3,2.7-2.2,3.9c-3.1,4.3-5.9,8.6-7.6,13.2
		l0,0c-0.2,0.9-0.4,2.1-0.6,3.3c-0.5,2.7-1.1,5.7-1.1,6.3c-0.2,3,0,6.1,0.4,9.1c1.9-0.7,3.6-1.6,5.3-2.7c0.7-0.4,1.5-0.8,2.3-1.3
		h-0.1c-0.5-1.9-0.3-8.8,0.4-12.7l0.2-1l0.7,0.8c0.6,0.6,1.1,1.3,1.7,2c2.4,2.8,4.7,5.5,7.3,5.7c-0.7-1.7-1.2-3.4-1.6-5.2
		c-0.5-2.6-0.9-5.2-1-7.8l-1.6-18.9c-0.4-2.3-0.3-4.7,0.3-7l0.6,0.2c-0.1-0.2-0.3-0.4-0.4-0.6c-0.9-1.4-1.4-3.1-1.2-4.8
		c0.2-1.8,1.7-3.2,3.5-3.5c1.5,0,3,0.7,3.8,2c0.5,0.6,0.9,1.3,1.3,2c0.3,0.5,0.5,0.9,0.8,1.4c0.9,1.6,2.6,2.8,4.5,3
		c1,0,2-0.4,2.7-1.1c0.5-0.5,0.8-1.2,0.8-1.9c-0.1-0.9-0.4-1.7-0.9-2.5c-0.6-1.3-1.3-2.6-0.8-3.9l0.2,0.1l-0.2-0.3
		c-0.4-0.5-0.8-1-1.2-1.6c-0.4-0.6-0.7-1.3-0.6-2c0.1-0.7,0.5-1.3,1-1.8c0.5-0.5,1-0.9,1.6-1.2c1.1-0.8,2.2-1.5,3.3-2.2
		c2.3-1.5,5-2.2,7.7-2c0.4,0,0.7,0.1,1.1,0.3c0.3,0.2,0.5,0.5,0.8,0.6l1.6,1.1l3.3,2.3c1.2,0.7,2.2,1.7,2.8,2.9
		c0.3,0.7,0.3,1.4,0.1,2.2c0,0.1-0.1,0.2-0.1,0.4l0.7,0.1c-0.3,2.9-1.4,5.6-3.1,7.9c-0.6,0.8-1,1.5-0.7,2c0.2,0.3,0.5,0.5,0.8,0.6
		c1.2,0.7,2.6,1,4,1c1.7-0.2,3.2-1.1,4.3-2.4c1.1-1.4,2-2.9,2.7-4.5l0,0c0.4-0.5,1-0.8,1.6-0.7c1.1,0,2.2,0.6,2.8,1.5
		c0.6,1.4,0.3,3-0.8,4.1c-0.6,0.6-1.3,1.2-2,1.6c-0.4,0.2-0.8,0.5-1.1,0.8c-3.7,2.9-6.9,6.5-9.4,10.4c-2,3.2-3.6,6.7-4.8,10.3
		c-0.3,0.9-0.7,1.8-1,2.7c-1.3,3.2-2.5,6-5,7.8c-1.5,1-3.2,1.6-5,1.5c-0.8,0-1.6-0.1-2.4-0.3c-2.2-0.6-4.1-2-5.4-3.9l0,0
		c-0.2-0.2-0.3-0.5-0.5-0.8c-1.4-2.5-1.7-5.3-2-8c-0.1-1.6-0.4-3.1-0.7-4.6c-0.6-2-1.3-3.9-2.2-5.7c-0.9-2.1-1.9-4.1-3.1-6
		c0.1,0.6,0.2,1.1,0.4,1.7c0.4,1.2,0.9,2.4,1.4,3.6c0.9,2.1,1.7,4.2,2.3,6.4l0,0c0.6,1.7,0.8,3.5,0.8,5.4c0,1.3,0.1,2.6,0.4,3.9
		c0.7,2.9,2.4,5.4,4.7,7.1c2.2,1.3,4.7,1.9,7.2,1.7c2.7-0.1,5.3-2,6.9-3.8c0.4-0.6,0.8-1.1,1.2-1.7l0.6-0.9c0.9-1.9,1.7-3.9,2.4-5.9
		c0.9-2.6,2-5.1,3.2-7.5c2.4-4.5,5.6-8.5,9.6-11.7c1.4-1.5,3.1-3.3,4.6-4.8l0.3,0.3c0.3-0.5,0.8-1,1.4-1.3l0,0
		C257.2,175.9,257.2,174.6,257.1,173.3z M240.3,161.6c-0.2,0-0.4,0.1-0.5,0.1c-0.5,0-1-0.2-1.4-0.4c-0.4-0.3-0.8-0.5-1.1-0.9
		l-0.2-0.2c-1.6-1.5-3.6-2.5-5.7-3c-0.8-0.3-1.7-0.3-2.5,0.1c-0.3,0.2-0.6,0.4-0.8,0.7l-0.2,0.2c-0.4,0.4-0.9,0.8-1.4,0.9
		c-0.7,0.2-1.4-0.1-1.8-0.7c-0.2-0.6-0.1-1.2,0.4-1.6l0.1-0.1c0.1-0.1,0.2-0.3,0.3-0.5c0.1-0.2,0.3-0.4,0.5-0.6
		c0.7-0.8,1.7-1.4,2.7-1.7c0.6-0.2,1.2-0.3,1.8-0.3c0.5,0,1,0.1,1.4,0.2c0.8,0.2,1.6,0.2,2.4,0l0.4-0.2c0.2-0.1,0.4-0.2,0.7-0.3
		c0.9-0.2,1.8-0.1,2.6,0.3c0.9,0.5,1.7,1.2,2.2,2.2c0.4,0.8,0.4,1.8,0.2,2.6c0.6,0.2,1.1,0.8,1.2,1.5
		C241.6,160.7,241,161.4,240.3,161.6z"/>
	<path class="st21" d="M279.2,135.9c0,1.9-0.8,3.7-2.4,4.8c-0.3,0.2-0.6,0.3-0.9,0.3l0,0c-0.6,0-1.1-0.4-1.4-0.9
		c-0.4-0.6-0.6-1.3-0.8-2.1c-0.1-1.2-0.8-2.3-1.9-3c-0.2-0.2-0.5-0.4-0.7-0.5c-0.5-0.4-1.8-1.6-1-2.7c-0.8-0.6-1.5-1.2-2.2-1.8
		c-0.9-1-2-1.8-3.2-2.4c-1.4-0.5-2.9-0.7-4.4-0.5l0,0c-4-0.1-5.4,1.3-7.1,3c-0.4,0.4-0.8,0.8-1.3,1.3l-0.2,0.2
		c-0.7,0.8-1.6,1.3-2.6,1.6c-0.3,0.1-0.5,0.1-0.8,0.1c-0.9-0.1-1.8-0.3-2.6-0.6l-0.7-0.3c-0.3,2,0.2,4.1,1.4,5.7
		c0.2,0.3,0.5,0.7,0.8,1c0.8,0.8,1.4,1.7,1.7,2.7c0.4,1.7-0.1,3.4-1.2,4.7c-0.6,0.8-1.4,1.6-2.2,2.3c-0.3,0.3-0.7,0.7-1,1
		c-1,0.9-1.7,2.1-2,3.4c1.4,1.2,2.6,2.5,3.6,4.1l-0.4,0.3l0.4-0.3c0.3,0.4,0.4,0.9,0.5,1.4c0,0.3,0,0.3,0.2,0.3
		c0.7,0.2,1.4,0.3,2.1,0.2h0.4c1-0.1,2,0.2,2.9,0.8c0.5,0.4,0.9,1.1,0.9,1.7c0,0.5-0.1,1-0.5,1.4c-0.3,0.3-0.6,0.5-1,0.6
		c-0.3,0.1-0.5,0.2-0.7,0.4c-0.3,0.4,0,1.1,0.4,1.6c0.7,0.7,1.5,1.3,2.4,1.7c1,0.5,1.9,1.1,2.7,1.9c0.9,1.1,1.4,2.5,1.5,3.9
		c0.1,1.1,0,2.3-0.1,3.4l0.5-0.2c0.6-0.2,1.2-0.5,1.8-0.9c0.9-0.8,1.5-2,1.5-3.2c0-1.3-0.1-2.6-0.5-3.9l0.6-0.1l-0.5-0.1
		c0.7-3.2,1-6.4,1.1-9.7c-0.1-1.4,0.2-2.8,0.9-4c0.6-0.8,1.4-1.3,2.3-1.6h-0.2c0-1.2-0.6-2.3-1.4-3.1l-0.4-0.3
		c-0.3-0.3-0.6-0.6-0.9-0.9c-0.6-0.9-0.8-2-0.7-3.1c0-0.7,0-1.3-0.2-2c-0.4,0.2-0.6,0.5-0.8,0.8v0.1c-0.1,0.2-0.1,0.4-0.2,0.5
		c-0.2,0.4-0.7,0.5-1.1,0.3c-0.3-0.2-0.5-0.5-0.5-0.8c-0.8-3.6-0.9-7.3-0.4-10.9c0-0.3,0.1-0.5,0.3-0.7c0.2-0.2,0.5-0.3,0.8-0.3
		l2.8-0.5c1.1-0.3,2.2-0.3,3.3-0.1c1,0.3,1.9,0.9,2.6,1.6c3.9,3.7,5.6,9,4.7,14.3c0.4,0.1,0.8,0.3,1.2,0.6c0.3,0.3,0.5,0.6,0.7,0.9
		c0.1,0.1,0.1,0.2,0.2,0.4c0.2,0,0.4-0.1,0.5-0.2c0.2-0.2,0.4-0.5,0.6-0.8c0.2-0.6,0.5-1.2,0.6-1.8c0.3-1.1,0.7-2.1,1.3-3
		c0.4-0.5,0.8-0.9,1.2-1.3c0.7-0.6,1.2-1.3,1.5-2.2l0,0c0.4-1.3,0-2.8-1-3.8C279.7,136.1,279.4,136,279.2,135.9z M258.4,151.1
		l0.3,0.5c0.5,1,1.3,1.9,2.4,2.4l0.7,0.3l-0.5,0.6c-1,1-2,2-3.1,2.9c-0.7,0.6-1.5,1-2.3,1.3c-0.3,0.1-0.7,0.1-1,0.1
		c-0.6,0-1.2-0.1-1.8-0.2c-1.9-0.3-3.7-1.1-5.2-2.3c-0.8-0.7-1.5-1.5-2.1-2.4c-0.5-0.5-0.8-1.3-0.8-2c0.1-0.7,0.5-1.4,1.2-1.8
		c0.9-0.7,1.8-1.4,2.7-2l0.2-0.1c0.3-0.2,0.6-0.4,0.9-0.5c0.4-0.1,0.7-0.2,1.1-0.2h0.1c0.7-0.1,1.4-0.1,2.1,0
		c1.2,0.1,2.3,0.5,3.3,1.1C257.2,149.2,257.9,150,258.4,151.1z"/>
	<path class="st17" d="M264.5,137.6c0.4,0.3,0.7,0.6,1.1,0.9c0.4,0.4,0.9,0.9,1.3,1.4c0.3,0.3,0.5,0.6,0.8,0.9
		c0.6,0.7,1.4,1.2,2.2,1.5c0.7,0.2,1.5,0,2.1-0.6c-0.6-2.8-2.1-5.4-4.2-7.5c-1-1.2-2.7-1.8-4.3-1.4c-0.1,0.4-0.3,0.8-0.6,1.1
		c-0.3,0.3-0.6,0.7-0.6,1c0.2,0.8,0.6,1.5,1.2,2C263.8,137,264.1,137.3,264.5,137.6z"/>
	<path class="st15" d="M247.5,217c-1.4-0.8-3.1-0.9-4.6-0.2c-0.4,0.2-0.9,0.4-1.4,0.5c2.8,0.6,5.5,1.5,8.2,2.5
		C249.4,218.6,248.6,217.6,247.5,217z"/>
	<path class="st14" d="M241.2,167c-0.6-1.1-1.5-2.1-2.6-2.7l-3.3-2.3l-1.6-1.1c-0.3-0.2-0.5-0.5-0.8-0.6c-0.3-0.1-0.6-0.2-0.8-0.2
		c-2.6-0.1-5.2,0.5-7.4,1.8c-1.1,0.6-2.3,1.3-3.3,2c-0.5,0.4-1,0.8-1.5,1.2c-0.5,0.4-0.8,1-0.8,1.6c-0.1,1.2,1.1,2.1,1.9,3.1
		s1.8,2,2.6,3s1.7,2,2.6,3c0.7,1,1.6,2,2.6,2.7c1,0.6,2.2,0.2,3.3-0.4c1.1-0.7,2.2-1.4,3.2-2.2c1.1-0.9,2.2-1.9,3.1-3h-0.7
		c-0.9,0-1.7-0.1-2.6-0.4c-0.9-0.3-1.7-0.9-2.2-1.8c-0.4-0.8-0.3-1.8,0.2-2.5c0.6-0.4,1.3-0.6,2.1-0.5c0.5,0,1,0.1,1.5,0.3
		c1,0.4,1.9,1.1,2.6,2c0.2,0.3,0.4,0.6,0.5,1c0.2-0.3,0.4-0.5,0.6-0.8C241.2,169.3,241.7,168.1,241.2,167z M228.4,171.7
		c-0.5,0.4-1,0.6-1.6,0.5c-0.5,0-0.9-0.1-1.4-0.3c-0.7-0.2-1.2-0.6-1.7-1.1c-0.8-0.8-0.8-2.2,0-3c0.1-0.1,0.1-0.1,0.2-0.2
		c0.6-0.5,1.2-0.9,1.8-1.2c0.6-0.3,1.4-0.3,2,0l0,0c0.9,0.6,1.5,1.5,1.6,2.6C229.4,170.1,229.1,171.1,228.4,171.7z M234.6,164.4
		c-0.1,0.3-0.3,0.5-0.6,0.6c-0.4,0.2-0.9,0.2-1.4,0.2h-2.6l-2.6,0.1c-0.5,0-0.9-0.1-1.3-0.3c-0.5-0.2-0.8-0.7-0.8-1.3
		c0.1-0.6,0.6-0.9,0.9-1.1c0.4-0.2,0.7-0.5,1.1-0.7c0.8-0.4,1.7-0.6,2.6-0.7c0.4-0.1,0.9-0.1,1.3,0c0.5,0.1,0.9,0.2,1.3,0.4
		c0.4,0.2,0.8,0.5,1.1,0.8c0.4,0.3,0.7,0.7,0.8,1.2C234.7,163.9,234.7,164.2,234.6,164.4L234.6,164.4z"/>
	<path class="st17" d="M256.1,187c0-0.5,0-1.1,0-1.6c-0.1-1.3-0.3-2.6-0.6-3.9c-0.2-0.7-0.3-1.3-0.4-2c-1.4,1.5-3,3.1-4.2,4.4l0,0
		c-0.5,0.4-0.9,0.8-1.4,1.2c0.5,1.1-0.2,4.2-1.9,10.4c-0.5,2-1,3.8-1.4,5.3c-1,4.6-2.2,9.8-5,14c-0.3,0.5-0.7,1.1-0.4,1.4
		s1.1,0,1.6-0.3c3-1.4,6.6-0.1,8,2.9c0.2,0.5,0.4,1,0.5,1.5c1.3,0.5,2.5,1.1,3.8,1.8l-0.2,0.5l0.2-0.5c0.3,0.2,0.6,0.3,1,0.5
		c0.9,0.4,1.7,0.8,2.5,1.3c0.6,0.4,1.3,0.7,1.9,1c0.2,0.1,0.4,0.2,0.7,0.2c0.2-0.1,0.4-0.4,0.5-0.6c0.4-1,0.5-2.1,0.4-3.1
		c0-1.6-0.1-3.3-0.2-5s-0.1-3.4-0.2-5.1l0,0c0-3.5-0.5-7-1.5-10.3c-0.4-1-0.8-2-1.3-2.9c-1-2-1.8-4.1-2.3-6.2
		C256,190.2,256,188.6,256.1,187z"/>
	<path class="st23" d="M216.7,180.5c-1.4-0.6-2.5-1.6-3.3-2.9c-0.3-0.5-0.6-1-0.9-1.4c-0.4-0.7-0.8-1.3-1.2-1.9
		c-0.7-1-1.8-1.6-3-1.6c-1.3,0.2-2.4,1.3-2.6,2.7c-0.1,1.4,0.2,2.9,1,4.1c0.5,0.8,1.1,1.6,1.7,2.3c0.4,0.5,0.7,0.9,1.1,1.4
		c1.5,2.3,2.8,4.6,3.8,7.2c0.9,1.9,1.7,3.8,2.2,5.8c0.4,1.6,0.6,3.2,0.8,4.8c0.1,1.8,0.5,3.6,0.9,5.3c0-1.1,0-2.2,0-3.3
		c0.1-2.1,0.3-4.2,0.6-6.3l-0.8-0.8l-0.8-0.8c-0.3-0.2-0.4-0.7-0.5-1.5c-0.1-0.5-0.2-1-0.3-1.4c-0.2-0.5-0.4-1-0.7-1.4
		c-0.3-0.5-0.6-1.1-0.8-1.7c-0.6-1.6-0.4-3.4,0.4-4.9c0.1-0.2,0.2-0.4,0.3-0.5c0.5-0.3,1-0.4,1.6-0.3c0.7,0.2,1.2,0.7,1.3,1.3
		c0.1,0.5,0.2,1.1,0.1,1.6c-0.1,1-0.1,2,0.1,3c0.1,0.8,0.5,1.5,1.1,2c0.1-0.5,0.2-1,0.3-1.5c0.5-2.2,1.2-4.4,2.2-6.5l0.3-0.6h-0.2
		c-0.4,0-0.7,0-1.1,0c-0.4,0-0.9,0-1.3,0C217.9,182.2,217,181.4,216.7,180.5z"/>
	<path class="st24" d="M232.4,162.2c-0.7-0.3-1.5-0.5-2.3-0.5c-0.8,0.1-1.6,0.3-2.4,0.6c-0.4,0.2-0.7,0.4-1.1,0.6
		c-0.4,0.2-0.7,0.4-0.7,0.7c0,0.3,0.2,0.7,0.5,0.8c0.3,0.2,0.7,0.3,1.1,0.2h2.6l2.6-0.1c0.4,0,0.8,0,1.2-0.2
		c0.3-0.1,0.4-0.5,0.3-0.8C233.7,163.1,233.1,162.5,232.4,162.2z"/>
	<path class="st1" d="M255.4,179.2L255.4,179.2h0.3H255.4z"/>
	<path class="st21" d="M239.5,159.2L239,159l0.2-0.5c0.3-0.7,0.3-1.6,0-2.3c-0.4-0.7-1-1.3-1.7-1.7c-0.6-0.3-1.2-0.4-1.8-0.2
		c-0.2,0.1-0.4,0.1-0.5,0.2c-0.2,0.1-0.3,0.2-0.5,0.2c-0.9,0.3-1.9,0.3-2.9,0.1c-0.4-0.1-0.9-0.1-1.3-0.1l0,0c-0.5,0-1,0.1-1.5,0.2
		c-0.9,0.3-1.6,0.8-2.2,1.4c-0.1,0.2-0.3,0.3-0.4,0.5c-0.1,0.2-0.3,0.4-0.4,0.5l-0.1,0.1c-0.3,0.3-0.3,0.4-0.2,0.5
		c0.2,0.2,0.4,0.3,0.7,0.2c0.4-0.1,0.7-0.4,1-0.7l0.2-0.2c0.3-0.3,0.6-0.6,1-0.9c0.5-0.3,1.1-0.5,1.7-0.4c0.5,0,1,0.1,1.5,0.2
		c2.3,0.6,4.4,1.7,6.2,3.2l0.2,0.2c0.3,0.3,0.6,0.5,0.9,0.8c0.3,0.2,0.7,0.3,1.1,0.2c0.3-0.1,0.5-0.3,0.5-0.6
		C240.5,159.6,239.9,159.4,239.5,159.2z"/>
	<path class="st16" d="M275.7,133l-0.8-0.3c-1.4-0.4-2.8-1-4-1.7c-0.8-0.6-1.5-1.2-2.2-1.8c-1-1.1-2.2-1.9-3.5-2.6
		c-1.5-0.5-3.1-0.7-4.7-0.6l0,0c-4.4-0.1-6,1.5-7.8,3.3c-0.4,0.4-0.8,0.8-1.3,1.2l-0.2,0.2c-0.6,0.6-1.3,1.1-2.2,1.4
		c-1,0.1-1.9-0.1-2.8-0.5c-0.8-0.4-1.7-0.6-2.6-0.7l0,0c-0.3-0.1-0.5-0.2-0.7-0.4c-0.5-0.4-1-0.6-1.6-0.8c-1-0.2-2.1-0.2-3.1-0.2
		l-11.1,0.1c-0.9,0.1-1.8,0-2.6-0.4c-0.7-0.4-1.3-1-1.7-1.8c-0.4-0.6-0.7-1.1-1-1.7c-0.3-0.6-0.7-1.3-1.1-1.8l-0.4,0.3l0.4-0.3
		c-1.2-1.8-2.8-3.3-4.5-4.6c-1.8-1.3-4-2-6.3-1.8c-1.6,0.3-3,0.9-4.4,1.7l-0.9,0.5c-1.4,0.7-3.3,1.5-5,1c-0.5-0.2-1-0.4-1.5-0.6
		c-0.5-0.3-1-0.5-1.5-0.6c-2.2-0.5-4.6,0-6.5,1.3c-0.5,0.3-0.9,0.9-1,1.5l0,0v0.2l0,0c-0.1,1.1,0,2.3,0.1,3.4
		c0.1,1.2,0.5,2.4,1.1,3.5c0.5,0.7,1,1.3,1.6,1.9c0.4,0.4,0.7,0.8,1.1,1.2c0.4,0.5,0.7,1,1,1.5l2.3,3.8l0.4-0.3l-0.4,0.3
		c0.6,1,1.3,1.9,1.9,2.9c0.9,1.2,1.8,2.5,2.5,3.9c0.6,0.9,1,2,1.2,3.1c0.1,0.6,0,1.2-0.3,1.8c-0.1,0.2-0.2,0.3-0.3,0.5
		c-0.2,0.2-0.3,0.5-0.4,0.7c-0.2,0.7-0.3,1.4-0.3,2v7.4c0,0.5-0.1,1.1-0.2,1.9c-0.2,2-0.5,4.7,0.3,6.7c0.3,0.7,0.7,1.4,1.1,2.1
		c0.3,0.5,0.6,1,0.8,1.5c1,2.2,1.3,4.7,1,7.1c-0.2,1.4-0.4,2.9-0.8,4.3l0,0c-0.3,1.4-0.4,2.7-0.3,4.1c0.1,1.5,0,3-0.4,4.4
		c-0.5,1.3-1.2,2.6-2.1,3.7c-3.2,4.5-6.2,8.8-7.8,13.8h0.1c-0.2,0.9-0.4,2-0.6,3.1c-0.5,2.9-1.1,5.7-1.1,6.4l0,0c0,0,0,0,0,0.1l0,0
		l0,0c-0.2,3.3,0,6.6,0.5,9.8l0.1,0.6l0.5-0.2c2.1-0.7,4.2-1.7,6.1-2.9c1.3-0.7,2.6-1.5,4-2.1c0.6-0.3,1.3-0.6,1.8-1
		s0.9-0.5,1.4-0.8c3-1.5,6-2.7,9.2-3.7c13.3-3.8,27.5-2.4,39.8,4c0.3,0.2,0.7,0.3,1.1,0.5c0.8,0.4,1.6,0.8,2.4,1.2
		c0.7,0.4,1.3,0.8,2.1,1.1c0.3,0.1,0.7,0.2,1,0.2h0.3c0.6-0.2,1-0.6,1.2-1.1c0.4-1.1,0.6-2.4,0.5-3.6c0-1.6-0.1-3.3-0.2-5
		s-0.1-3.4-0.2-5.1l0,0c-0.1-3.2-0.5-7.6-1.6-10.6c-0.4-1-0.9-2-1.3-3c-1-1.9-1.7-3.9-2.2-5.9c-0.2-1.5-0.2-3.1-0.1-4.7
		c0-0.5,0-1.1,0-1.6c-0.1-1.4-0.3-2.8-0.6-4.1c-0.2-0.6-0.3-1.3-0.3-1.9c0.3-0.8,1-1.4,1.8-1.7l0.8-0.3c0.7-0.2,1.4-0.6,2-1
		c1.2-1,1.8-2.4,1.9-3.9c0-1.3-0.1-2.7-0.5-4l0,0c0.7-3.3,1.1-6.6,1.1-10c-0.1-1.2,0.1-2.3,0.7-3.3c0.6-0.8,1.5-1.3,2.5-1.5l0.2-0.1
		c0.4-0.1,0.7-0.2,1-0.5l0,0l3.1-3.3c0.4-0.5,1-0.9,1.6-1.1c0.4-0.1,0.8,0.1,1.1,0.3c0.2,0.2,0.4,0.5,0.5,0.7
		c0.2,0.3,0.4,0.6,0.6,0.9v0c0.1,0,0.3,0.1,0.4,0.1c0.4,0,0.9-0.2,1.2-0.5c0.4-0.3,0.6-0.7,0.8-1.2c0.3-0.6,0.5-1.2,0.7-1.9
		c0.2-1,0.6-1.9,1.2-2.7c0.3-0.4,0.7-0.8,1.1-1.2c0.8-0.7,1.4-1.6,1.8-2.6l-0.5-0.1l0.5,0.1c0.5-1.7,0-3.5-1.2-4.7
		C279.1,134.5,277.5,133.5,275.7,133z M274.5,133.7l0.8,0.3c1,0.3,1.9,0.7,2.8,1.2l0,0c0.2,1.8-0.5,3.5-1.9,4.6
		c-0.1,0.1-0.2,0.1-0.4,0.2l0,0c-0.2,0-0.4-0.2-0.5-0.5c-0.3-0.6-0.5-1.2-0.7-1.8c-0.2-0.8-0.5-1.6-1-2.3c-0.4-0.4-0.8-0.8-1.2-1.1
		c-0.2-0.2-0.4-0.3-0.6-0.5c-1-0.9-1-1.3-0.9-1.4l-0.3-0.2C271.9,132.8,273.2,133.3,274.5,133.7L274.5,133.7z M196.1,120.5h0.1
		c0.5,0.2,0.9,0.3,1.3,0.6c0.5,0.3,1.1,0.5,1.7,0.7c0.8,0.2,1.6,0.2,2.4,0.1c0,1.8-0.6,3.6-1.8,5.1c-0.4,0.6-0.9,1.2-1.5,1.6
		c-0.6,0.4-1.3,0.5-1.9,0.3c-0.9-0.5-1.6-1.3-1.9-2.2c-0.5-0.8-0.8-1.7-0.8-2.6c0.2-0.8,0.6-1.5,1.3-2
		C195.5,121.4,195.9,121,196.1,120.5z M199.5,141c-0.2-0.3-0.4-0.6-0.6-0.9c-0.7-1-1.3-1.9-1.9-2.8l-2.3-3.8l-0.3-0.5
		c0.5,0.1,0.9,0.5,1.1,0.9c0.2,0.4,0.6,0.8,1,1c0.6,0.3,1.3,0.6,2,0.6c0.2,0,0.3,0,0.5,0c0.7-0.2,1.4-0.6,1.8-1.2c0.8-1,1.5-2,2-3.2
		c0,0,0.1,0.1,0.2,0.1c0.1,0,0.1,0,0.2,0c0.5-0.1,0.9-0.3,1.3-0.7c0.4-0.3,0.8-0.5,1.2-0.7l0.7-0.1c0.4,0,0.8-0.1,1.2-0.2
		c1.7-0.5,2.8-2,2.7-3.8v-0.3c-0.1-1.4-0.3-2-2.4-3.2l0.1-0.1c1.4-0.8,3.2-0.7,4.5,0.2c1.3,1,2.2,2.5,2.4,4.2c0.2,1.7,0,3.5-0.5,5.1
		c-0.2,0.7-0.5,1.6-1.2,1.9c-0.5,0.1-1,0.1-1.4,0l-0.3-0.1c-0.5-0.1-1-0.2-1.5-0.2c-0.8,0-1.5,0.5-1.9,1.2c-0.2,0.5-0.2,1.1,0,1.7
		c0.1,0.3,0.2,0.7,0.1,1.1c0,0.1-0.1,0.1-0.1,0.2c0,0-0.2-0.1-0.3-0.2l-0.2-0.2c-0.1-0.2-0.3-0.5-0.5-0.7c-0.6-0.5-1.5-0.5-2.1,0
		c-0.5,0.4-0.9,0.9-1.2,1.5l-0.2,0.5c-0.1,0.3-0.3,0.6-0.4,0.9c-0.7,1.2-2.2,1.7-3.5,1.2L199.5,141z M203.5,130.3l-0.3,0.2
		c0-0.1,0.1-0.2,0.1-0.3C203.4,130.2,203.5,130.3,203.5,130.3L203.5,130.3z M203.4,130.1c0.2-0.5,0.4-1,0.6-1.5l0.3-0.8
		c0.7-1.8,1.6-3.4,2.9-4.9c2.1,1.1,2.2,1.5,2.2,2.5v0.3c0,1.3-0.8,2.4-2,2.8c-0.3,0.1-0.7,0.1-1,0.2l-0.7,0.1
		c-0.6,0.2-1.2,0.5-1.6,0.9C203.8,129.9,203.6,130,203.4,130.1L203.4,130.1z M203.5,171.9c-0.2-0.5-0.5-1.1-0.8-1.6
		c-0.4-0.6-0.7-1.3-1-2c-0.7-1.8-0.4-4.4-0.2-6.2c0.1-0.7,0.1-1.2,0.1-1.7l0,0V160l0,0v-7.4c0-0.6,0-1.1,0.2-1.7
		c0.1-0.2,0.2-0.4,0.3-0.6c0.1-0.2,0.2-0.3,0.3-0.5c0.3-0.7,0.5-1.5,0.4-2.3c-0.2-1.2-0.6-2.4-1.3-3.5c-0.5-0.9-1-1.7-1.6-2.5
		c0.2,0,0.5,0.1,0.7,0.1c1.4,0,2.7-0.7,3.4-1.8c0.2-0.4,0.4-0.7,0.5-1.1c0.1-0.2,0.1-0.3,0.2-0.5c0.2-0.4,0.4-0.8,0.8-1.1
		c0.3-0.2,0.7-0.2,1,0c0.1,0.1,0.2,0.3,0.3,0.4l0.2,0.3c0.3,0.5,0.8,0.7,1.3,0.6c0.4-0.1,0.7-0.4,0.8-0.8c0.2-0.5,0.2-1.1,0-1.6
		c-0.1-0.3-0.2-0.7-0.1-1.1c0.2-0.4,0.6-0.6,1-0.5c0.4,0,0.8,0.1,1.2,0.2l0.4,0.1c0.7,0.2,1.4,0.2,2-0.1c0.9-0.5,1.6-1.5,1.7-2.6
		c0.5-1.8,0.7-3.7,0.5-5.5c-0.2-1.9-1.3-3.7-2.8-4.9c-1.6-1.2-3.9-1.3-5.6-0.2l0.3,0.4l-0.3-0.4c-1.9,1.6-3.3,3.7-4.1,6.1l-0.3,0.8
		c-0.7,1.9-1.6,3.7-2.8,5.3c-0.3,0.4-0.8,0.7-1.3,0.9c-0.7,0-1.3-0.1-1.9-0.5c-0.3-0.1-0.5-0.3-0.6-0.6c-0.4-0.7-0.9-1.3-2.7-1.6
		v0.1c-0.3-0.5-0.7-0.9-1.1-1.3c-0.5-0.5-1-1.1-1.5-1.8c-0.6-0.9-0.9-2-1-3.1c-0.1-1.1-0.1-2.2-0.1-3.3c0-0.2,0.2-0.4,0.6-0.8
		c1.3-0.9,2.8-1.3,4.4-1.3c-0.2,0.3-0.5,0.6-0.7,0.8c-0.8,0.7-1.4,1.6-1.5,2.7c0,1.1,0.3,2.2,0.9,3.2c0.4,1.2,1.3,2.2,2.5,2.7
		c0.3,0.1,0.7,0.2,1,0.2c0.6,0,1.3-0.2,1.8-0.5c0.8-0.5,1.4-1.1,1.8-1.9c1.3-1.7,2-3.8,1.9-5.9c0.8-0.2,1.5-0.6,2.3-0.9l0.9-0.5
		c1.3-0.8,2.6-1.3,4.1-1.6c2-0.2,4,0.4,5.6,1.6c1.6,1.2,3.1,2.7,4.2,4.4c0.4,0.5,0.7,1.1,1,1.7c0.3,0.6,0.7,1.2,1,1.8
		c0.5,0.9,1.2,1.6,2.1,2.1c1,0.4,2,0.6,3.1,0.5h4.1c0.1,2.5,0.8,5,2.1,7.2c0.2,0.2,0.3,0.5,0.3,0.7c0,0.3-0.4,0.5-0.7,0.7
		c-0.1,0.1-0.3,0.1-0.5,0.2c-0.4,0.1-0.8,0.3-1.1,0.5c-0.9,0.8-1.4,2-1.1,3.2c0,0.2,0,0.5,0.1,0.7c0.2,0.7,0.2,1.4,0,2.1
		c-0.2,0.5-0.5,0.8-0.9,1c-0.2,0.1-0.5,0.1-0.7,0c-0.1-0.1-0.2-0.2-0.3-0.3c-0.2-0.2-0.4-0.4-0.7-0.5c-0.7-0.3-1.4-0.1-1.9,0.4
		c-0.4,0.4-0.7,0.9-0.8,1.4c-0.2,0.5-0.9,2.2,0.2,3.2l0.3,0.2c0.1,0,0.2,0.1,0.2,0.2c0,0,0,0.2-0.3,0.5c-2.9,3.3-5.9,6.7-8.9,9.9
		c-0.8,0.9-1.5,1.2-2,1s-0.6-0.6-0.8-1.3c0-0.3-0.3-0.5-0.5-0.6c-0.3-0.1-0.6,0-0.8,0.2c-1.4,1.7-3.2,3-5.2,4l0,0
		c-0.8,0.4-2.4,4.4-3.1,7.3C203.7,172.4,203.6,172.1,203.5,171.9L203.5,171.9z M204.7,221.8c-0.5,0.2-1,0.5-1.4,0.8
		s-1.2,0.7-1.8,0.9c-0.3,0.2-0.7,0.3-1,0.5c-0.3-3.7-0.2-7.4,0.3-11.1l1,1.1c2.2,2.6,4.4,5.2,7,5.9
		C207.4,220.5,206.1,221.1,204.7,221.8L204.7,221.8z M240.1,216.8c0,0.1,0.1,0.1,0.2,0.1c-8.7-1.8-17.6-1.4-26.1,1l0.1,0.5l-0.2-0.5
		c-0.9,0.3-1.9,0.6-2.9,1l0,0l-0.4,0.1c-0.7-1.7-1.2-3.5-1.6-5.3c-0.5-2.5-0.8-5.1-1-7.7l-1.8-18.8c-0.3-2.1-0.3-4.2,0.2-6.3
		c0.3,0.5,0.7,1,1.1,1.4s0.5,0.7,0.8,1.1l0,0c-0.5,0.8,0.3,3.3,0.3,3.3c0.4,1.2,1,2.4,1.5,3.6c1,2.2,1.8,4.4,2.4,6.8l0,0
		c0.4,1.5,0.6,3.1,0.7,4.7c0,1.4,0.2,2.8,0.5,4.1c0.7,3.1,2.6,5.8,5.2,7.7c2.1,1.3,4.6,2,7.1,1.9h0.7c3.8-0.1,6.8-3.2,7.7-4.1
		L234,211l0.4,0.3c0.4-0.6,0.8-1.2,1.2-1.8l0.6-0.9l-0.4-0.3l0.5,0.2c0.9-2,1.7-4,2.4-6c0.9-2.5,1.9-5,3.2-7.4
		c1.8-3.4,4.1-6.5,6.9-9.2c0.1,1.4-1.2,6.1-2.1,9.3c-0.5,2-1.1,3.9-1.4,5.3c-1,4.5-2.2,9.6-4.9,13.6
		C240.1,214.6,239.3,215.8,240.1,216.8L240.1,216.8z M222.1,174.1c-0.5-0.8-0.8-1.6-0.8-2.5c0.5,0.7,1,1.4,1.6,2
		c0.8,1,1.7,2.1,2.5,3.1l1.3,1.5c0.4,0.6,1,1,1.6,1.4c0.3,0.2,0.6,0.3,1,0.3c-0.4,0.1-0.7,0.4-0.9,0.6c-0.2,0.2-0.3,0.4-0.5,0.6
		c-0.2,0.3-0.4,0.5-0.7,0.8c-0.8,0.4-1.7,0.5-2.5,0.3c-0.4-0.1-0.7-0.2-1.1-0.3c-0.6-0.2-1.3-0.4-2-0.5c-0.4,0-0.8,0-1.2,0
		c-0.4,0-0.8,0-1.2,0c-0.3-0.1-0.6-0.2-0.8-0.4h0.3c1.3,0.1,2.5-0.4,3.4-1.3c0.7-0.7,1.1-1.7,1.1-2.7
		C222.9,175.9,222.6,174.9,222.1,174.1L222.1,174.1z M237.7,179.8c0.3,0.5,0.8,0.8,1.3,1c0.8,0.4,1.7,0.7,2.6,0.9
		c-0.2,0.5-0.5,1-1,1.3c-0.6,0.3-1.3,0.4-1.9,0.5c-0.6,0.1-1.2,0.2-1.8,0.1c-0.5-0.1-0.9-0.4-1.1-0.8l-0.1-0.5l-0.5,0.1
		c-1.3,0.3-2.7-0.2-3.5-1.2l-0.2-0.2c-0.3-0.4-0.6-0.8-1.1-1c0.7-0.2,1.3-0.4,1.9-0.8c1.1-0.7,2.2-1.5,3.3-2.4
		c2.1-1.7,3.8-3.8,5.3-6c0.1-0.2,0.2-0.4,0.3-0.5c-0.4,2.3-1.4,4.6-2.8,6.5C238,177.3,237,178.6,237.7,179.8L237.7,179.8z
		 M250.2,178c0.2,0.1,0.5,0.2,0.7,0.2c0.1,0,0.3,0,0.4,0h0.2h0.1v0.1c0,0.1,0,0.1,0.1,0.2c0.1,0.3,0.3,0.5,0.5,0.7
		c-0.2,0.2-0.5,0.3-0.8,0.5s-0.8,0.5-1.2,0.8c-3.8,3-7,6.6-9.6,10.7c-2,3.3-3.7,6.8-4.9,10.5c-0.3,0.9-0.7,1.8-1,2.7
		c-0.1,0.2-0.2,0.5-0.3,0.7v-0.7l-0.1-2.5c0-1.1-0.1-2.3-0.1-3.4c1-0.5,1.9-1.4,2.3-2.5c0.4-1.1,0.3-2.1,0.8-3
		c0.5-0.9,1-1.8,1.6-2.6c0.3-0.4,0.6-0.8,1-1.1c0.4-0.4,0.8-0.8,1.1-1.2c0.3-0.5,0.4-1.2,0-1.8c-0.3-0.5-0.7-0.9-1.3-1.1
		c-0.5-0.3-1-0.4-1.6-0.5c-0.3,0-0.6,0.1-0.9,0.2c-0.3,0.2-0.5,0.4-0.6,0.7l-1.1,2.9c-0.2,0.5-0.4,1-0.6,1.4
		c-0.1,0.2-0.2,0.5-0.4,0.7l-0.2,0.3c-0.1-0.3-0.1-0.7-0.1-1c0-0.4,0.1-0.9,0.3-1.3c0.3-0.4,0.5-0.9,0.6-1.4
		c0.1-0.6-0.1-1.1-0.4-1.6c-0.3-0.4-0.6-0.8-1.1-1.2c-0.8-0.7-1.9-1-3-1c-1.1,0.1-2.1,0.6-2.8,1.5c-0.2,0.2-0.3,0.5-0.4,0.7
		l-0.2,0.7c-0.1,0.1-0.2,0.2-0.3,0.3c-0.1,0-0.2,0-0.3-0.1c-0.3-0.3-0.6-0.6-0.8-1c-0.3-0.4-0.6-0.8-0.9-1.2c-0.4-0.4-0.8-0.8-1.3-1
		c-0.5-0.3-1.1-0.4-1.7-0.3l-0.1-0.2l-0.4-0.4c0.5,0.1,1,0.2,1.4,0.4c0.4,0.1,0.8,0.2,1.2,0.3c1.1,0.3,2.4,0.2,3.4-0.5
		c0.3-0.3,0.6-0.6,0.9-0.9c0.1-0.2,0.3-0.3,0.4-0.5s0.7-0.6,1.1-0.5s0.5,0.4,0.7,0.7l0.2,0.3c1,1.2,2.5,1.9,4.1,1.7
		c0.4,0.6,1,1,1.7,1.1c0.2,0,0.5,0.1,0.7,0.1c0.5,0,1-0.1,1.5-0.2c0.8-0.1,1.5-0.3,2.2-0.6c0.7-0.5,1.2-1.2,1.5-2c0.2,0,0.3,0,0.5,0
		h0.4c2-0.2,3.8-1.2,5-2.8c0.4-0.5,0.7-0.9,1-1.4l0.4,0.2L250.2,178z M250,176.8c0.4-0.8,0.8-1.6,1.2-2.3l0,0
		c0.1-0.2,0.4-0.3,0.8-0.3c0.8,0,1.5,0.4,2,1c0.4,1,0.1,2.2-0.6,3c-0.1,0.1-0.2,0.2-0.2,0.2c-0.2-0.1-0.3-0.3-0.4-0.4
		c0,0,0-0.1,0-0.1c0-0.2-0.1-0.3-0.2-0.5c-0.2-0.2-0.6-0.3-0.9-0.3h-0.2h-0.2c-0.1,0-0.3-0.1-0.4-0.1l-0.3-0.1L250,176.8z
		 M216.7,189.2c0.2,1.2,0.9,2.2,1.8,2.9c-0.2,1-0.4,2.1-0.5,3.2l-0.3-0.3l-0.8-0.8l0,0c-0.1-0.3-0.2-0.7-0.2-1
		c-0.1-0.5-0.2-1.1-0.4-1.6c-0.2-0.5-0.5-1.1-0.8-1.5c-0.3-0.5-0.6-1-0.8-1.5c-0.5-1.5-0.3-3.1,0.5-4.4c0.2-0.1,0.4-0.1,0.7-0.1
		c0.3,0.1,0.5,0.4,0.6,0.7c0.1,0.4,0.1,0.9,0.1,1.3C216.5,187,216.5,188.1,216.7,189.2L216.7,189.2z M218.3,202.8
		c0.1-2.2,0.3-4.4,0.6-6.6c0.3-2.2,0.7-4.4,1.2-6.5c0.4-1.9,1-3.7,1.8-5.5c0.5,0.9,0.9,1.8,1,2.8c0.2,1.3,0.1,2.6-0.4,3.8l-0.2,0.5
		l0.5,0.2c0.3,0.1,0.6,0.1,0.9,0c0.2-0.1,0.4-0.2,0.6-0.3l0.4-0.2c0.3,1.2,0.4,2.5,0.3,3.7c-0.1,1.5-0.3,3-0.4,4.5
		c-0.1,1.5-0.2,3.1-0.1,4.6c0.1,1.4,0.3,2.9,0.6,4.2v0.1v0.1c0,0,0,0,0.1,0l0,0h0.1c0.1,0,0.1,0,0.1,0v-0.1v-0.2v-0.3l0.1-0.6
		l0.2-1.3c0.1-0.8,0.2-1.7,0.4-2.5c0.3-1.7,0.6-3.3,1-5c0.8-3.2,1.7-6.4,2.8-9.5c0.8,1.4,2.2,2.2,3,3.4c0.8,1.4,1.1,3,0.9,4.6
		c0,0.2,0,0.4,0,0.7l0,0c0,1.4,0.1,2.8,0.1,4.3l0.1,2.5v1.2v0.4c-1,2.4-2.1,4.4-4,5.7c-1.9,1.3-4.3,1.7-6.6,1.1
		c-2-0.6-3.7-1.8-4.8-3.4c-0.2-0.5-0.3-0.9-0.3-1.4c-0.1-0.5-0.1-1.1-0.1-1.6C218.2,205,218.2,204,218.3,202.8L218.3,202.8z
		 M234.4,192.4L234.4,192.4l-0.5-0.3l-0.5-0.3c-0.1-0.1-0.2-0.1-0.3-0.1c-1-1.2-2.4-2-3-3.3l-0.2-0.4l-0.1,0.4l0,0
		c-1.2,3.2-2.2,6.5-3,9.9c-0.4,1.7-0.7,3.4-1,5.1c-0.1,0.8-0.3,1.7-0.4,2.5l-0.2,1.3v0.2c-0.1-1.1-0.2-2.3-0.2-3.4
		c0-1.5,0.1-3,0.2-4.5c0.2-1.5,0.5-3,0.6-4.5c0.2-1.6,0.1-3.2-0.3-4.7l-0.2-0.5l-0.5,0.2l0,0c-0.4,0.2-0.7,0.4-1,0.6l-0.1,0
		c0.3-1.2,0.4-2.4,0.2-3.5c-0.1-1-0.5-2-0.9-2.8c0.6,0.1,1.2,0.4,1.7,0.9c0.3,0.3,0.6,0.7,0.9,1.1c0.3,0.5,0.7,0.9,1.1,1.2
		c0.3,0.2,0.7,0.3,1.1,0.2c0.3-0.1,0.6-0.4,0.8-0.7l0.3-0.7c0.1-0.2,0.2-0.4,0.3-0.6c0.5-0.7,1.3-1.2,2.2-1.2c0.9,0,1.8,0.3,2.5,0.8
		c0.8,0.4,1.2,1.2,1.2,2.1c-0.1,0.4-0.3,0.9-0.5,1.3c-0.2,0.5-0.4,1-0.4,1.5C234,190.8,234.2,191.6,234.4,192.4L234.4,192.4z
		 M233.8,192.8c0.1,0.1,0.2,0.1,0.3,0.2c0.1,0,0.2,0.1,0.3,0.1c0.2,0,0.4,0,0.5-0.1l0.1-0.1v-0.1l0,0c-0.1-0.5-0.3-1-0.4-1.5
		l0.1-0.1c0.1-0.1,0.1-0.2,0.2-0.3l0.4-0.7l0.7-1.4c0.2-0.5,0.5-0.9,0.7-1.4s0.4-1,0.6-1.4c0.1-0.4,0.5-0.7,1-0.7
		c0.5,0.1,0.9,0.2,1.4,0.5c0.4,0.2,0.8,0.5,1,0.9c0.2,0.4,0.2,0.8-0.1,1.2c-0.3,0.4-0.6,0.7-1,1c-0.4,0.4-0.8,0.8-1.1,1.2
		c-0.6,0.8-1.2,1.7-1.7,2.7c-0.6,1-0.6,2.2-1,3c-0.3,0.7-0.9,1.2-1.5,1.6v-0.4C234.4,195.4,234.2,194.1,233.8,192.8L233.8,192.8z
		 M237.6,172.1c-0.8,0-1.6-0.1-2.3-0.3c-0.7-0.2-1.2-0.6-1.6-1.2c-0.2-0.5-0.2-1,0.1-1.4c0.1-0.1,0.2-0.2,0.9-0.2h0.3
		c0.4,0,0.8,0.1,1.2,0.3c0.9,0.4,1.6,0.9,2.2,1.7c0.3,0.4,0.5,0.8,0.3,1S238.3,172.1,237.6,172.1L237.6,172.1z M240.4,170.3
		c-0.2,0.3-0.4,0.6-0.6,0.8c-0.1-0.4-0.3-0.7-0.5-1c-0.7-0.9-1.6-1.6-2.6-2c-0.5-0.2-1-0.3-1.5-0.3c-0.7-0.1-1.5,0-2.1,0.5
		c-0.5,0.7-0.6,1.7-0.2,2.5c0.5,0.9,1.2,1.5,2.2,1.8c0.8,0.2,1.7,0.4,2.6,0.4h0.3h0.3c-1,1.1-2,2.1-3.1,3c-1,0.8-2.1,1.6-3.2,2.2
		c-1.1,0.6-2.3,1-3.3,0.4c-1-0.8-1.9-1.7-2.6-2.7c-0.8-1-1.7-2-2.6-3s-1.7-2-2.6-3s-2-1.9-1.9-3.1c0.1-0.6,0.4-1.2,0.8-1.6
		c0.5-0.5,1-0.9,1.5-1.3c1.1-0.8,2.2-1.5,3.3-2.1c2.2-1.4,4.8-2,7.4-1.9c0.3,0,0.6,0.1,0.8,0.2c0.2,0.1,0.5,0.4,0.8,0.6l1.6,1.2
		l3.3,2.3c1.1,0.6,2,1.6,2.6,2.7C241.7,168.1,241.1,169.3,240.4,170.3L240.4,170.3z M218.9,182.3c0.4,0,0.9,0,1.3,0
		c0.4,0,0.7,0,1.1,0h0.2l-0.3,0.6c-1,2.1-1.7,4.2-2.2,6.4c-0.1,0.5-0.2,1-0.3,1.5c-0.6-0.5-0.9-1.2-1.1-2c-0.2-1-0.2-2-0.1-3
		c0.1-0.5,0-1.1-0.1-1.6c-0.2-0.7-0.7-1.2-1.3-1.3c-0.6-0.1-1.1,0-1.6,0.3c-0.2,0.1-0.3,0.3-0.3,0.5c-0.9,1.5-1,3.3-0.4,4.9
		c0.2,0.6,0.5,1.1,0.8,1.7c0.3,0.5,0.5,0.9,0.7,1.4c0.2,0.5,0.3,0.9,0.3,1.4c0.2,0.8,0.2,1.3,0.5,1.5l0.8,0.8l0.8,0.8
		c-0.3,2.1-0.5,4.2-0.6,6.4c0,1.1-0.1,2.2,0,3.3c-0.5-1.7-0.8-3.5-0.9-5.3c-0.1-1.6-0.4-3.2-0.8-4.8c-0.6-2-1.3-4-2.2-5.8
		c-1-2.5-2.3-4.9-3.8-7.2c-0.3-0.5-0.7-0.9-1.1-1.4c-0.6-0.7-1.2-1.5-1.7-2.3c-0.8-1.2-1.1-2.7-1-4.1c0.2-1.4,1.2-2.4,2.6-2.7
		c1.2,0,2.3,0.6,3,1.6c0.5,0.6,0.9,1.3,1.2,1.9c0.3,0.5,0.5,1,0.9,1.4c0.8,1.3,2,2.3,3.3,2.9C217.1,181.3,217.9,182,218.9,182.3
		L218.9,182.3z M241.5,217.2c0.5-0.1,0.9-0.3,1.4-0.5c1.5-0.6,3.2-0.6,4.6,0.2c1.1,0.6,1.9,1.6,2.2,2.8
		C247.1,218.7,244.3,217.8,241.5,217.2L241.5,217.2z M256.2,191.9c0.5,2.2,1.2,4.3,2.3,6.2c0.5,1,0.9,1.9,1.3,2.9
		c1.1,3.3,1.6,6.8,1.6,10.3l0,0c0,1.6,0.1,3.4,0.2,5.1s0.1,3.4,0.2,5c0.1,1.1,0,2.1-0.4,3.1c-0.1,0.2-0.3,0.5-0.5,0.6
		c-0.2,0-0.5,0-0.7-0.2c-0.7-0.3-1.3-0.6-1.9-1c-0.8-0.5-1.6-0.9-2.5-1.3l-1-0.5l0,0c-1.2-0.7-2.5-1.2-3.8-1.8
		c-0.6-3.3-3.7-5.4-6.9-4.9c-0.5,0.1-1,0.2-1.5,0.5c-0.6,0.3-1.3,0.6-1.6,0.3s0.1-0.9,0.4-1.4c2.8-4.2,4-9.4,5-14
		c0.3-1.5,0.8-3.3,1.4-5.3c1.7-6.2,2.4-9.2,1.9-10.4c0.5-0.4,0.9-0.8,1.4-1.2l0,0c1.2-1.3,2.8-3,4.2-4.4c0.1,0.7,0.2,1.3,0.4,2
		c0.3,1.3,0.5,2.6,0.6,3.9c0,0.5,0,1.1,0,1.6C255.9,188.6,256,190.2,256.2,191.9z M255.4,179.2L255.4,179.2l0.2,0.1L255.4,179.2z
		 M256.9,177.1c-0.6,0.3-1,0.8-1.4,1.3l0,0c-1.5,1.5-3.5,3-5,4.5c-3.9,3.3-7.2,7.2-9.6,11.8c-1.2,2.4-2.3,4.9-3.2,7.5
		c-0.7,1.9-1.5,3.9-2.4,5.9l-0.6,0.9c-0.4,0.6-0.8,1.2-1.2,1.7c-1.6,1.8-4.2,3.7-6.9,3.8c-2.5,0.2-5.1-0.4-7.2-1.7
		c-2.4-1.7-4.1-4.3-4.7-7.1c-0.3-1.3-0.4-2.6-0.4-3.9c0-1.8-0.3-3.6-0.8-5.4l0,0c-0.6-2.2-1.3-4.4-2.3-6.4c-0.5-1.2-1-2.4-1.4-3.6
		c-0.2-0.5-0.3-1.1-0.4-1.7c1.2,1.9,2.2,3.9,3.1,6c0.9,1.8,1.6,3.7,2.2,5.7c0.3,1.5,0.6,3.1,0.7,4.6c0.3,2.7,0.6,5.6,2,8
		c0.2,0.3,0.3,0.5,0.5,0.8l0,0c1.3,1.9,3.2,3.3,5.4,3.9c0.8,0.2,1.6,0.3,2.4,0.3c1.8,0,3.5-0.5,5-1.6c2.5-1.8,3.8-4.6,5-7.8
		c0.4-0.9,0.7-1.8,1-2.7c1.2-3.6,2.8-7,4.8-10.3c2.5-4,5.7-7.5,9.4-10.5c0.4-0.3,0.7-0.5,1.1-0.7c0.7-0.4,1.4-1,2-1.6
		c1-1.1,1.3-2.7,0.8-4.1c-0.6-1-1.7-1.5-2.8-1.5c-0.6-0.1-1.2,0.2-1.6,0.7l0,0c-0.7,1.6-1.6,3.2-2.7,4.5c-1.1,1.3-2.6,2.2-4.3,2.4
		c-1.4,0-2.8-0.4-4-1c-0.3-0.1-0.6-0.3-0.8-0.6c-0.3-0.5,0.2-1.3,0.7-2c1.7-2.3,2.8-5.1,3.1-7.9l-0.7-0.1c0-0.1,0.1-0.2,0.1-0.4
		c0.2-0.7,0.2-1.5-0.1-2.2c-0.7-1.2-1.6-2.2-2.8-2.9l-3.3-2.3l-1.6-1.1c-0.3-0.2-0.5-0.4-0.8-0.6c-0.3-0.2-0.7-0.3-1.1-0.3
		c-2.7-0.2-5.4,0.5-7.7,2c-1.1,0.7-2.2,1.5-3.3,2.2c-0.6,0.4-1.1,0.8-1.6,1.2c-0.5,0.5-0.9,1.1-1,1.8c-0.1,0.7,0.1,1.4,0.6,2
		c0.4,0.6,0.8,1.1,1.2,1.6l0.2,0.3l-0.2-0.1c-0.5,1.3,0.2,2.6,0.8,3.9c0.4,0.8,0.7,1.6,0.9,2.5c0,0.7-0.3,1.4-0.8,1.9
		c-0.7,0.7-1.6,1.1-2.5,1.1c-1.9-0.2-3.5-1.4-4.5-3c-0.3-0.5-0.6-0.9-0.8-1.4c-0.4-0.7-0.8-1.4-1.3-2c-0.9-1.3-2.3-2-3.8-2
		c-1.8,0.3-3.2,1.7-3.5,3.5c-0.2,1.7,0.2,3.4,1.2,4.8c0.1,0.2,0.3,0.4,0.4,0.6l0,0c-0.8,2.2-1.1,4.5-0.9,6.8l1.8,18.8
		c0.2,2.6,0.5,5.2,1,7.8c0.4,1.8,0.9,3.5,1.6,5.2c-2.6-0.1-4.9-2.8-7.3-5.7c-0.6-0.7-1.1-1.3-1.7-2l-0.7-0.8l-0.2,1
		c-0.7,4-0.9,10.8-0.4,12.7h0.1c-0.8,0.4-1.5,0.8-2.3,1.3c-1.7,1.1-3.5,1.9-5.3,2.7c-0.5-3-0.6-6-0.4-9.1c0.1-0.7,0.6-3.7,1.1-6.3
		c0.2-1.2,0.4-2.3,0.6-3.3l0,0c1.7-4.7,4.5-8.9,7.6-13.2c0.9-1.2,1.7-2.5,2.2-3.9c0.4-1.5,0.5-3.1,0.4-4.7c-0.1-1.3,0-2.7,0.3-4l0,0
		c0.4-1.4,0.6-2.8,0.8-4.2c0.2-1.7,0.1-3.4-0.2-5.1h0.1c0.4-3,2.4-7.7,2.9-8.2c2-1,3.7-2.3,5.2-3.9c0.1,0.7,0.6,1.3,1.3,1.6
		c1.4,0.5,2.6-0.8,3-1.2c3-3.2,6-6.6,9-9.9c0.4-0.4,0.6-1,0.5-1.6c-0.1-0.3-0.3-0.5-0.6-0.6l-0.2-0.1c-0.4-0.3-0.3-1,0.1-2
		c0.1-0.4,0.3-0.8,0.6-1.1c0.2-0.2,0.5-0.3,0.8-0.2c0.1,0.1,0.3,0.2,0.4,0.3c0.1,0.2,0.3,0.3,0.5,0.4c0.5,0.3,1,0.4,1.6,0.2
		c0.7-0.3,1.3-0.9,1.5-1.6c0.2-0.8,0.2-1.7,0.1-2.6c0-0.2,0-0.5-0.1-0.7c0-0.7,0-1.8,0.7-2.3c0.3-0.2,0.6-0.3,0.8-0.3l0.5-0.2
		c0.7-0.2,1.2-0.8,1.4-1.5c0-0.5-0.1-1-0.4-1.3c-1.2-2-1.8-4.3-1.9-6.7l6,0c1,0,2,0,2.9,0.2c0.4,0.1,0.8,0.3,1.2,0.6
		c0.4,0.3,0.8,0.5,1.3,0.6l0,0c0.2,0,0.4,0,0.6,0.1c-0.3,2.3,0.2,4.7,1.6,6.6c0.3,0.4,0.6,0.7,0.8,1c0.7,0.7,1.2,1.5,1.5,2.4
		c0.3,1.4-0.1,2.8-1,3.8c-0.6,0.8-1.3,1.5-2,2.2c-0.4,0.3-0.7,0.7-1.1,1c-1.2,1.1-2,2.6-2.3,4.2v0.3l0.2,0.2c1.4,1.1,2.6,2.5,3.6,4
		l0,0c0.2,0.3,0.3,0.6,0.3,1c0,0.5,0.3,1,0.8,1.2c0.8,0.3,1.6,0.4,2.5,0.3h0.3c0.8-0.1,1.6,0.1,2.3,0.5c0.3,0.2,0.5,0.6,0.5,1
		c0,0.2-0.1,0.5-0.2,0.6c-0.2,0.2-0.4,0.3-0.7,0.4c-0.4,0.1-0.8,0.4-1.1,0.7c-0.6,0.9-0.4,2.1,0.4,2.8c0.8,0.8,1.7,1.5,2.7,1.9
		c0.9,0.4,1.7,1,2.4,1.7c0.8,0.9,1.2,2.1,1.3,3.3C257.1,174.5,257,175.8,256.9,177.1L256.9,177.1z M272,147.7
		c-0.7,0.3-1.4,0.7-1.9,1.3l-3.1,3.3l0.4,0.3l-0.4-0.3c-0.1,0.1-0.3,0.2-0.5,0.3l-0.2,0.1c-0.1-1.4-0.7-2.7-1.7-3.6l-0.4-0.4
		c-1.1-0.7-1.5-2-1.2-3.3c0.1-1-0.1-1.9-0.5-2.8l-0.2-0.3l-0.4,0.1c-0.9,0.2-1.6,0.8-1.9,1.6v0.1c-0.7-3.4-0.8-6.9-0.4-10.4
		c0,0,0-0.2,0-0.2c0.1,0,0.1,0,0.2-0.1l2.4-0.5l-0.2,0.2c-0.5,0.4-0.8,1.1-0.8,1.8c0.2,1,0.7,1.9,1.5,2.6c0.3,0.3,0.7,0.6,1.1,0.9
		s0.7,0.5,1,0.8c0.4,0.4,0.8,0.8,1.2,1.3c0.3,0.3,0.5,0.6,0.8,0.9c0.7,0.8,1.7,1.5,2.8,1.8c0.3,0.1,0.5,0.1,0.8,0.1
		c0.6,0,1.2-0.2,1.7-0.5C272.3,144.4,272.3,146.1,272,147.7L272,147.7z M262.2,134.7c0-0.3,0.3-0.6,0.6-1c0.3-0.3,0.5-0.7,0.6-1.1
		c0.7-0.1,1.4-0.1,2.1,0c0.8,0.3,1.6,0.7,2.2,1.4c2.1,2,3.6,4.6,4.2,7.5c-0.5,0.6-1.3,0.8-2.1,0.6c-0.9-0.3-1.7-0.8-2.2-1.5
		c-0.3-0.3-0.5-0.6-0.8-0.9c-0.4-0.5-0.8-0.9-1.3-1.4c-0.3-0.3-0.7-0.6-1.1-0.9s-0.7-0.5-1-0.8C262.8,136.2,262.4,135.5,262.2,134.7
		L262.2,134.7z M280.8,140.2L280.8,140.2c-0.3,0.8-0.8,1.6-1.5,2.2c-0.4,0.4-0.8,0.9-1.2,1.3c-0.6,0.9-1,1.9-1.3,3
		c-0.2,0.6-0.4,1.2-0.6,1.8c-0.1,0.3-0.3,0.6-0.6,0.8c-0.1,0.1-0.3,0.2-0.5,0.2l-0.2-0.4c-0.2-0.3-0.4-0.7-0.7-0.9
		c-0.3-0.3-0.7-0.5-1.2-0.6c0.9-5.2-0.8-10.6-4.7-14.3c-0.7-0.7-1.6-1.3-2.6-1.6c-1.1-0.2-2.3-0.2-3.3,0.1l-2.8,0.5
		c-0.3,0-0.5,0.2-0.8,0.4c-0.2,0.2-0.3,0.5-0.3,0.7c-0.5,3.6-0.4,7.3,0.4,10.9c0,0.3,0.2,0.6,0.5,0.8c0.4,0.2,0.9,0,1.1-0.3
		c0.1-0.2,0.2-0.3,0.2-0.5v-0.1c0.1-0.4,0.4-0.7,0.8-0.8c0.2,0.7,0.2,1.3,0.2,2c-0.1,1.1,0.1,2.2,0.7,3.1c0.3,0.3,0.6,0.6,0.9,0.9
		c0.1,0.1,0.3,0.2,0.4,0.3c0.9,0.8,1.4,1.9,1.4,3.1h0.2c-0.9,0.3-1.7,0.9-2.3,1.6c-0.7,1.2-1,2.6-0.9,4c-0.1,3.3-0.4,6.5-1.1,9.7
		l0.5,0.1l-0.6,0.1c0.3,1.3,0.5,2.6,0.5,3.9c0,1.2-0.6,2.4-1.5,3.2c-0.5,0.4-1.2,0.7-1.8,0.9l-0.5,0.2c0.2-1.1,0.2-2.3,0.1-3.4
		c-0.1-1.4-0.6-2.8-1.5-3.9c-0.8-0.8-1.7-1.4-2.7-1.9c-0.9-0.4-1.7-1-2.4-1.7c-0.4-0.5-0.7-1.2-0.4-1.6c0.2-0.2,0.4-0.3,0.7-0.4
		c0.4-0.1,0.7-0.3,1-0.6c0.4-0.4,0.5-0.9,0.5-1.4c0-0.7-0.4-1.3-0.9-1.7c-0.8-0.6-1.9-0.8-2.9-0.8H249c-0.7,0.1-1.4,0-2.1-0.2
		c-0.2-0.1-0.2-0.1-0.2-0.3c0-0.5-0.2-1-0.5-1.4l-0.4,0.3l0.4-0.3c-1-1.6-2.2-2.9-3.6-4.1c0.3-1.3,1-2.5,2-3.3c0.3-0.4,0.7-0.7,1-1
		c0.8-0.7,1.5-1.5,2.2-2.3c1.1-1.3,1.5-3.1,1.2-4.7c-0.4-1-1-2-1.7-2.7c-0.3-0.3-0.5-0.7-0.8-1c-1.2-1.7-1.7-3.7-1.4-5.7l0.7,0.3
		c0.8,0.4,1.7,0.6,2.6,0.6c0.3,0,0.5,0,0.8-0.1c1-0.3,1.9-0.9,2.6-1.6l0.2-0.1c0.5-0.4,0.9-0.9,1.3-1.3c1.8-1.8,3.1-3.2,7.1-3l0,0
		c1.5-0.1,3,0.1,4.3,0.5c1.2,0.6,2.3,1.4,3.2,2.4c0.7,0.7,1.4,1.3,2.2,1.8c-0.7,1.1,0.5,2.3,1,2.7c0.2,0.2,0.4,0.4,0.7,0.5
		c0.4,0.3,0.7,0.6,1,1c0.4,0.6,0.7,1.3,0.8,2c0.2,0.7,0.4,1.4,0.8,2.1c0.3,0.5,0.8,0.9,1.4,0.9l0,0c0.3,0,0.6-0.1,0.9-0.3
		c1.5-1.1,2.4-2.9,2.4-4.8c0.2,0.2,0.5,0.4,0.7,0.6C280.7,137.5,281.1,138.9,280.8,140.2L280.8,140.2z"/>
	<path d="M240.3,158.4c0.2-0.9,0.2-1.8-0.2-2.6c-0.5-0.9-1.2-1.7-2.2-2.2c-0.8-0.4-1.7-0.5-2.6-0.3c-0.2,0.1-0.4,0.2-0.7,0.3
		l-0.4,0.2c-0.8,0.2-1.6,0.2-2.4,0c-0.5-0.1-0.9-0.1-1.4-0.2c-0.6,0-1.2,0.1-1.8,0.3c-1,0.3-2,0.9-2.7,1.7c-0.2,0.2-0.3,0.4-0.5,0.6
		c-0.1,0.2-0.2,0.3-0.3,0.5l-0.1,0.1c-0.5,0.4-0.6,1-0.4,1.6c0.4,0.6,1.1,0.9,1.8,0.7c0.6-0.2,1-0.5,1.4-0.9l0.2-0.2
		c0.2-0.3,0.5-0.5,0.8-0.7c0.8-0.4,1.7-0.4,2.5-0.1c2.1,0.5,4.1,1.5,5.7,3l0.2,0.2c0.3,0.3,0.7,0.6,1.1,0.9c0.4,0.3,0.9,0.4,1.4,0.4
		c0.2,0,0.4,0,0.5-0.1c0.8-0.2,1.3-0.9,1.2-1.7C241.4,159.2,240.9,158.7,240.3,158.4z M240,160.7c-0.4,0.1-0.8,0-1.1-0.2
		c-0.3-0.2-0.7-0.5-0.9-0.8l-0.2-0.2c-1.8-1.6-3.9-2.7-6.2-3.2c-0.5-0.1-1-0.2-1.5-0.2c-0.6,0-1.2,0.1-1.7,0.4
		c-0.4,0.2-0.7,0.5-1,0.9l-0.2,0.2c-0.3,0.3-0.6,0.5-1,0.7c-0.2,0.1-0.5,0-0.7-0.2c0-0.1,0-0.1,0.2-0.5l0.1-0.1
		c0.1-0.2,0.3-0.4,0.4-0.5c0.1-0.2,0.2-0.3,0.4-0.5c0.6-0.7,1.4-1.2,2.2-1.4c0.5-0.2,1-0.2,1.5-0.2l0,0c0.4,0,0.9,0.1,1.3,0.1
		c1,0.2,2,0.2,2.9-0.1c0.2-0.1,0.3-0.1,0.5-0.2c0.2-0.1,0.3-0.2,0.5-0.2c0.6-0.2,1.3-0.1,1.8,0.2c0.7,0.4,1.3,1,1.7,1.7
		c0.3,0.7,0.3,1.6,0,2.3l-0.2,0.5l0.5,0.2c0.5,0.2,1,0.5,1.1,0.9C240.4,160.3,240.3,160.6,240,160.7L240,160.7z"/>
	<path d="M233.8,162.4c-0.3-0.3-0.7-0.5-1.1-0.8c-0.4-0.2-0.8-0.4-1.3-0.4c-0.4-0.1-0.9-0.1-1.3,0c-0.9,0-1.8,0.2-2.6,0.7
		c-0.4,0.2-0.8,0.4-1.1,0.7c-0.3,0.2-0.8,0.5-0.9,1.1c0,0.5,0.3,1,0.8,1.3c0.4,0.2,0.9,0.3,1.3,0.3l2.6-0.1h2.6c0.5,0,0.9,0,1.4-0.2
		c0.3-0.1,0.5-0.3,0.6-0.6c0.1-0.3,0.1-0.6,0-0.8C234.5,163.1,234.2,162.7,233.8,162.4z M233.8,164.5c-0.4,0.1-0.8,0.2-1.2,0.2
		l-2.6,0.1h-2.6c-0.4,0-0.8-0.1-1.1-0.2c-0.3-0.2-0.5-0.5-0.5-0.8c0-0.3,0.4-0.5,0.7-0.7c0.3-0.2,0.7-0.4,1.1-0.6
		c0.7-0.3,1.5-0.6,2.4-0.6c0.8,0,1.6,0.2,2.3,0.5c0.7,0.3,1.3,0.8,1.7,1.5C234.2,164.1,234.1,164.4,233.8,164.5L233.8,164.5z"/>
	<path d="M227.6,166.6L227.6,166.6c-0.6-0.3-1.4-0.3-2,0c-0.7,0.3-1.3,0.7-1.8,1.2c-0.9,0.7-1.1,2.1-0.4,3c0,0.1,0.1,0.1,0.2,0.2
		c0.5,0.5,1.1,0.9,1.8,1.1c0.5,0.2,0.9,0.3,1.4,0.3c0.6,0,1.2-0.2,1.6-0.5c0.7-0.6,1-1.6,0.8-2.5
		C229.2,168.1,228.6,167.1,227.6,166.6z M227.7,170.9c-0.6,0.4-1.4,0.4-2,0.1c-0.5-0.1-0.9-0.4-1.3-0.8c-0.2-0.2-0.4-0.6-0.3-0.9
		c0-0.3,0.2-0.6,0.5-0.8c0.5-0.4,1-0.7,1.6-1c0.2-0.1,0.4-0.1,0.6-0.1c0.2,0,0.3,0,0.5,0.1c0.6,0.4,1,1.1,1,1.8
		C228.3,169.9,228.1,170.5,227.7,170.9L227.7,170.9z"/>
	<path d="M209.7,150.5c2.1,0.9,4.4,1.4,6.7,1.5c0.6,0,1.2-0.1,1.8-0.2c0.9-0.2,1.8-0.5,2.7-1c1.3-0.8,2-1.8,1.9-2.9
		c-0.1-0.4-0.2-0.8-0.4-1.2c-0.1-0.2-0.2-0.4-0.3-0.6c-0.1-0.2-0.1-0.4-0.1-0.6c0-0.3-0.1-0.7-0.2-1c-0.1-0.3-0.3-0.6-0.6-0.8
		l-0.6-0.7c-0.3-0.4-0.6-0.7-0.9-1.1c-1.1-1-2.4-1.6-3.9-1.6c-1.2,0-2.3,0.3-3.3,0.8c-0.6,0.3-1.2,0.8-1.7,1.3l-1.9,1.7
		c-0.6,0.4-1.1,1-1.5,1.5c-0.5,0.7-0.6,1.5-0.5,2.3C207.2,149.4,208.5,150.1,209.7,150.5z M208.2,146.3c0.4-0.5,0.8-1,1.3-1.3
		l1.9-1.7c0.4-0.4,1-0.8,1.5-1.1c0.8-0.5,1.8-0.7,2.7-0.8h0.1c1.2,0.1,2.3,0.5,3.2,1.3c0.3,0.3,0.6,0.6,0.8,1l0.6,0.7
		c0.2,0.2,0.3,0.4,0.4,0.6c0.1,0.2,0.1,0.5,0.2,0.7c0,0.3,0.1,0.5,0.2,0.8c0.1,0.3,0.2,0.6,0.4,0.8c0.2,0.3,0.3,0.5,0.3,0.8
		c0.1,0.8-0.7,1.5-1.4,1.9c-0.7,0.4-1.5,0.7-2.3,0.9c-2.6,0.5-5.3-0.3-7.9-1.3c-1-0.4-2-0.9-2.2-1.8
		C207.8,147.3,207.9,146.8,208.2,146.3L208.2,146.3z"/>
	<path d="M213.7,150.4h0.4c1.8,0,3.5-0.5,5.1-1.3c0.5-0.2,0.8-0.6,1.1-1c0.2-0.5,0.1-1.1-0.1-1.6c-0.1-0.4-0.3-0.8-0.5-1.2
		c-0.3-0.5-1.5-0.7-2-0.7c0,0,0-0.1,0-0.1c0-0.1,0-0.2,0-0.3c0-0.3-0.2-0.6-0.5-0.8c-0.4-0.3-1-0.5-1.5-0.5
		c-0.4,0.1-0.8,0.3-1.1,0.6c-0.1,0.1-0.2,0.3-0.3,0.5l-0.1,0.1V144l-0.4,0.2l-0.1,0.1c-0.4,0.3-0.7,0.6-1,0.9
		c-0.8-0.5-2-0.3-2.5,0.5c-0.2,0.3-0.3,0.7-0.3,1.1c0,0.6,0.2,1.1,0.5,1.6C211,149.6,212.3,150.4,213.7,150.4z M214.9,144.7l0.1-0.2
		c0.1-0.1,0.2-0.2,0.2-0.3c0.1-0.2,0.3-0.3,0.5-0.3h0.1c0.3,0,0.5,0.1,0.7,0.3l0.1,0.1c0,0.1,0,0.1,0,0.2c0,0.2,0.1,0.4,0.2,0.6
		l-0.9,0.7c-0.1,0-0.1,0.1-0.2,0.1c0,0-0.1,0-0.2,0c-0.1-0.1-0.3-0.2-0.4-0.3c-0.2-0.2-0.3-0.5-0.3-0.7L214.9,144.7z M213.9,145.2
		c0.1,0.4,0.3,0.7,0.5,1c0.2,0.2,0.4,0.4,0.7,0.5c0.2,0.1,0.4,0.1,0.5,0.1h0.2c0.2,0,0.4-0.1,0.6-0.3l1.3-1c0.3,0,0.7,0.1,1,0.3
		c0.2,0.3,0.3,0.6,0.4,0.9c0.1,0.3,0.2,0.6,0.1,0.9c-0.1,0.2-0.4,0.4-0.6,0.5c-1.4,0.8-3,1.2-4.6,1.2c-0.1,0-0.2-0.2-0.3-0.4
		c0-0.1-0.1-0.3-0.1-0.4c0-0.2-0.1-0.5-0.1-0.7c-0.1-0.3-0.2-0.5-0.4-0.8c-0.1-0.2-0.2-0.4-0.3-0.6
		C212.9,146.2,213.4,145.6,213.9,145.2L213.9,145.2z M211.2,146c0.3-0.1,0.6-0.1,0.8,0l0,0c-0.1,0.2-0.1,0.5-0.1,0.8
		c0.1,0.3,0.2,0.6,0.4,0.9c0.1,0.2,0.2,0.3,0.3,0.5c0,0.2,0.1,0.3,0.1,0.5c0,0.2,0,0.4,0.1,0.6l0,0c-0.8-0.2-1.4-0.7-1.8-1.4
		c-0.2-0.3-0.3-0.7-0.3-1.1C210.8,146.5,210.9,146.2,211.2,146L211.2,146z"/>
	<path d="M256.3,148.4c-1-0.7-2.1-1.1-3.3-1.1c-0.7-0.1-1.4-0.1-2.1,0h-0.1c-0.4,0-0.7,0.1-1.1,0.2c-0.3,0.1-0.6,0.3-0.9,0.5
		l-0.2,0.1c-0.9,0.6-1.8,1.3-2.7,2c-0.6,0.4-1,1.1-1.2,1.8c0,0.7,0.3,1.5,0.8,2c0.6,0.9,1.3,1.7,2.1,2.4c1.5,1.2,3.3,2,5.2,2.3
		c0.6,0.1,1.2,0.2,1.8,0.2c0.3,0,0.7,0,1-0.1c0.9-0.3,1.6-0.7,2.3-1.3c1.1-0.9,2.2-1.8,3.1-2.9l0.5-0.6l-0.7-0.3
		c-1-0.5-1.9-1.3-2.4-2.4l-0.3-0.5C257.9,150,257.2,149.1,256.3,148.4z M257.8,152c0.5,1,1.3,1.8,2.2,2.5c-0.8,0.8-1.7,1.6-2.6,2.3
		c-0.6,0.5-1.2,0.9-1.9,1.1c-0.8,0.1-1.6,0.1-2.3-0.1c-1.7-0.3-3.4-1-4.7-2.1c-0.7-0.7-1.4-1.4-2-2.2c-0.4-0.4-0.6-0.8-0.6-1.3
		c0.1-0.5,0.4-0.9,0.8-1.2c0.8-0.7,1.7-1.4,2.6-2l0.2-0.1c0.2-0.2,0.5-0.3,0.7-0.4c0.3-0.1,0.5-0.1,0.8-0.1h0.1
		c0.5,0,0.8-0.1,1.2-0.1h0.7c1,0,1.9,0.4,2.7,0.9c0.8,0.7,1.4,1.5,1.8,2.4L257.8,152z"/>
	<path class="st16" d="M254.1,149.2c-0.2-0.1-0.3-0.1-0.5-0.2c-0.7-0.1-1.5-0.1-2.2-0.1c-0.3-0.1-0.7-0.1-1-0.1
		c-0.3,0.1-0.5,0.2-0.8,0.4l-0.1,0.1c-0.3,0.2-0.5,0.5-0.6,0.8c-0.2,0-0.3,0.1-0.4,0.2v0.1c-0.4,0.2-0.7,0.3-0.7,0.6
		c-0.2,0.6-0.3,1.3-0.2,2c0.2,0.8,0.6,1.4,1.3,1.9c0.2,0.1,0.3,0.3,0.5,0.5c0.3,0.3,0.6,0.6,0.9,0.6l0,0h0.6c0.8,0.6,1.7,1,2.7,1
		c0.3,0,0.6,0,0.9-0.1c1-0.4,1.9-1.1,2.6-1.9c0.7-0.4,0.9-1.4,0.5-2.1c-0.1-0.1-0.1-0.2-0.2-0.3c-0.1-0.2-0.3-0.5-0.5-0.8
		C256.3,150.6,255.3,149,254.1,149.2z M250.2,150.2l0.1-0.1c0.1-0.1,0.2-0.2,0.3-0.2c0.5,0,0.9,0.2,1.2,0.6c0.1,0.1,0.1,0.3,0,0.4
		c-0.4,0.2-0.8,0.5-1,0.9c-0.2-0.1-0.4-0.2-0.6-0.4c-0.2-0.2-0.3-0.4-0.3-0.7C249.9,150.4,250,150.3,250.2,150.2z M250.4,155
		l-0.3-0.3c-0.2-0.2-0.4-0.4-0.6-0.6c-0.4-0.3-0.8-0.8-0.9-1.3c-0.1-0.5,0-0.9,0.2-1.4l0.3-0.1c0.1,0.2,0.3,0.5,0.4,0.7
		c0.4,0.4,0.9,0.7,1.5,0.9l0.7,0.3v-0.7c0-0.3,0.3-0.6,0.6-0.7h0.2l0.1-0.1c0.4-0.4,0.5-1.1,0.2-1.6l0,0c0.2,0,0.5,0,0.7,0
		c0.3,0,0.5,0.2,0.6,0.4c0.1,0.2,0.1,0.4,0.1,0.7c0,0.5-0.1,0.9-0.2,1.4c-0.3,0.9-0.7,1.7-1.2,2.4L250.4,155z M256.7,153.2
		c0.1,0.1,0.2,0.3,0.2,0.4c0,0.2-0.3,0.5-0.4,0.6c-0.6,0.7-1.4,1.2-2.2,1.6c-0.4,0.1-0.7,0.1-1.1,0h0.2l0.2-0.2
		c0.6-0.9,1.1-1.9,1.4-2.9c0.2-0.5,0.2-1.1,0.2-1.7c0-0.1,0-0.2,0-0.3c0.4,0.5,0.7,1,1,1.5C256.4,152.7,256.5,153,256.7,153.2
		L256.7,153.2z"/>
	<path class="st1" d="M237.3,184.8L237.3,184.8"/>
	<path class="st1" d="M237.3,184.8c0.1-0.1,0.1-0.1,0.2-0.1"/>
</g>
<g id="DETAlhe_boca">
	<path class="st23" d="M212.5,177.2c-0.3-0.6-0.7-1.1-1.2-1.5l-0.1-0.1v-0.1c-0.2-0.1-0.5-0.2-0.7-0.3c-0.1,0.1-0.2,0.2-0.2,0.3
		c-0.1,0.1-0.1,0.2-0.2,0.3c-0.1,0.2-0.2,0.3-0.3,0.5c-0.1,0.2-0.2,0.3-0.4,0.5c-0.1,0.1-0.2,0.3-0.3,0.4c-0.2,0.4-0.1,0.9,0.1,1.3
		c0.3,0.5,0.7,0.9,1.1,1.2c0.5,0.4,0.9,0.9,1.3,1.4c0.2,0.3,0.3,0.7,0.5,1.1c0.1,0.2,0.1,0.4,0.2,0.6c0.1,0.4,0.4,0.7,0.7,0.9
		l0.1-0.3c0.3-0.6,0.6-1.3,0.7-2.1c0.1-1.1-0.2-2.1-0.8-3C212.8,177.9,212.6,177.5,212.5,177.2z"/>
	<path class="st25" d="M211.4,183.1c-0.1-0.2-0.2-0.4-0.2-0.7c-0.1-0.3-0.2-0.6-0.4-0.9c-0.3-0.5-0.7-0.9-1.1-1.2
		c-0.5-0.4-1-0.9-1.3-1.5c-0.4-0.7-0.5-1.5-0.1-2.2c0.1-0.2,0.3-0.4,0.5-0.6c0.1-0.1,0.2-0.2,0.3-0.3c0.1-0.1,0.1-0.2,0.2-0.4
		c0.1-0.1,0.1-0.2,0.2-0.3c0.2-0.4,0.5-0.6,0.9-0.8c0.1,0,0.2,0,0.4,0c0.1-0.8-0.5-1.6-1.4-1.7c-0.2,0-0.3,0-0.5,0
		c-0.1,0-0.3,0.1-0.5,0.1c-0.6,0.1-0.8,0.2-0.8,0.4c0,0.1,0,0.3,0,0.4c0,0.7-0.1,1.4-0.7,1.6c-0.2,0-0.3,0.1-0.5,0h-0.1
		c-0.1,0-0.2,0-0.4,0.7c0,0.5,0.1,0.9,0.4,1.3c0.2,0.3,0.3,0.7,0.3,1c0,0.2,0.1,0.4,0.2,0.6c0.1,0.3,0.2,0.6,0.3,0.8
		c0.1,0.5,0.3,0.9,0.6,1.3c0.3,0.3,0.6,0.5,1,0.6l0.5,0.3c0.7,0.3,1.2,0.9,1.5,1.6c0.4,1,1.1,1.9,1.8,2.6c0-0.4,0.2-0.9,0.3-1.3
		C212.1,184.3,211.6,183.7,211.4,183.1z"/>
	<path d="M213.3,176.7c-0.3-0.7-0.8-1.3-1.3-1.8c-0.1-0.2-0.3-0.3-0.5-0.4c0.3-1.4-0.6-2.7-1.9-3c-0.3-0.1-0.7-0.1-1.1,0l-0.4,0.1
		c-0.6,0.1-1.4,0.2-1.7,1.1c0,0.2-0.1,0.4-0.1,0.6c0,0.2,0,0.5-0.1,0.7H206c-0.7,0-1.2,0.5-1.3,1.5c0,0.7,0.1,1.3,0.5,1.9
		c0.1,0.2,0.2,0.5,0.2,0.7c0.1,0.3,0.1,0.5,0.2,0.8c0.1,0.2,0.2,0.5,0.2,0.8c0.1,0.6,0.4,1.2,0.8,1.7c0.4,0.4,0.8,0.7,1.3,0.9
		l0.5,0.2c0.5,0.2,0.9,0.6,1.1,1.1c0.7,1.5,1.7,2.8,3,3.7l1.2,0.8l-0.4-1.4c-0.1-0.9,0-1.8,0.4-2.5c0.1-0.2,0.2-0.4,0.3-0.6
		c0.4-0.7,0.7-1.5,0.8-2.4c0.1-1.3-0.2-2.7-1-3.7C213.7,177.3,213.5,177,213.3,176.7z M212.3,185.8c-0.8-0.7-1.4-1.6-1.8-2.6
		c-0.3-0.7-0.9-1.2-1.5-1.6l-0.5-0.3c-0.4-0.1-0.7-0.4-1-0.6c-0.3-0.4-0.5-0.8-0.6-1.3c-0.1-0.3-0.2-0.6-0.3-0.8
		c-0.1-0.2-0.1-0.4-0.2-0.6c-0.1-0.3-0.2-0.7-0.3-1c-0.3-0.4-0.4-0.8-0.4-1.3c0.1-0.7,0.3-0.7,0.4-0.7h0.1c0.2,0,0.4,0,0.5,0
		c0.6-0.2,0.7-0.9,0.7-1.6c0-0.1,0-0.3,0-0.4c0.1-0.2,0.2-0.3,0.8-0.4c0.2,0,0.3,0,0.5-0.1c0.8-0.2,1.6,0.4,1.8,1.2
		c0,0.2,0,0.3,0,0.5c-0.1,0-0.2,0-0.4,0c-0.4,0.1-0.7,0.4-0.9,0.8c-0.1,0.1-0.1,0.2-0.2,0.3c-0.1,0.1-0.1,0.2-0.2,0.4
		c-0.1,0.1-0.2,0.2-0.3,0.3c-0.2,0.2-0.3,0.4-0.5,0.6c-0.3,0.7-0.3,1.5,0.1,2.2c0.4,0.6,0.8,1.1,1.3,1.5c0.4,0.3,0.8,0.7,1.1,1.2
		c0.2,0.3,0.3,0.6,0.4,0.9c0.1,0.2,0.2,0.5,0.2,0.7c0.2,0.6,0.7,1.1,1.2,1.4C212.4,184.9,212.3,185.3,212.3,185.8L212.3,185.8z
		 M213.9,181.2c-0.1,0.7-0.4,1.4-0.7,2.1l-0.1,0.3c-0.3-0.2-0.6-0.5-0.7-0.9c-0.1-0.2-0.2-0.4-0.2-0.6c-0.1-0.4-0.3-0.8-0.5-1.1
		c-0.4-0.6-0.8-1-1.3-1.5c-0.4-0.3-0.8-0.7-1.1-1.2c-0.2-0.4-0.3-0.8-0.1-1.3c0.1-0.2,0.2-0.3,0.3-0.4c0.1-0.1,0.3-0.3,0.4-0.5
		c0.1-0.1,0.2-0.3,0.3-0.5c0-0.1,0.1-0.2,0.2-0.3c0.1-0.1,0.1-0.2,0.2-0.3c0.3,0.1,0.5,0.2,0.7,0.3v0.1l0.1,0.1
		c0.5,0.4,0.9,1,1.2,1.5c0.2,0.3,0.4,0.7,0.6,1C213.7,179.1,214,180.1,213.9,181.2L213.9,181.2z"/>
</g>
</svg>
