<svg id="Camada_1" data-name="Camada 1" xmlns="http://www.w3.org/2000/svg" viewBox="0 0 455 281"><defs><style>.cls-1{fill:#fefefe;}.cls-2{fill:#040404;}.cls-3{fill:#0c0c0c;}.cls-4{fill:#131313;}.cls-5{fill:#141414;}.cls-6{fill:#111;}.cls-7{fill:#171717;}.cls-8{fill:#161616;}.cls-9{fill:#090909;}.cls-10{fill:#fafafa;}.cls-11{fill:#bababa;}.cls-12{fill:#f7f7f7;}.cls-13{fill:#fbfbfb;}.cls-14{fill:#f3f3f3;}</style></defs><path class="cls-1" d="M960,679.91q-111.4,0-222.81.09c-3.32,0-4.15-.52-4.14-4q.19-136.37,0-272.74c0-3.9,1.17-4.21,4.48-4.2q223,.12,446.12,0c3.47,0,4.4.56,4.4,4.29q-.21,136.11,0,272.23c0,4-1.17,4.48-4.72,4.47Q1071.63,679.83,960,679.91Zm40-57c2.49,0,5,0,7.48.13s5.39-.82,7.29,1.93,3.66,2.72,5.69,0c1-1.27,2.44-2.16,4.07-3.57-2.49-2.3-4.29-5-6.73-5.86-1.84-.63-3.1,2.87-5,4a6.23,6.23,0,0,1-2.86.38c-3.66.08-7.32.11-11,.15.2-9,.2-9-8.75-9h-2c-10.26,0-10.26,0-11.21,10.39-.77,8.5-.5,8,6.21,12.07s11-1.2,16-3.32C1003.14,628.55,998.69,625.24,1000,622.86ZM970,483c-.08-.5-.28-.92-.85-.6-.09,0,.18.74.28,1.14,3.67,5.1,7.11,10.39,11.11,15.22,2.36,2.85.79,3.37-1.42,4.26Q941,518.47,902.82,534c-2.28.93-4.94,1.3-6.94,3.48,11.47,7.52,22.65,14.84,33.82,22.19a6.27,6.27,0,0,0,5.59.85c9.58-2.67,19.24-5.09,28.86-7.6.86-.23,1.72-1.3,2.56,0,.5.77.11,1.46-.12,2.28-3.45,12.18-6.66,24.43-10.27,36.55-1.23,4.13-1.14,6.29,3.76,7.58,7.9,2.09,15.26,5.83,23.59,6.79,13.08,1.51,24.31-4.3,36.14-8,2.84-.89,1.59-2.12,1.26-3.64q-8.87-40.82-17.72-81.63c-.62-2.83-.15-6.49-2.58-8.24C990.6,497.26,980.83,489.4,970,483Zm-123.09,3c-3-.44-5.22,1.34-7,3.63-3.43,4.48-5.27,9.85-7.93,14.77-.42.77-.62,1.41.32,2,.73.44,1.73,1.07,2.23.35,2.25-3.23,4.24-.88,6.28.13q9.3,4.57,18.58,9.21c1.4.69,3.18,1.17,1.67,3.4-.93,1.38.63,1.59,1.3,2.09,1.24.94,1.81-.18,2.24-1,1.22-2.33,2.31-4.73,3.51-7.06.5-1,1-1.84-.37-2.35-.81-.31-2-1.43-2.52,0-1.3,3.25-3.17,1.4-4.75.62-2.66-1.3-6.15-2.27-7.5-4.47-1.16-1.9,1.86-4.61,2.77-7.07C858.53,492.74,854.39,486,846.93,486ZM885,460.6c0,7.16,6.5,14.38,13.07,14.44,6.25.06,12.51-6,12.68-12.24.2-7.14-6.84-14.9-13.37-14.75S885,454.15,885,460.6Zm128.83-11.2C1013.9,442.64,1008,437,1001,437c-6.59,0-12.65,6.75-12.69,14.08,0,6.6,5.54,12.13,12.42,12.33C1007.79,463.63,1013.75,457.25,1013.83,449.4Zm-77.36-6.11c.65,4.65,1.41,9.53,6.5,12.26,5.25,2.81,9.88.87,14.42-1.76.76-.45,1.94-.94,1.13-2.25-.68-1.11-1.37-1.62-2.79-.76a14.44,14.44,0,0,1-5,2c-3.89.61-7.07-.49-9.05-4.32-1.32-2.54-.59-3.64,2-3.94,4.26-.5,8.54-.93,12.8-1.41,1-.12,2.32.4,2.29-1.62,0-4-3.35-9-7.14-10.45C944,428.19,936.48,434.14,936.47,443.29Zm99.42,42.33c0,4.4,2.66,8.57,7.32,11,1.34.71,3.19,2.95,4.57.35,1.24-2.36-1.47-2.37-2.65-3.2-5-3.51-6.6-8.2-4.06-12.23,1.4-2.23,2.69-3,4.63-.33,2.43,3.35,5.15,6.49,7.83,9.65.72.84,1.22,2.26,3,.95a10.75,10.75,0,0,0,2.78-14.87c-3.14-4.42-8.27-6.21-13-4.55C1040.44,474.47,1035.86,480.27,1035.89,485.62Zm31,25.69c-.18-2.47-.32-3.8-.36-5.13-.06-1.75.26-3.4,2.21-4s3.18.74,4,2.18c1.21,2.05,2,4.16.19,6.45-1.34,1.71,0,3.27,1.14,4.26a1.75,1.75,0,0,0,2.69-1.14c.6-4.23,1.44-8.57-1.8-12.24-2-2.28-4.08-4.49-7.62-3.3-3.73,1.26-5,4-4.75,7.71.16,2.32.25,4.64.33,7a3.43,3.43,0,0,1-2.51,3.82c-1.9.54-3.29-.55-4.19-2-1.34-2.15-2.26-4.34-.32-6.87,1.41-1.82,0-3.46-1.45-4.46-.51-.36-2.08.13-2.53,1.51a14,14,0,0,0,3.65,14.13,6.69,6.69,0,0,0,11.25-4.07A35.67,35.67,0,0,0,1066.93,511.31ZM878.57,495.55c.63-.58,1.28-1.07,1.81-1.66,1.65-1.85,3.23-3.77,4.9-5.61.84-.91,1.68-1.68.28-2.8-1.1-.88-1.94-1-2.87.29s-1.88,1.64-3.22.27c-2.43-2.49-5.32-4.58-7.48-7.28-1.94-2.43-3.86-5.51,1.3-7.08.93-.29,2.32-1.18,1.81-2.53a7,7,0,0,0-2.24-2.55c-1.44-1.16-2,.44-2.74,1.14a6.1,6.1,0,0,0-2.22,3.76c-.15,1.52,0,3.13-2.71,2.66-1-.17-2.36,2-3.54,3.16-.75.73-1.38,1.59-.41,2.53.78.76,1.64,1.86,2.86.51,1.6-1.77,2.55-.17,3.59.74,2.74,2.4,5.51,4.78,8.16,7.28,1,.95,3,1.63,1,3.78C875.15,494,877.59,494.46,878.57,495.55Zm136.86-29.11a12.16,12.16,0,0,0-1.95,1.85c-.84,1.2.29,1.74,1,2.3,2,1.46,4,2.88,6,4.33.93.67,1.69,1.49,2.88.15s1.08-2.22-.32-3.15c-1.07-.71-1.74-1.53-.76-2.82,2.2-2.89,4.06-6.14,6.68-8.59,2.18-2,5.25-3.54,7.17.87a2.35,2.35,0,0,0,2.35,1.5c1.47-.22,1.82-1.81,2.56-2.83s-.51-1.66-1.19-2.19c-1.72-1.31-3.52-2.41-5.88-2-.58.1-2.22.52-1.7-.62,1.81-3.94-2.44-3.33-3.53-5a1.3,1.3,0,0,0-2.36,0c-.51.81-1.62,1.69-.45,2.49,2.54,1.72.81,3-.23,4.37-1.87,2.52-3.67,5.09-5.54,7.61C1019.11,466.2,1018.58,469.21,1015.43,466.44Zm-99.88-35.88c-2.07,1.19-3,2.65-1.67,5.19.62,1.18,1.68,3.1-1.11,3.7-.79.17-1.92.79-1.2,2.15.49.93,1,1.86,2.22,1.12,2.62-1.59,2.71.8,3.21,2.12,1.46,3.86,2.61,7.84,4.14,11.67,2,5,7.21,6.19,11.13,2.66.64-.58,1.75-1.11.86-2.3-.59-.78-1.19-.79-2.1-.34-4.58,2.31-6.19-.34-7.23-4.28a58,58,0,0,0-2.92-8.4c-1-2.4-.91-3.83,2-4.43.9-.18,2.56-.13,2.11-2s-2.08-1.8-3.12-1.15c-3,1.9-3.66-.17-4.47-2.32C917,432.88,917.14,431.57,915.55,430.56Zm62.11,26.53c1-.39,2.74.84,3.31-1,.31-1-.11-2.16-1.44-2-5.84.59-5-3.27-4.63-6.83.29-2.63.9-5.26,1-7.9.07-2.93.63-4.91,4.19-4.24,1.13.21,2.42.46,2.65-1.29.32-2.37-1.49-1.76-2.64-1.76-2.84,0-3.35-1.41-2.83-3.87.3-1.39,1.94-3.52-.68-4-2.18-.4-3,1.64-3.27,3.61-.2,1.8.08,4-2.88,3-1.3-.4-1.35.44-1.45,1.25s-.51,1.93.71,1.91c4-.07,2.4,2.82,2.28,4.54-.25,3.62-1,7.22-1.37,10.84C970,454.74,972.2,457.15,977.66,457.09Zm25.68,154.38c2.26.71-1.6,6.35,3.17,4.92,6.69-2,13-5.15,19.53-7.8,3-1.22.69-3.4.82-5.07.16-2.07-1.65-1.73-2.86-1.33-6.5,2.19-13,4.52-19.45,6.72C1003.32,609.32,1003,610,1003.34,611.47Zm-32,5.5c2.67-7.39,2.68-7.42-4.35-9.84-4.31-1.48-8.66-2.88-13-4.3-1.67-.55-3.38-2.39-4.39,1.17-.8,2.81-.56,4.15,2.3,5.22C958.48,611.65,964.91,614.37,971.38,617Zm2.52-117.76a100,100,0,0,0-15.47-12.08c2.13,3.79,4.78,7.1,6.92,10.71C967.59,501.61,970.16,501.93,973.9,499.21Z" transform="translate(-733 -399)"/><path class="cls-2" d="M970,483c10.81,6.39,20.58,14.25,30.75,21.56,2.43,1.75,2,5.41,2.58,8.24q8.89,40.82,17.72,81.63c.33,1.52,1.58,2.75-1.26,3.64-11.83,3.68-23.06,9.49-36.14,8-8.33-1-15.69-4.7-23.59-6.79-4.9-1.29-5-3.45-3.76-7.58,3.61-12.12,6.82-24.37,10.27-36.55.23-.82.62-1.51.12-2.28-.84-1.28-1.7-.21-2.56,0-9.62,2.51-19.28,4.93-28.86,7.6a6.27,6.27,0,0,1-5.59-.85c-11.17-7.35-22.35-14.67-33.82-22.19,2-2.18,4.66-2.55,6.94-3.48Q941,518.42,979.14,503c2.21-.89,3.78-1.41,1.42-4.26-4-4.83-7.44-10.12-11.11-15.22A4.81,4.81,0,0,0,970,483Zm-5.3,64.45c-7.39-7.86-14.3-15.18-21.16-22.55a2.5,2.5,0,0,0-3.1-.71c-8,3.24-16,6.28-23.86,9.82-4.7,2.12-4.92,7.69-.78,10.41,4.56,3,9.26,5.84,13.67,9.06a7.89,7.89,0,0,0,7.35,1.36C945.78,552.39,954.76,550.09,964.72,547.46Zm-9.06-24c3.17,3.78,6.28,3.52,9.79,0Z" transform="translate(-733 -399)"/><path class="cls-3" d="M1000,622.86c-1.28,2.38,3.17,5.69-.81,7.37-5,2.12-9.21,7.38-16,3.32s-7-3.57-6.21-12.07c.95-10.39.95-10.39,11.21-10.39h2c9,0,9,0,8.75,9l.1-.17c-2.16,0-4.41.37-6.44-.15-4.84-1.25-8.69-1.87-6.6,5.33.35,1.2-1.58,2.17-.64,3.73h6.33c-1.77-5.87-1.77-5.88,4.41-5.86,1.32,0,2.64.05,4,.08Z" transform="translate(-733 -399)"/><path class="cls-4" d="M846.93,486c7.46,0,11.6,6.74,8.86,14.18-.91,2.46-3.93,5.17-2.77,7.07,1.35,2.2,4.84,3.17,7.5,4.47,1.58.78,3.45,2.63,4.75-.62.55-1.39,1.71-.27,2.52,0,1.37.51.87,1.4.37,2.35-1.2,2.33-2.29,4.73-3.51,7.06-.43.82-1,1.94-2.24,1-.67-.5-2.23-.71-1.3-2.09,1.51-2.23-.27-2.71-1.67-3.4q-9.27-4.63-18.58-9.21c-2-1-4-3.36-6.28-.13-.5.72-1.5.09-2.23-.35-.94-.56-.74-1.2-.32-2,2.66-4.92,4.5-10.29,7.93-14.77C841.71,487.34,843.91,485.56,846.93,486Zm.44,4.61c-3.41-.27-8,4.41-8.49,8.56-.16,1.28,6.73,6.34,8.85,5.8,3.92-1,4.56-5,5.13-8.13C853.53,493.12,850.75,491.24,847.37,490.61Z" transform="translate(-733 -399)"/><path class="cls-5" d="M885,460.6c0-6.45,5.91-12.4,12.38-12.55s13.57,7.61,13.37,14.75c-.17,6.26-6.43,12.3-12.68,12.24C891.5,475,885,467.76,885,460.6Zm21.47,2.61c.08-5.23-4.66-10.93-9.24-11.12a7.9,7.9,0,0,0-8.25,8c.07,5.23,5.42,11,10.17,10.94C903,471,906.41,467.34,906.47,463.21Z" transform="translate(-733 -399)"/><path class="cls-6" d="M1013.83,449.4c-.08,7.85-6,14.23-13.09,14-6.88-.2-12.45-5.73-12.42-12.33,0-7.33,6.1-14,12.69-14.08C1008,437,1013.9,442.64,1013.83,449.4Zm-21,2.24c0,4.86,3.41,8.5,7.78,8.38s9.27-5.92,9.27-11.26A7.8,7.8,0,0,0,1002,441C996.81,440.87,992.8,445.52,992.83,451.64Z" transform="translate(-733 -399)"/><path class="cls-4" d="M936.47,443.29c0-9.15,7.55-15.1,15.15-12.27,3.79,1.42,7.09,6.47,7.14,10.45,0,2-1.26,1.5-2.29,1.62-4.26.48-8.54.91-12.8,1.41-2.59.3-3.32,1.4-2,3.94,2,3.83,5.16,4.93,9.05,4.32a14.44,14.44,0,0,0,5-2c1.42-.86,2.11-.35,2.79.76.81,1.31-.37,1.8-1.13,2.25-4.54,2.63-9.17,4.57-14.42,1.76C937.88,452.82,937.12,447.94,936.47,443.29ZM954,439.71c-.57-3.27-2.11-5.43-5.7-5.62-3-.17-5.56.68-6.89,3.62-1,2.15-1.11,3.69,2.25,3.46A46.11,46.11,0,0,0,954,439.71Z" transform="translate(-733 -399)"/><path class="cls-5" d="M1035.89,485.62c0-5.35,4.55-11.15,10.44-13.22,4.75-1.66,9.88.13,13,4.55a10.75,10.75,0,0,1-2.78,14.87c-1.82,1.31-2.32-.11-3-.95-2.68-3.16-5.4-6.3-7.83-9.65-1.94-2.67-3.23-1.9-4.63.33-2.54,4-1,8.72,4.06,12.23,1.18.83,3.89.84,2.65,3.2-1.38,2.6-3.23.36-4.57-.35C1038.55,494.19,1035.92,490,1035.89,485.62Zm14.69-10.2c-1.11.34-2.8.36-3.49,1.19-1,1.26.6,2.36,1.31,3.34a47.62,47.62,0,0,0,3.91,4.49c.92,1,1.44,3.36,3.17,2.21a5,5,0,0,0,2.26-5.18A7.6,7.6,0,0,0,1050.58,475.42Z" transform="translate(-733 -399)"/><path class="cls-7" d="M1066.93,511.31a35.67,35.67,0,0,1,0,3.84,6.69,6.69,0,0,1-11.25,4.07,14,14,0,0,1-3.65-14.13c.45-1.38,2-1.87,2.53-1.51,1.41,1,2.86,2.64,1.45,4.46-1.94,2.53-1,4.72.32,6.87.9,1.44,2.29,2.53,4.19,2a3.43,3.43,0,0,0,2.51-3.82c-.08-2.32-.17-4.64-.33-7-.26-3.72,1-6.45,4.75-7.71,3.54-1.19,5.62,1,7.62,3.3,3.24,3.67,2.4,8,1.8,12.24a1.75,1.75,0,0,1-2.69,1.14c-1.13-1-2.48-2.55-1.14-4.26,1.79-2.29,1-4.4-.19-6.45-.86-1.44-2.07-2.77-4-2.18s-2.27,2.23-2.21,4C1066.61,507.51,1066.75,508.84,1066.93,511.31Z" transform="translate(-733 -399)"/><path class="cls-8" d="M878.57,495.55c-1-1.09-3.42-1.58-1.72-3.39,2-2.15,0-2.83-1-3.78-2.65-2.5-5.42-4.88-8.16-7.28-1-.91-2-2.51-3.59-.74-1.22,1.35-2.08.25-2.86-.51-1-.94-.34-1.8.41-2.53,1.18-1.14,2.57-3.33,3.54-3.16,2.71.47,2.56-1.14,2.71-2.66a6.1,6.1,0,0,1,2.22-3.76c.74-.7,1.3-2.3,2.74-1.14a7,7,0,0,1,2.24,2.55c.51,1.35-.88,2.24-1.81,2.53-5.16,1.57-3.24,4.65-1.3,7.08,2.16,2.7,5,4.79,7.48,7.28,1.34,1.37,2.35.95,3.22-.27s1.77-1.17,2.87-.29c1.4,1.12.56,1.89-.28,2.8-1.67,1.84-3.25,3.76-4.9,5.61C879.85,494.48,879.2,495,878.57,495.55Z" transform="translate(-733 -399)"/><path class="cls-4" d="M1015.43,466.44c3.15,2.77,3.68-.24,4.81-1.75,1.87-2.52,3.67-5.09,5.54-7.61,1-1.42,2.77-2.65.23-4.37-1.17-.8-.06-1.68.45-2.49a1.3,1.3,0,0,1,2.36,0c1.09,1.71,5.34,1.1,3.53,5-.52,1.14,1.12.72,1.7.62,2.36-.44,4.16.66,5.88,2,.68.53,2,1.06,1.19,2.19s-1.09,2.61-2.56,2.83a2.35,2.35,0,0,1-2.35-1.5c-1.92-4.41-5-2.91-7.17-.87-2.62,2.45-4.48,5.7-6.68,8.59-1,1.29-.31,2.11.76,2.82,1.4.93,1.49,1.82.32,3.15s-2,.52-2.88-.15c-2-1.45-4-2.87-6-4.33-.76-.56-1.89-1.1-1-2.3A12.16,12.16,0,0,1,1015.43,466.44Z" transform="translate(-733 -399)"/><path class="cls-8" d="M915.55,430.56c1.59,1,1.44,2.32,1.83,3.38.81,2.15,1.43,4.22,4.47,2.32,1-.65,2.65-.8,3.12,1.15s-1.21,1.83-2.11,2c-2.89.6-3,2-2,4.43a58,58,0,0,1,2.92,8.4c1,3.94,2.65,6.59,7.23,4.28.91-.45,1.51-.44,2.1.34.89,1.19-.22,1.72-.86,2.3-3.92,3.53-9.13,2.34-11.13-2.66-1.53-3.83-2.68-7.81-4.14-11.67-.5-1.32-.59-3.71-3.21-2.12-1.22.74-1.73-.19-2.22-1.12-.72-1.36.41-2,1.2-2.15,2.79-.6,1.73-2.52,1.11-3.7C912.55,433.21,913.48,431.75,915.55,430.56Z" transform="translate(-733 -399)"/><path class="cls-8" d="M977.66,457.09c-5.46.06-7.7-2.35-7.1-7.71.4-3.62,1.12-7.22,1.37-10.84.12-1.72,1.75-4.61-2.28-4.54-1.22,0-.8-1.16-.71-1.91s.15-1.65,1.45-1.25c3,.93,2.68-1.25,2.88-3,.22-2,1.09-4,3.27-3.61,2.62.48,1,2.61.68,4-.52,2.46,0,3.88,2.83,3.87,1.15,0,3-.61,2.64,1.76-.23,1.75-1.52,1.5-2.65,1.29-3.56-.67-4.12,1.31-4.19,4.24-.05,2.64-.66,5.27-1,7.9-.39,3.56-1.21,7.42,4.63,6.83,1.33-.13,1.75,1,1.44,2C980.4,457.93,978.7,456.7,977.66,457.09Z" transform="translate(-733 -399)"/><path class="cls-3" d="M1003.34,611.47c-.31-1.48,0-2.15,1.21-2.56,6.5-2.2,13-4.53,19.45-6.72,1.21-.4,3-.74,2.86,1.33-.13,1.67,2.16,3.85-.82,5.07-6.5,2.65-12.84,5.81-19.53,7.8C1001.74,617.82,1005.6,612.18,1003.34,611.47Z" transform="translate(-733 -399)"/><path class="cls-9" d="M971.38,617c-6.47-2.6-12.9-5.32-19.44-7.75-2.86-1.07-3.1-2.41-2.3-5.22,1-3.56,2.72-1.72,4.39-1.17,4.34,1.42,8.69,2.82,13,4.3C974.06,609.55,974.05,609.58,971.38,617Z" transform="translate(-733 -399)"/><path class="cls-6" d="M998.92,620.05c3.66,0,7.32-.07,11-.15a6.23,6.23,0,0,0,2.86-.38c1.91-1.12,3.17-4.62,5-4,2.44.83,4.24,3.56,6.73,5.86-1.63,1.41-3.1,2.3-4.07,3.57-2,2.68-3.84,2.63-5.69,0s-4.73-1.82-7.29-1.93-5-.09-7.48-.13l.08.15a4.43,4.43,0,0,0-1-3.13Zm22.22.44c-1.07-.72-2.24-2-3.56-2.2-1-.12-2.45,1.31-2.55,2.61a3,3,0,0,0,2.7,3C1019.06,624,1019.78,622.51,1021.14,620.49Z" transform="translate(-733 -399)"/><path class="cls-8" d="M973.9,499.21c-3.74,2.72-6.31,2.4-8.55-1.37-2.14-3.61-4.79-6.92-6.92-10.71A100,100,0,0,1,973.9,499.21Z" transform="translate(-733 -399)"/><path class="cls-2" d="M969.45,483.55c-.1-.4-.37-1.09-.28-1.14.57-.32.77.1.85.6A4.81,4.81,0,0,1,969.45,483.55Z" transform="translate(-733 -399)"/><path class="cls-10" d="M964.72,547.46c-10,2.63-18.94,4.93-27.88,7.39a7.89,7.89,0,0,1-7.35-1.36c-4.41-3.22-9.11-6-13.67-9.06-4.14-2.72-3.92-8.29.78-10.41,7.83-3.54,15.89-6.58,23.86-9.82a2.5,2.5,0,0,1,3.1.71C950.42,532.28,957.33,539.6,964.72,547.46Z" transform="translate(-733 -399)"/><path class="cls-11" d="M955.66,523.44h9.79C961.94,527,958.83,527.22,955.66,523.44Z" transform="translate(-733 -399)"/><path class="cls-1" d="M999,619.88a4.43,4.43,0,0,1,1,3.13c-1.33,0-2.65-.08-4-.08-6.18,0-6.18,0-4.41,5.86h-6.33c-.94-1.56,1-2.53.64-3.73-2.09-7.2,1.76-6.58,6.6-5.33C994.61,620.25,996.86,619.85,999,619.88Z" transform="translate(-733 -399)"/><path class="cls-12" d="M847.37,490.61c3.38.63,6.16,2.51,5.49,6.23-.57,3.14-1.21,7.13-5.13,8.13-2.12.54-9-4.52-8.85-5.8C839.38,495,844,490.34,847.37,490.61Z" transform="translate(-733 -399)"/><path class="cls-13" d="M906.47,463.21c-.06,4.13-3.47,7.76-7.32,7.79-4.75.05-10.1-5.71-10.17-10.94a7.9,7.9,0,0,1,8.25-8C901.81,452.28,906.55,458,906.47,463.21Z" transform="translate(-733 -399)"/><path class="cls-13" d="M992.83,451.64c0-6.12,4-10.77,9.2-10.68a7.8,7.8,0,0,1,7.85,7.8c0,5.34-4.77,11.13-9.27,11.26S992.86,456.5,992.83,451.64Z" transform="translate(-733 -399)"/><path class="cls-10" d="M954,439.71a46.11,46.11,0,0,1-10.34,1.46c-3.36.23-3.22-1.31-2.25-3.46,1.33-2.94,3.85-3.79,6.89-3.62C951.89,434.28,953.43,436.44,954,439.71Z" transform="translate(-733 -399)"/><path class="cls-14" d="M1050.58,475.42a7.6,7.6,0,0,1,7.16,6.05,5,5,0,0,1-2.26,5.18c-1.73,1.15-2.25-1.23-3.17-2.21a47.62,47.62,0,0,1-3.91-4.49c-.71-1-2.35-2.08-1.31-3.34C1047.78,475.78,1049.47,475.76,1050.58,475.42Z" transform="translate(-733 -399)"/><path class="cls-12" d="M1021.14,620.49c-1.36,2-2.08,3.55-3.41,3.37a3,3,0,0,1-2.7-3c.1-1.3,1.53-2.73,2.55-2.61C1018.9,618.44,1020.07,619.77,1021.14,620.49Z" transform="translate(-733 -399)"/></svg>